<svg xmlns="http://www.w3.org/2000/svg"><symbol id="note_icon" viewBox="0 0 500 500"><path d="M152 384c9 14-23 37-42 51-19 13-61 31-69 17-9-15 24-40 44-54 19-13 58-27 67-14zm305-79c8 10-19 39-38 52-20 13-65 28-71 17-7-11 20-38 39-52 20-13 62-27 70-17zm-2-254v48l-265 70v-49zm21-51c-2 0-3 0-5 1L162 82c-9 3-16 11-16 21v233h-7c-20 2-43 10-65 24-23 13-43 30-56 49s-23 43-15 65c9 22 30 27 51 26 20-2 43-10 66-24 23-13 42-30 55-49 13-18 23-42 15-63V214l265-69v114h-9c-20 1-43 10-66 23-23 14-42 31-55 50-14 19-24 43-15 65s30 27 51 26c20-2 43-10 66-24s42-31 55-49c12-17 21-37 17-57V22c0-12-10-22-23-22z"/></symbol><symbol id="bus_icon" viewBox="0 0 100 100"><path d="M67 0c18 0 33 14 33 31v52c0 3-2 4-4 4h-5v7c0 3-3 6-7 6H70c-4 0-7-3-7-6v-7H37v7c0 3-3 6-7 6H16c-4 0-7-3-7-6v-7H4c-2 0-4-1-4-4V31C0 14 15 0 32 0h35zM33 8C19 8 8 18 8 31v49h84V31C92 18 81 8 68 8H33zm41 6c1 0 3 1 3 3 0 1-2 3-3 3H26c-2 0-3-2-3-3 0-2 1-3 3-3h48zm8 10c3 0 5 3 5 6v19c0 3-2 5-5 5H18c-3 0-6-2-6-5V30c0-3 3-6 6-6h64zm-66 6v19c0 1 1 2 2 2h64c1 0 2-1 2-2V30c0-2-1-3-2-3H18c-1 0-2 1-2 3zm61 34c0 3-2 6-5 6s-6-3-6-6 3-5 6-5 5 2 5 5zm-43 1c0 3-3 5-6 5s-6-2-6-5 3-6 6-6 6 3 6 6zm35-1c0 2 1 3 3 3 1 0 3-1 3-3 0-1-2-2-3-2-2 0-3 1-3 2zm-44 1c0 1 1 3 3 3s3-2 3-3c0-2-1-3-3-3s-3 1-3 3zm-8 27h11v-5H17v5zm54 0h11v-5H71v5z"/></symbol><symbol id="hause_icon" viewBox="0 0 100 79"><path d="M50 0c-1 1-2 1-3 2L2 37c-1 1-2 2-2 3 0 3 2 5 4 5 1 0 2-1 3-1l6-5v36c0 2 2 4 4 4h23c2 0 4-2 4-4V50h12v25c0 2 2 4 4 4h23c2 0 4-2 4-4V39l6 5c1 0 2 1 3 1 2 0 4-2 4-5 0-1-1-2-2-3L53 2c-1-1-2-2-3-2zm0 10l29 23v38H64V46c0-2-2-4-4-4H40c-2 0-4 2-4 4v25H21V33l29-23z"/></symbol><symbol id="girl_icon" viewBox="0 0 16 19"><path d="M8 0C3.674 0 .182 3.826.182 8.55c0 1.576.392 3.125 1.173 4.475.209.375.73.55 1.147.35.6-.264 1.337-.553 2.018-.73.234.288.485.542.751.763C2.276 13.854 0 16.191 0 19h1.746c0-2.2 2.033-4 4.56-4v-.959c.397.178.81.312 1.25.36 1.041.046 1.312-.023 2.137-.327V15c2.528 0 4.56 1.8 4.56 4H16c0-2.796-2.256-5.126-5.232-5.586a3.87 3.87 0 0 0 .462-.465c.08-.084.146-.19.221-.281.695.175 1.46.436 2.074.707.105.05.233.074.364.074.312 0 .627-.149.783-.424a9.174 9.174 0 0 0 1.146-4.474C15.818 3.826 12.326 0 8 0zm0 1.676c3.336 0 6.072 3.075 6.098 6.875a7.6 7.6 0 0 1-.6 2.974c-.364-.128-.726-.24-1.09-.35.35-.732.63-1.573.83-2.525.078-.325.103-.675.13-1.05a.465.465 0 0 0-.13-.325.44.44 0 0 0-.312-.125h-4.04l-.13-1.275a.445.445 0 0 0-.444-.375c-.234 0-.417.15-.443.375L7.74 7.15h-.6l-.39-2.7a.466.466 0 0 0-.443-.35c-.235 0-.418.15-.444.35l-.39 2.7H3.074a.49.49 0 0 0-.312.125c-.105.1-.13.2-.13.325.027.4.052.725.13 1.05.204.954.496 1.793.851 2.53-.37.11-.743.218-1.086.345a7.71 7.71 0 0 1-.6-2.974c0-3.8 2.737-6.875 6.073-6.875zM6.307 7.65a.463.463 0 0 0 .443.375h1.38c.079 0 .13 0 .182-.025.053.025.13.025.182.025h3.961c-.026.175-.052.325-.078.475-.365 1.675-.99 3-1.797 3.875-.831.798-1.283 1.2-2.945 1.2-1.662-.002-3.36-2.05-4.012-5.075-.026-.15-.052-.3-.078-.475h2.318a.445.445 0 0 0 .444-.375zm-.157 1a.513.513 0 0 0-.521.5c0 .275.235.5.521.5a.513.513 0 0 0 .522-.5c0-.275-.235-.5-.522-.5zm3.7 0a.513.513 0 0 0-.522.5c0 .275.235.5.522.5a.513.513 0 0 0 .521-.5c0-.275-.235-.5-.521-.5z"/></symbol><symbol id="cap_icon" viewBox="0 0 100 62"><path d="M50 0c-2 0-4 0-5 1L2 19l-2 2c0 1 1 2 2 3l12 5v19c0 1 0 2 1 2 0 0 13 12 34 12 20 0 35-11 35-11 1-1 1-2 1-3V29l10-4v8c-2 1-3 2-3 4v14c0 2 2 3 4 3s4-1 4-3V37c0-2-1-3-3-4v-9h1c1-1 2-2 2-3l-2-2L54 1c-1-1-2-1-4-1zm0 7l34 14-34 15-34-15L50 7zM20 32l25 10c1 1 3 1 5 1s3 0 4-1l25-10v15c-2 1-14 9-30 9-17 0-27-9-29-10V32z"/></symbol><symbol id="star_icon" viewBox="0 0 4.762 4.763"><path d="M2.381.526l.616 1.247 1.376.2-.996.97.235 1.372-1.23-.648-1.232.648.235-1.371-.995-.97 1.376-.2z"/></symbol><symbol id="flash_icon" viewBox="0 0 3.969 7.673"><path d="M1.3 7.518a.203.203 0 0 1-.12-.123c-.015-.051-.062.153.567-2.43a64.53 64.53 0 0 0 .295-1.238c-.003-.003-.411.095-.907.218-.496.123-.921.223-.945.223a.196.196 0 0 1-.153-.073C.007 4.061 0 4.044 0 4.001 0 3.96.61 1.419.867.393.897.274.908.245.94.21a.203.203 0 0 1 .08-.055c.027-.007.324-.012.803-.012.738 0 .763.001.808.023a.235.235 0 0 1 .074.059c.058.078.07.037-.352 1.18a64.251 64.251 0 0 0-.383 1.054c.002.002.41-.096.904-.218 1.022-.252.95-.242 1.046-.147.092.092.193-.148-1.163 2.757a300.938 300.938 0 0 1-1.226 2.608c-.045.063-.15.09-.233.06z"/></symbol><symbol id="leaf_icon" viewBox="0 0 7.937 6.35"><path d="M.422 6.284c-.134-.024-.235-.12-.367-.353C.006 5.846 0 5.825 0 5.752c0-.179.148-.38.463-.63.253-.202.38-.327.398-.394.013-.047.01-.065-.046-.205-.084-.214-.098-.29-.107-.572a2.379 2.379 0 0 1 .268-1.24c.202-.4.44-.686.849-1.014.382-.307.95-.597 1.383-.706C3.48.922 3.89.888 4.705.865c.74-.02.952-.04 1.269-.114.3-.07.457-.156.685-.376.267-.258.345-.302.554-.315.144-.009.204.012.293.1.184.18.305.524.4 1.129.078.508.009 1.192-.18 1.76a3.48 3.48 0 0 1-.906 1.453c-.38.38-.796.675-1.334.947-1.046.53-2.113.64-3.15.323a4.144 4.144 0 0 1-.398-.173c-.338-.164-.435-.203-.506-.203-.092 0-.149.069-.437.524-.086.138-.235.296-.316.337a.432.432 0 0 1-.257.027zM2.141 4.54c.029-.02.196-.175.371-.348.384-.377.574-.54.849-.725.559-.38 1.082-.54 1.87-.571.235-.01.24-.01.303-.05a.277.277 0 0 0 .135-.259.29.29 0 0 0-.13-.22c-.047-.03-.072-.037-.173-.041a4.22 4.22 0 0 0-2.85 1.06c-.318.274-.75.715-.793.811a.287.287 0 0 0 0 .227c.031.07.124.15.186.16a.68.68 0 0 1 .06.01c.03.008.123-.022.172-.054z"/></symbol><symbol id="saerch_icon" viewBox="0 0 6.085 6.085"><path d="M5.494 6.068c-.09-.027-.154-.079-.39-.314a118.46 118.46 0 0 0-.637-.63l-.436-.427-.128.08a2.513 2.513 0 0 1-1.555.357A2.577 2.577 0 0 1 .435 4.012a3.873 3.873 0 0 1-.31-.634 2.72 2.72 0 0 1-.08-1.298A2.566 2.566 0 0 1 1.974.073C3.094-.209 4.32.347 4.85 1.377c.119.23.162.343.22.57a2.53 2.53 0 0 1-.28 1.938l-.09.146.656.659c.423.424.67.685.692.734a.524.524 0 0 1-.004.394c-.108.204-.346.312-.55.25zM2.842 4.195a1.54 1.54 0 0 0 .888-.466c.333-.33.486-.696.486-1.155 0-.465-.153-.825-.495-1.162A1.533 1.533 0 0 0 2.573.934c-.455 0-.825.156-1.157.486a1.527 1.527 0 0 0-.48 1.248c.02.406.155.72.434 1.019.258.275.575.45.915.506.141.024.417.025.557.002z"/></symbol><symbol id="masage_icon" viewBox="0 0 7.144 5.821"><path d="M6.073 296.705a3.394 3.394 0 0 1-1.025-.422l-.113-.074-.115.017c-.6.092-1.253.022-1.788-.19-.141-.057-.501-.244-.487-.253a3.974 3.974 0 0 0 1.507-.167c.934-.299 1.623-.938 1.823-1.692.05-.19.062-.287.061-.502 0-.203-.019-.35-.06-.485a.217.217 0 0 1-.014-.065c.002-.002.08.046.173.108.196.13.41.327.531.49.16.212.27.465.303.69.02.145.009.424-.024.555-.103.408-.385.775-.815 1.061l-.122.082a.664.664 0 0 0 .052.12c.063.126.174.276.333.449.112.12.132.164.108.227-.035.093-.087.1-.328.051zM.82 295.78a.121.121 0 0 1-.077-.116c0-.053.014-.074.142-.216.181-.202.26-.312.325-.454l.037-.082-.12-.078a1.985 1.985 0 0 1-.7-.756c-.37-.724-.094-1.539.693-2.054.877-.574 2.183-.648 3.167-.181a2.3 2.3 0 0 1 .698.491c.237.243.366.465.443.76.025.097.029.14.029.333s-.004.236-.03.333c-.094.363-.301.671-.632.94-.361.294-.911.516-1.458.588-.307.04-.718.036-1.016-.011l-.1-.016-.126.08c-.332.21-.778.382-1.132.438-.086.013-.114.014-.143.002zm1.149-.927l.135-.092.148.027c.433.077.775.08 1.16.011.513-.092.956-.313 1.254-.626.233-.243.342-.511.325-.795a.869.869 0 0 0-.095-.372c-.24-.5-.905-.888-1.68-.979a4.642 4.642 0 0 0-.883.025c-.716.136-1.271.49-1.498.956a.84.84 0 0 0-.095.425c0 .118.006.16.033.253.057.19.167.365.334.53.126.125.265.223.526.372.114.064.207.119.207.12l-.038.094-.062.151-.024.06.059-.034c.032-.018.12-.075.194-.126z" stroke-width=".012" transform="translate(0 -291.18)"/></symbol><symbol id="human_icon" viewBox="0 0 3.969 4.498"><path d="M.962 296.33c-.178-.036-.328-.203-.37-.412a1.96 1.96 0 0 1-.003-.37c.03-.349.142-.64.297-.775a.6.6 0 0 1 .359-.153l.048-.005.04.034a1.017 1.017 0 0 0 1.304 0l.04-.034.067.008a.591.591 0 0 1 .468.313c.121.218.183.52.174.85a.68.68 0 0 1-.017.173.572.572 0 0 1-.16.262.426.426 0 0 1-.166.102l-.045.014-.995.001c-.837.001-1.003 0-1.041-.008zm.917-1.588a.852.852 0 0 1-.397-.15 1.059 1.059 0 0 1-.201-.202.825.825 0 0 1-.119-.257 1.134 1.134 0 0 1-.01-.299.808.808 0 0 1 .467-.597.788.788 0 0 1 .366-.073c.199 0 .348.044.495.148a.79.79 0 0 1 .339.523 1.04 1.04 0 0 1-.015.311.834.834 0 0 1-.591.574.935.935 0 0 1-.334.022z" stroke-width=".007" transform="translate(0 -292.502)"/></symbol><symbol id="facebook_icon" viewBox="0 0 4.498 8.202"><path d="M1.436 295v-1.734H.275v-.656c0-.361-.005-.667-.01-.68-.008-.022.05-.025.58-.025h.588l.008-.653c.007-.702.015-.78.096-1.036.1-.311.27-.561.512-.749.353-.275.758-.374 1.428-.352.3.01.64.033.714.048l.042.01v1.204h-.44c-.48 0-.596.014-.714.084a.448.448 0 0 0-.193.244c-.033.088-.035.12-.04.647l-.006.554h1.348l-.008.034c-.007.031-.176 1.296-.176 1.317 0 .005-.261.01-.58.01h-.582v3.468H1.436z" stroke-width=".015" transform="translate(0 -288.798)"/></symbol><symbol id="plus_icon" viewBox="0 0 7.673 8.202"><path d="M5.976 4.963V3.95H4.948v-.389h1.03v-1.04h.389v1.04h1.032l.001.389H6.366v1.011zm-2.444-1.81c.267-.346.196-.978.08-1.368C3.432 1.188 3.05.668 2.484.67a.828.828 0 0 0-.652.283c-.262.292-.338.616-.196 1.245.143.629.393 1.099 1.02 1.253.294.073.715-.091.875-.3zm.724 3.08C4.17 5.665 3.75 5.43 3.21 5.054c-.786.008-1.537.084-1.847.487-.178.193-.305.545-.25.82.129.647.72.883 1.26.983.828.153 2.024-.171 1.882-1.113zm-2.3 1.55c-.449-.043-.932-.18-1.261-.488-.247-.23-.451-.551-.429-.917.053-.839.542-1.138 1.305-1.4.386-.133.658-.158 1.027-.188.094-.008.234-.007.243-.01.026-.01.019-.048-.02-.098-.197-.256-.333-.546-.172-.869.05-.099.03-.11-.19-.098-.56.065-1.074-.088-1.446-.663-.38-.588-.362-1.139-.007-1.717C1.387.713 2.15.44 2.53.42 2.909.398 5 .385 4.968.404l-.486.28h-.287c-.249 0-.287.001-.294.02a.127.127 0 0 0-.008.028c.376.291.612.717.662 1.092.05.375-.036.723-.234 1.042-.216.348-.609.468-.79.78a.509.509 0 0 0-.063.254c-.008.196.153.327.297.443.316.257.675.5.904.833.193.285.275.6.23.982-.055.477-.405.951-.924 1.259-.58.372-1.338.43-2.019.365z" stroke-width=".011"/></symbol><symbol id="twiter_icon" viewBox="0 0 7.938 6.35"><path transform="translate(0 -290.65)" d="M2.182 296.718a4.49 4.49 0 0 1-1.473-.407 10.317 10.317 0 0 1-.444-.248s.165-.003.366-.003c.423 0 .609-.027.952-.139.296-.097.582-.243.813-.416l.1-.074-.164-.024a1.365 1.365 0 0 1-.48-.15 1.553 1.553 0 0 1-.708-.74.765.765 0 0 1-.044-.115c0-.008.102-.015.227-.014.327.003.511-.036.344-.073a1.71 1.71 0 0 1-.465-.218 1.618 1.618 0 0 1-.552-.709 1.804 1.804 0 0 1-.093-.466v-.082l.07.035c.12.06.287.11.44.131.08.012.148.019.15.016a.926.926 0 0 0-.117-.107 1.58 1.58 0 0 1-.49-.776 1.282 1.282 0 0 1-.038-.375c0-.26.034-.422.133-.64l.058-.128.114.129a4.332 4.332 0 0 0 2.728 1.433c.15.017.277.026.282.02a.688.688 0 0 0-.01-.166 1.517 1.517 0 0 1 1.092-1.635c.21-.061.618-.06.83 0 .198.057.405.17.56.305.123.107.13.11.209.1.137-.019.52-.156.702-.252.095-.05.172-.081.172-.07s-.033.089-.074.173a1.584 1.584 0 0 1-.501.585l-.064.048.127-.017a3.76 3.76 0 0 0 .64-.179l.099-.04-.098.125a4.522 4.522 0 0 1-.55.565l-.117.093v.18c0 1.24-.56 2.473-1.512 3.328-.813.73-2.017 1.103-3.214.996z" stroke-width=".019"/></symbol><symbol id="youtube_icon" viewBox="0 0 6.879 8.202"><path transform="matrix(.26253 0 0 .26123 -.091 -.008)" d="M5.563 14.965c-2.324 0-4.207 2.41-4.207 5.38v4.69c0 2.971 1.883 5.381 4.207 5.381h15.773c2.323 0 4.207-2.41 4.207-5.38v-4.69c0-2.971-1.884-5.381-4.207-5.381zm-1.944 2.068h4.426v1.455H6.559v9.69H5.04v-9.69H3.619zm10.074.002h1.422v3.625c.555-.635.929-.886 1.353-.886.327 0 .687.201.85.468.18.301.229.601.229 1.487v4.611c0 .869-.05 1.17-.229 1.47-.163.285-.522.485-.865.485-.425 0-.783-.25-1.338-.902v.785h-1.422zm7.315 2.739c1.175 0 1.91.786 1.91 2.072v2.44h-2.465v1.82c0 .601.148.851.523.851.18 0 .343-.1.424-.25.082-.15.098-.334.098-.935v-.502h1.42v.3c.016.218.017.368.017.452 0 1.47-.702 2.273-1.992 2.273-1.224 0-1.91-.836-1.91-2.34v-3.859c0-1.57.652-2.322 1.975-2.322zm-12.701.101h1.42v6.465c0 .418.113.617.374.617.18 0 .343-.083.637-.334v-6.748h1.42v8.303h-1.305l-.115-.719c-.588.618-.93.836-1.338.836-.343 0-.702-.201-.865-.469-.18-.284-.228-.585-.228-1.437zm7.445 1.237c-.18 0-.343.083-.637.334v5.177c.294.25.457.334.637.334.261 0 .375-.2.375-.617v-4.611c0-.434-.114-.618-.375-.618zm5.224 0c-.326 0-.523.215-.523.6v1.403h1.045v-1.404c0-.384-.195-.6-.522-.6z" stroke-width=".134"/><path d="M433.28 353.76h15.304l1.97 7.879 1.667 5.818 1.364 5.697 1.364 5.939 1.061 4.97h.606l1.061-4.97 1.212-5.939 1.515-5.697 1.515-5.818 2.121-7.879h14.849l-15.758 47.274v33.577H449.04v-33.577zm64.55 19.88c11.97 0 18.031 5.697 18.031 16.97v27.88c0 11.273-6.061 16.97-18.031 16.97s-18.031-5.697-18.031-16.97v-27.88c0-11.272 6.06-16.97 18.031-16.97zm0 9.698c-3.182 0-4.849 1.939-4.849 5.576v31.272c0 3.515 1.818 5.576 4.849 5.576s4.849-2.061 4.849-5.576v-31.272c-.001-3.637-1.819-5.576-4.849-5.576zm55.6 51.272l-1.061-5.212c-5.455 4.485-8.638 6.061-12.426 6.061-3.182 0-6.515-1.455-8.029-3.394-1.668-2.061-2.121-4.243-2.121-10.425v-47.274h13.182v46.911c0 3.03 1.061 4.485 3.484 4.485 1.668 0 3.183-.606 5.91-2.424v-48.972h13.183v60.244z" transform="matrix(.03112 0 0 .0396 -12.149 -13.745)"/></symbol><symbol id="geo_icon" viewBox="0 0 2.646 3.704"><path d="M1.137 296.987a.323.323 0 0 1-.14-.094 104.58 104.58 0 0 1-.939-1.976 1.034 1.034 0 0 1-.057-.43c.004-.155.016-.224.058-.352.114-.347.419-.655.767-.774a1.28 1.28 0 0 1 .798-.003c.367.12.685.446.792.813.036.123.047.207.047.365 0 .166-.01.242-.047.351a89.457 89.457 0 0 1-.933 1.985.32.32 0 0 1-.132.106.337.337 0 0 1-.214.009zm.25-1.857a.613.613 0 0 0 .286-.168.574.574 0 0 0 .173-.467.508.508 0 0 0-.05-.218.62.62 0 0 0-1.164.406.624.624 0 0 0 .504.46.803.803 0 0 0 .25-.013z" stroke-width=".007" transform="translate(0 -293.296)"/></symbol><symbol id="arrow_icon" viewBox="0 0 3.704 1.587"><path d="M2.699 296.993a.084.084 0 0 1-.028-.024c-.014-.017-.014-.022-.014-.258v-.24H1.355c-1.4 0-1.323.002-1.342-.034a2.77 2.77 0 0 1 0-.46c.02-.036-.057-.034 1.342-.034h1.302v-.24c0-.178.002-.243.009-.255.01-.02.05-.037.074-.031.016.004.803.711.832.748.018.022.017.048-.001.073-.011.016-.71.66-.805.743a.072.072 0 0 1-.066.012z" transform="translate(0 -295.413)"/></symbol></svg>