<svg xmlns="http://www.w3.org/2000/svg"><symbol id="note_icon" viewBox="0 0 500 500"><path d="M152 384c9 14-23 37-42 51-19 13-61 31-69 17-9-15 24-40 44-54 19-13 58-27 67-14zm305-79c8 10-19 39-38 52-20 13-65 28-71 17-7-11 20-38 39-52 20-13 62-27 70-17zm-2-254v48l-265 70v-49zm21-51c-2 0-3 0-5 1L162 82c-9 3-16 11-16 21v233h-7c-20 2-43 10-65 24-23 13-43 30-56 49s-23 43-15 65c9 22 30 27 51 26 20-2 43-10 66-24 23-13 42-30 55-49 13-18 23-42 15-63V214l265-69v114h-9c-20 1-43 10-66 23-23 14-42 31-55 50-14 19-24 43-15 65s30 27 51 26c20-2 43-10 66-24s42-31 55-49c12-17 21-37 17-57V22c0-12-10-22-23-22z"/></symbol><symbol id="bus_icon" viewBox="0 0 100 100"><path d="M67 0c18 0 33 14 33 31v52c0 3-2 4-4 4h-5v7c0 3-3 6-7 6H70c-4 0-7-3-7-6v-7H37v7c0 3-3 6-7 6H16c-4 0-7-3-7-6v-7H4c-2 0-4-1-4-4V31C0 14 15 0 32 0h35zM33 8C19 8 8 18 8 31v49h84V31C92 18 81 8 68 8H33zm41 6c1 0 3 1 3 3 0 1-2 3-3 3H26c-2 0-3-2-3-3 0-2 1-3 3-3h48zm8 10c3 0 5 3 5 6v19c0 3-2 5-5 5H18c-3 0-6-2-6-5V30c0-3 3-6 6-6h64zm-66 6v19c0 1 1 2 2 2h64c1 0 2-1 2-2V30c0-2-1-3-2-3H18c-1 0-2 1-2 3zm61 34c0 3-2 6-5 6s-6-3-6-6 3-5 6-5 5 2 5 5zm-43 1c0 3-3 5-6 5s-6-2-6-5 3-6 6-6 6 3 6 6zm35-1c0 2 1 3 3 3 1 0 3-1 3-3 0-1-2-2-3-2-2 0-3 1-3 2zm-44 1c0 1 1 3 3 3s3-2 3-3c0-2-1-3-3-3s-3 1-3 3zm-8 27h11v-5H17v5zm54 0h11v-5H71v5z"/></symbol><symbol id="hause_icon" viewBox="0 0 100 79"><path d="M50 0c-1 1-2 1-3 2L2 37c-1 1-2 2-2 3 0 3 2 5 4 5 1 0 2-1 3-1l6-5v36c0 2 2 4 4 4h23c2 0 4-2 4-4V50h12v25c0 2 2 4 4 4h23c2 0 4-2 4-4V39l6 5c1 0 2 1 3 1 2 0 4-2 4-5 0-1-1-2-2-3L53 2c-1-1-2-2-3-2zm0 10l29 23v38H64V46c0-2-2-4-4-4H40c-2 0-4 2-4 4v25H21V33l29-23z"/></symbol><symbol id="girl_icon" viewBox="0 0 16 19"><path d="M8 0C3.674 0 .182 3.826.182 8.55c0 1.576.392 3.125 1.173 4.475.209.375.73.55 1.147.35.6-.264 1.337-.553 2.018-.73.234.288.485.542.751.763C2.276 13.854 0 16.191 0 19h1.746c0-2.2 2.033-4 4.56-4v-.959c.397.178.81.312 1.25.36 1.041.046 1.312-.023 2.137-.327V15c2.528 0 4.56 1.8 4.56 4H16c0-2.796-2.256-5.126-5.232-5.586a3.87 3.87 0 0 0 .462-.465c.08-.084.146-.19.221-.281.695.175 1.46.436 2.074.707.105.05.233.074.364.074.312 0 .627-.149.783-.424a9.174 9.174 0 0 0 1.146-4.474C15.818 3.826 12.326 0 8 0zm0 1.676c3.336 0 6.072 3.075 6.098 6.875a7.6 7.6 0 0 1-.6 2.974c-.364-.128-.726-.24-1.09-.35.35-.732.63-1.573.83-2.525.078-.325.103-.675.13-1.05a.465.465 0 0 0-.13-.325.44.44 0 0 0-.312-.125h-4.04l-.13-1.275a.445.445 0 0 0-.444-.375c-.234 0-.417.15-.443.375L7.74 7.15h-.6l-.39-2.7a.466.466 0 0 0-.443-.35c-.235 0-.418.15-.444.35l-.39 2.7H3.074a.49.49 0 0 0-.312.125c-.105.1-.13.2-.13.325.027.4.052.725.13 1.05.204.954.496 1.793.851 2.53-.37.11-.743.218-1.086.345a7.71 7.71 0 0 1-.6-2.974c0-3.8 2.737-6.875 6.073-6.875zM6.307 7.65a.463.463 0 0 0 .443.375h1.38c.079 0 .13 0 .182-.025.053.025.13.025.182.025h3.961c-.026.175-.052.325-.078.475-.365 1.675-.99 3-1.797 3.875-.831.798-1.283 1.2-2.945 1.2-1.662-.002-3.36-2.05-4.012-5.075-.026-.15-.052-.3-.078-.475h2.318a.445.445 0 0 0 .444-.375zm-.157 1a.513.513 0 0 0-.521.5c0 .275.235.5.521.5a.513.513 0 0 0 .522-.5c0-.275-.235-.5-.522-.5zm3.7 0a.513.513 0 0 0-.522.5c0 .275.235.5.522.5a.513.513 0 0 0 .521-.5c0-.275-.235-.5-.521-.5z"/></symbol><symbol id="cap_icon" viewBox="0 0 100 62"><path d="M50 0c-2 0-4 0-5 1L2 19l-2 2c0 1 1 2 2 3l12 5v19c0 1 0 2 1 2 0 0 13 12 34 12 20 0 35-11 35-11 1-1 1-2 1-3V29l10-4v8c-2 1-3 2-3 4v14c0 2 2 3 4 3s4-1 4-3V37c0-2-1-3-3-4v-9h1c1-1 2-2 2-3l-2-2L54 1c-1-1-2-1-4-1zm0 7l34 14-34 15-34-15L50 7zM20 32l25 10c1 1 3 1 5 1s3 0 4-1l25-10v15c-2 1-14 9-30 9-17 0-27-9-29-10V32z"/></symbol><symbol id="star_icon" viewBox="0 0 4.762 4.763"><path d="M2.381.526l.616 1.247 1.376.2-.996.97.235 1.372-1.23-.648-1.232.648.235-1.371-.995-.97 1.376-.2z"/></symbol><symbol id="flash_icon" viewBox="0 0 3.969 7.673"><path d="M1.3 7.518a.203.203 0 0 1-.12-.123c-.015-.051-.062.153.567-2.43a64.53 64.53 0 0 0 .295-1.238c-.003-.003-.411.095-.907.218-.496.123-.921.223-.945.223a.196.196 0 0 1-.153-.073C.007 4.061 0 4.044 0 4.001 0 3.96.61 1.419.867.393.897.274.908.245.94.21a.203.203 0 0 1 .08-.055c.027-.007.324-.012.803-.012.738 0 .763.001.808.023a.235.235 0 0 1 .074.059c.058.078.07.037-.352 1.18a64.251 64.251 0 0 0-.383 1.054c.002.002.41-.096.904-.218 1.022-.252.95-.242 1.046-.147.092.092.193-.148-1.163 2.757a300.938 300.938 0 0 1-1.226 2.608c-.045.063-.15.09-.233.06z"/></symbol><symbol id="leaf_icon" viewBox="0 0 7.937 6.35"><path d="M.422 6.284c-.134-.024-.235-.12-.367-.353C.006 5.846 0 5.825 0 5.752c0-.179.148-.38.463-.63.253-.202.38-.327.398-.394.013-.047.01-.065-.046-.205-.084-.214-.098-.29-.107-.572a2.379 2.379 0 0 1 .268-1.24c.202-.4.44-.686.849-1.014.382-.307.95-.597 1.383-.706C3.48.922 3.89.888 4.705.865c.74-.02.952-.04 1.269-.114.3-.07.457-.156.685-.376.267-.258.345-.302.554-.315.144-.009.204.012.293.1.184.18.305.524.4 1.129.078.508.009 1.192-.18 1.76a3.48 3.48 0 0 1-.906 1.453c-.38.38-.796.675-1.334.947-1.046.53-2.113.64-3.15.323a4.144 4.144 0 0 1-.398-.173c-.338-.164-.435-.203-.506-.203-.092 0-.149.069-.437.524-.086.138-.235.296-.316.337a.432.432 0 0 1-.257.027zM2.141 4.54c.029-.02.196-.175.371-.348.384-.377.574-.54.849-.725.559-.38 1.082-.54 1.87-.571.235-.01.24-.01.303-.05a.277.277 0 0 0 .135-.259.29.29 0 0 0-.13-.22c-.047-.03-.072-.037-.173-.041a4.22 4.22 0 0 0-2.85 1.06c-.318.274-.75.715-.793.811a.287.287 0 0 0 0 .227c.031.07.124.15.186.16a.68.68 0 0 1 .06.01c.03.008.123-.022.172-.054z"/></symbol><symbol id="saerch_icon" viewBox="0 0 6.085 6.085"><path d="M5.494 6.068c-.09-.027-.154-.079-.39-.314a118.46 118.46 0 0 0-.637-.63l-.436-.427-.128.08a2.513 2.513 0 0 1-1.555.357A2.577 2.577 0 0 1 .435 4.012a3.873 3.873 0 0 1-.31-.634 2.72 2.72 0 0 1-.08-1.298A2.566 2.566 0 0 1 1.974.073C3.094-.209 4.32.347 4.85 1.377c.119.23.162.343.22.57a2.53 2.53 0 0 1-.28 1.938l-.09.146.656.659c.423.424.67.685.692.734a.524.524 0 0 1-.004.394c-.108.204-.346.312-.55.25zM2.842 4.195a1.54 1.54 0 0 0 .888-.466c.333-.33.486-.696.486-1.155 0-.465-.153-.825-.495-1.162A1.533 1.533 0 0 0 2.573.934c-.455 0-.825.156-1.157.486a1.527 1.527 0 0 0-.48 1.248c.02.406.155.72.434 1.019.258.275.575.45.915.506.141.024.417.025.557.002z"/></symbol><symbol id="masage_icon" viewBox="0 0 7.144 5.821"><path d="M6.073 296.705a3.394 3.394 0 0 1-1.025-.422l-.113-.074-.115.017c-.6.092-1.253.022-1.788-.19-.141-.057-.501-.244-.487-.253a3.974 3.974 0 0 0 1.507-.167c.934-.299 1.623-.938 1.823-1.692.05-.19.062-.287.061-.502 0-.203-.019-.35-.06-.485a.217.217 0 0 1-.014-.065c.002-.002.08.046.173.108.196.13.41.327.531.49.16.212.27.465.303.69.02.145.009.424-.024.555-.103.408-.385.775-.815 1.061l-.122.082a.664.664 0 0 0 .052.12c.063.126.174.276.333.449.112.12.132.164.108.227-.035.093-.087.1-.328.051zM.82 295.78a.121.121 0 0 1-.077-.116c0-.053.014-.074.142-.216.181-.202.26-.312.325-.454l.037-.082-.12-.078a1.985 1.985 0 0 1-.7-.756c-.37-.724-.094-1.539.693-2.054.877-.574 2.183-.648 3.167-.181a2.3 2.3 0 0 1 .698.491c.237.243.366.465.443.76.025.097.029.14.029.333s-.004.236-.03.333c-.094.363-.301.671-.632.94-.361.294-.911.516-1.458.588-.307.04-.718.036-1.016-.011l-.1-.016-.126.08c-.332.21-.778.382-1.132.438-.086.013-.114.014-.143.002zm1.149-.927l.135-.092.148.027c.433.077.775.08 1.16.011.513-.092.956-.313 1.254-.626.233-.243.342-.511.325-.795a.869.869 0 0 0-.095-.372c-.24-.5-.905-.888-1.68-.979a4.642 4.642 0 0 0-.883.025c-.716.136-1.271.49-1.498.956a.84.84 0 0 0-.095.425c0 .118.006.16.033.253.057.19.167.365.334.53.126.125.265.223.526.372.114.064.207.119.207.12l-.038.094-.062.151-.024.06.059-.034c.032-.018.12-.075.194-.126z" stroke-width=".012" transform="translate(0 -291.18)"/></symbol></svg>