<svg xmlns="http://www.w3.org/2000/svg" xmlns:xlink="http://www.w3.org/1999/xlink">
    <symbol id="logoNova" viewBox="0 0 500 145">
        <g transform="translate(0,-152)" id="layer1">
            <g transform="translate(20.447174,18.981973)" id="g4580">
                <g transform="translate(-20.09838,202.58142)" id="g4627"/>
            </g>
            <g style="clip-rule:evenodd;fill-rule:evenodd;image-rendering:optimizeQuality;shape-rendering:geometricPrecision;text-rendering:geometricPrecision" id="g4573" transform="matrix(0.191274,0,0,0.191274,-382.70238,-170.69048)">
                <g transform="matrix(0.60606061,0,0,0.60669459,1874.0652,1617.2778)" id="Слой_x0020_1">
                    <metadata id="CorelCorpID_0Corel-Layer"/>
                    <path id="polygon4558" d="M 951.51458,888.77736 V 580.31933 H 554.17882 V 115.01825 H 209.12408 V 1364.5346 H 554.17882 V 888.77736 Z M 1662.5122,597.21753 1344.646,115.01825 H 998.5675 V 1364.5346 h 339.8266 V 644.23696 l 320.1198,490.26124 h 8.9962 l 313.9406,-490.26124 v 720.29764 h 345.0547 V 115.01825 h -365.119 z M 3328.8108,115.01825 3061.9231,580.31933 H 2877.001 L 3143.8886,115.01825 H 2420.6113 V 1364.5346 h 2101.697 V 115.01825 h -314.8674 l -266.8877,465.30108 h -182.923 L 4024.5179,115.01825 H 3770.6248 L 3503.7371,580.31933 H 3317.8154 L 3584.703,115.01825 Z M 2940.7116,995.835 c -16.178,0 -20.3719,6.6394 -20.5652,24.2308 -0.1932,17.5914 -0.7727,69.0321 -0.7727,87.2828 0,18.2507 9.401,19.9716 20.0825,19.8374 10.6815,-0.1342 28.7813,-0.1177 38.3516,0.071 9.5703,0.1887 16.7722,-1.0067 16.7722,-21.4883 0,-20.4817 0.2258,-70.1308 0.2258,-82.7886 0,-12.6579 0.2367,-27.0095 -16.7965,-27.0095 -17.0332,0 -24.8897,-0.1356 -37.2972,-0.1356 z m 1232.2771,140.9657 c -1.5199,-0.013 -1.3452,-2.513 -0.9373,-5.3915 l 14.1495,-134.66648 c 0.4348,-5.64353 0.9787,-8.09694 1.8235,-8.63142 1.4309,-0.90526 56.1369,-1.05265 57.5471,-0.15482 6.1152,52.12312 10.6735,90.04852 15.8381,138.54112 0.055,6.0952 1.0486,8.7694 -0.1313,9.9492 -1.3328,1.3331 -5.6078,0.3371 -44.7065,0.5432 -17.7171,0 -33.0367,-0.097 -43.5831,-0.1893 z m 158.4195,-0.039 -26.5901,0.1708 -18.7403,-169.4137 c -1.5292,-10.16376 -0.965,-13.41801 -9.9881,-16.00472 h -58.9234 c -65.0154,-2.34296 -61.1094,-2.6505 -65.9377,2.85305 l -21.0023,182.01837 c -9.612,0.1297 -22.4142,0.3233 -31.3943,0.5143 0.02,13.1409 0,26.2818 0,39.4227 76.4306,-0.2467 163.2601,0.4198 232.3874,-0.444 0.064,-0.267 0.1888,-49.6815 0.1888,-39.1168 z m -392.5809,-95.6585 c 0.3468,-1.387 -1.7398,-3.2503 -1.2614,-11.1865 1.6041,-26.6085 1.8914,-38.49467 23.797,-44.1366 7.7077,-1.98517 41.9282,-1.78077 49.844,0.2772 16.3271,4.24476 19.4414,10.31822 19.4644,37.9736 0.011,13.3142 -0.1854,16.0095 -1.2477,17.0727 -1.116,1.1171 -6.3351,1.2625 -45.2981,1.2625 -38.963,0 -45.6812,0.2693 -45.2983,-1.2625 z m 129.1301,96.663 c -18.8399,0 -34.5511,-0.7634 -51.3204,-0.898 -20.7512,-0.1665 -39.1744,-0.5308 -40.9404,-0.8162 -15.7352,-2.5427 -24.797,-6.5021 -28.9486,-12.648 -2.9677,-4.3934 -6.7039,-15.2384 -7.7132,-22.3886 -0.4054,-2.8721 -0.9378,-9.4081 -1.1834,-14.5245 -0.3845,-8.0112 -0.2602,-9.4886 0.8955,-10.6453 1.2308,-1.2319 6.4707,-1.3447 63.2971,-1.346 60.4057,0 62.0204,-0.042 64.5716,-1.5996 1.4387,-0.8783 3.3453,-2.7746 4.2365,-4.2149 1.5507,-2.506 1.6052,-3.6193 1.2698,-25.9177 -0.3794,-25.2253 -0.94,-31.7029 -3.6511,-42.1797 -4.4156,-17.06356 -9.2815,-25.64881 -18.665,-34.97197 -23.1285,-22.97984 -84.292,-25.80486 -119.0387,-6.52125 -19.681,10.92247 -31.1293,39.76077 -32.537,59.17022 -1.6501,28.454 -1.78,59.5231 0.7096,86.3679 2.1909,12.508 6.1664,25.6026 13.1919,36.0886 9.6262,12.6924 22.7034,22.0821 37.7228,27.0587 24.1571,7.0969 49.1417,8.4664 73.005,8.5426 l 45.3714,0.1103 z M 3604.2352,961.09747 c 3.3277,-0.2144 4.9309,0.66369 5.5238,2.53345 25.9059,67.63488 44.868,116.47278 67.4463,180.36818 2.2717,6.4436 5.7023,10.4951 9.8665,11.6529 4.5627,1.2686 26.1892,1.018 28.7739,-0.3336 3.7565,-1.9642 6.4056,-5.5105 8.4556,-11.3197 20.8288,-57.8097 43.1212,-114.2956 63.1832,-171.1092 1.7023,-4.85004 3.7246,-9.27887 4.4941,-9.84191 2.1448,-1.56976 3.4765,-1.30578 3.7357,0.87016 0.068,0.56808 -0.1354,3.83342 -0.149,9.97785 l 3.5381,202.4812 c 13.7531,0 24.8499,-0.054 43.5518,-0.054 v -303.22995 0 c -1.215,-3.17142 -2.5937,-4.31731 -8.3302,-4.28952 l -25.1997,0.21287 -25.1997,0.21287 -74.4029,198.84683 c -7.0063,20.5402 -9.1174,16.0563 -16.7148,2.8863 l -74.7768,-203.09745 h -25.308 c -21.0516,0.96269 -25.7042,1.1672 -27.6629,2.18134 -5.0776,2.66309 -4.7225,-8.82979 -4.7225,155.00681 v 151.2699 c 6.3418,0.07 31.577,0.3086 42.5385,0.2421 1.2311,-89.2561 1.1339,-118.7005 1.359,-215.46763 z m -455.3154,83.21993 c 0,1.55 -1.2615,-4.7336 -1.2615,-27.6606 0,-22.92714 0.1657,-26.56418 1.2615,-27.66075 1.1035,-1.10423 5.1506,-1.26033 32.3107,-1.25798 18.6556,0.002 30.9945,-0.22748 34.0013,0.82466 14.6567,5.1287 15.6633,17.41227 15.7813,25.20597 0.5108,33.738 -33.2749,31.805 -50.3646,31.8108 -26.6272,0 -30.6262,-0.1589 -31.7287,-1.2625 -1e-4,-10e-5 0,4e-4 0,4e-4 z m 49.4759,92.9387 c -15.3364,0.2614 -38.5286,0.7263 -49.3885,-1.2611 -1.6843,-0.3082 -1.3489,-4.1456 -1.3489,-28.5516 0,-23.6575 0.1641,-27.3661 1.2615,-28.4642 1.1073,-1.1082 5.448,-1.2625 35.5391,-1.2625 31.2395,0 34.7664,0.1356 39.7912,1.5301 15.8786,5.6895 14.7886,16.0514 14.7886,29.7745 0,10.7931 -3.1155,25.1874 -13.9886,27.0971 -13.5564,1.9942 -15.7796,0.9525 -26.6544,1.1377 z m 79.6243,-5.3084 c 2.1055,-8.0549 2.1858,-29.8163 -0.021,-37.7608 -3.1118,-13.8621 -12.0072,-24.4004 -22.3692,-29.4946 -6.9574,-3.3805 -7.234,-3.6176 -7.4688,-6.4053 -0.2107,-2.5017 0.1165,-3.1414 2.4082,-4.7089 17.5293,-12.6654 22.192,-28.3494 22.2856,-44.072 0.5244,-19.52236 -7.9834,-48.47641 -28.0112,-53.49416 -25.1409,-5.28254 -57.4174,-4.50497 -80.2137,-4.49736 -42.8285,0.0143 -51.2245,0.12723 -53.7978,0.14484 -2.237,0.0153 -5.4699,1.52388 -5.3395,4.98181 0.034,0.88819 -0.1316,212.56977 0.2712,214.45367 0.3142,1.4695 120.025,-0.4378 127.0092,-0.4378 23.0153,-0.7237 40.3963,-21.1913 45.247,-38.7094 z m -621.4168,-91.5554 h 109.0628 v 130.7026 h 52.281 V 867.86495 h -52.281 V 998.5675 H 2655.8759 V 867.86495 h -47.053 v 303.22995 h 47.7803 z m 723.7722,103.2514 c -10.9806,-0.9141 -14.1663,-6.2245 -17.5617,-16.8619 -1.5283,-13.95 -4.4606,-25.9766 -0.034,-40.1769 2.9441,-10.0469 6.165,-12.7751 16.5527,-14.844 9.6178,-1.9156 81.4392,-1.9437 83.3487,-0.031 1.0661,1.8906 1.2615,4.6794 1.2615,18.8282 -0.3525,14.4476 0.949,25.5714 -5.8327,37.5011 -4.4583,7.615 -10.167,14.789 -25.0065,16.2417 -22.2027,2.1736 -34.1851,0.8865 -52.728,-0.6572 z m 48.2459,30.8163 c 11.219,-2.5446 18.6097,-7.8088 24.7173,-17.6062 4.4226,-7.0942 4.9396,-7.6325 7.332,-7.6325 1.2499,0 2.5795,0.5192 3.1084,1.0081 4.3518,10.547 9.0485,21.1002 11.7363,26.0936 h 27.3131 l -0.3241,-77.1147 c -0.398,-38.0926 5.0446,-88.8351 -9.7283,-118.90296 -13.5086,-24.07128 -39.714,-28.07099 -57.7326,-29.68047 -16.3067,-1.45657 -94.0621,-1.53559 -95.2129,-0.57983 0.3632,9.03293 -0.4502,26.66453 0.057,37.39768 20.6692,0.57195 36.5262,0.30315 47.942,0.29148 40.3025,7.3e-4 44.2082,0.2657 54.3595,3.69122 15.3536,9.42208 16.8974,23.00738 16.9374,38.34548 0,12.1013 -0.5127,13.0874 -6.3667,12.2417 -14.949,-2.1599 -34.1623,-3.4231 -62.7697,-4.1269 -28.9738,-2.3407 -57.1612,11.5272 -64.9166,37.019 -1.8198,5.9817 -1.6436,51.4958 0.086,59.855 3.0486,13.017 6.4888,20.0017 14.3341,28.3886 5.2866,5.6517 12.8363,9.2402 24.9063,11.8388 9.3276,2.0082 11.4934,2.1672 30.7511,2.2571 12.4991,0.1986 22.183,-0.2244 33.4709,-2.7842 z m -443.6171,2.2492 c -29.9958,1.1116 -62.3755,2.9103 -89.2133,-13.0007 -21.3412,-13.6867 -26.3979,-40.9181 -27.8902,-64.41 -2.1739,-39.2047 -5.5534,-80.5729 9.4599,-117.48506 9.9179,-24.38452 38.8774,-33.60225 63.797,-35.0336 24.2088,-1.39052 49.355,-1.19837 72.3196,7.23665 19.4399,8.36697 32.4765,27.45161 35.8756,48.37201 4.7338,29.1348 4.2208,58.6564 4.1265,87.9817 -1.5345,23.767 -5.1566,49.7936 -21.8792,68.0069 -12.6297,11.6363 -29.9368,16.3726 -46.5959,18.3321 z"/>
                </g>
            </g>
        </g>
    </symbol>
    <symbol id="facemed" viewBox="0 0 500 500">
        <g transform="scale(1)" id="g4">
            <path id="path2" data-old_color="#000000" class="active-path" data-original="#000000" d="M 437,0 H 75 C 33.648438,0 0,33.648438 0,75 v 362 c 0,41.35156 33.648438,75 75,75 H 226 V 331 h -60 v -90 h 60 v -61 c 0,-49.62891 40.37109,-90 90,-90 h 91 v 90 h -91 v 61 h 91 l -15,90 h -76 v 181 h 121 c 41.35156,0 75,-33.64844 75,-75 V 75 C 512,33.648438 478.35156,0 437,0 Z m 0,0"/>
        </g>
    </symbol>
    <symbol id="instmed" viewBox="0 0 500 500">
        <g transform="scale(0.9765625)" id="g8">
            <path id="path2" data-old_color="#000000" class="active-path" data-original="#000000" d="M 437,0 H 75 C 33.648438,0 0,33.648438 0,75 v 362 c 0,41.35156 33.648438,75 75,75 h 362 c 41.35156,0 75,-33.64844 75,-75 V 75 C 512,33.648438 478.35156,0 437,0 Z M 257,390 c -74.44141,0 -135,-60.55859 -135,-135 0,-74.44141 60.55859,-135 135,-135 74.44141,0 135,60.55859 135,135 0,74.44141 -60.55859,135 -135,135 z M 407,150 c -24.8125,0 -45,-20.1875 -45,-45 0,-24.8125 20.1875,-45 45,-45 24.8125,0 45,20.1875 45,45 0,24.8125 -20.1875,45 -45,45 z m 0,0"/>
            <path id="path4" data-old_color="#000000" class="active-path" data-original="#000000" d="m 407,90 c -8.27734,0 -15,6.722656 -15,15 0,8.27734 6.72266,15 15,15 8.27734,0 15,-6.72266 15,-15 0,-8.277344 -6.72266,-15 -15,-15 z m 0,0"/>
            <path id="path6" data-old_color="#000000" class="active-path" data-original="#000000" d="m 257,150 c -57.89063,0 -105,47.10937 -105,105 0,57.89062 47.10937,105 105,105 57.89062,0 105,-47.10938 105,-105 0,-57.89063 -47.10938,-105 -105,-105 z m 0,0"/>
        </g>
    </symbol>
    <symbol id="pending" viewBox="0 0 500 500">
        <g id="g46" transform="matrix(0.97514123,0,0,0.97906352,-1.9444367e-7,-0.48815525)">
            <path style="fill:#fff5f4" id="path2" class="" data-original="#FFF5F4" d="M 314.36784,0 C 303.63264,0 41.80704,0 17.241746,0 7.7137204,0 0,7.7226626 0,17.250015 V 493.44183 c 0,9.52735 7.7137204,17.25001 17.241746,17.25001 H 314.53408 c 9.52803,0 17.24175,-7.72266 17.24175,-17.25001 V 17.250015 C 331.77583,7.7226626 324.06211,0 314.53408,0 Z m 0,0"/>
            <path style="fill:#ebe0da" id="path4" class="" data-original="#EBE0DA" d="M 53.247973,510.69184 H 17.1516 C 7.6733901,510.69184 0,502.96918 0,493.44183 V 17.250015 C 0,7.7226626 7.6733901,0 17.1516,0 H 53.247973 C 43.513372,0 35.839982,7.7226626 35.839982,17.250015 V 493.44183 c 0.256391,9.53126 7.929781,17.25001 17.407991,17.25001 z m 0,0"/>
            <path style="fill:#63a6fd" id="path6" class="" data-original="#63A6FD" d="M 276.47986,51.069184 H 56.721453 c -7.570777,0 -13.713475,6.158994 -13.713475,13.757701 V 141.4887 c 0,7.5987 6.142698,13.76162 13.713475,13.76162 H 276.07837 c 7.57078,0 13.71348,-6.16292 13.71348,-13.76162 V 64.826885 c 0,-7.598707 -6.1427,-13.757701 -13.71348,-13.757701 z m 0,0"/>
            <path d="M 276.47986,204.27674 H 56.721453 c -7.570777,0 -13.713475,6.16292 -13.713475,13.76163 v 76.65789 c 0,7.59871 6.142698,13.76161 13.713475,13.76161 H 276.07837 c 7.57078,0 13.71348,-6.1629 13.71348,-13.76161 v -76.65789 c 0,-7.59871 -6.1427,-13.76163 -13.71348,-13.76163 z m 0,0" data-original="#63A6FD" class="" id="path8" style="fill:#63a6fd"/>
            <path d="M 276.47986,357.48429 H 56.721453 c -7.570777,0 -13.713475,6.15922 -13.713475,13.75822 v 76.6647 c 0,7.59898 6.142698,13.75822 13.713475,13.75822 H 276.07837 c 7.57078,0 13.71348,-6.15922 13.71348,-13.75822 v -76.6647 c 0,-7.59899 -6.1427,-13.75822 -13.71348,-13.75822 z m 0,0" data-original="#63A6FD" class="" id="path10" style="fill:#63a6fd"/>
            <path style="fill:#1980f9" id="path12" class="" data-original="#1980F9" d="M 90.111954,155.25032 H 56.687606 c -7.552091,0 -13.679628,-6.16292 -13.679628,-13.76162 V 64.826885 c 0,-7.598707 6.127537,-13.757701 13.679628,-13.757701 h 33.424348 c -7.180553,0 -13.311993,6.158994 -13.311993,13.757701 V 141.4887 c -0.367635,7.5987 5.763805,13.76162 13.311993,13.76162 z m 0,0"/>
            <path d="M 90.111954,308.45787 H 56.687606 c -7.552091,0 -13.679628,-6.1629 -13.679628,-13.76161 v -76.65789 c 0,-7.59871 6.127537,-13.76163 13.679628,-13.76163 h 33.424348 c -7.180553,0 -13.311993,6.16292 -13.311993,13.76163 v 76.65789 c -0.367635,7.59871 5.763805,13.76161 13.311993,13.76161 z m 0,0" data-original="#1980F9" class="" id="path14" style="fill:#1980f9"/>
            <path d="M 90.111954,461.66543 H 56.687606 c -7.552091,0 -13.679628,-6.15924 -13.679628,-13.75822 v -76.6647 c 0,-7.599 6.127537,-13.75822 13.679628,-13.75822 h 33.424348 c -7.180553,0 -13.311993,6.15922 -13.311993,13.75822 v 76.6647 c -0.367635,7.59898 5.763805,13.75822 13.311993,13.75822 z m 0,0" data-original="#1980F9" class="" id="path16" style="fill:#1980f9"/>
            <g id="g34" style="fill:#274c93">
                <path d="M 73.727962,90.903148 H 252.31988 c 4.29181,0 7.77599,-3.428528 7.77599,-7.660378 0,-4.228004 -3.48027,-7.660377 -7.77599,-7.660377 H 73.311964 c -4.295722,0 -7.775998,3.432373 -7.775998,7.660377 0,4.23185 3.480276,7.660378 7.775998,7.660378 z m 0,0" data-original="#000000" class="" id="path18"/>
                <path id="path20" class="" data-original="#000000" d="M 73.727962,129.71573 H 143.7791 c 4.29397,0 7.77282,-3.42854 7.77282,-7.66038 0,-4.22801 -3.47885,-7.66038 -7.77282,-7.66038 H 73.308798 c -4.293973,0 -7.772832,3.43237 -7.772832,7.66038 0,4.23184 3.478859,7.66038 7.772832,7.66038 z m 0,0"/>
                <path d="m 176.12791,114.39497 c -4.68104,0 -8.192,3.43237 -8.192,7.66038 0,4.23184 3.51096,7.66038 7.84455,7.66038 h 29.36688 c 4.32966,0 7.84455,-3.42854 7.84455,-7.66038 0,-4.22801 -3.51489,-7.66038 -7.84455,-7.66038 z m 0,0" data-original="#000000" class="" id="path22"/>
                <path d="M 251.90387,228.78995 H 73.311964 c -4.295722,0 -7.775998,3.43237 -7.775998,7.66037 0,4.23185 3.480276,7.66038 7.775998,7.66038 H 252.31988 c 4.29181,0 7.77599,-3.42853 7.77599,-7.66038 0,-4.228 -3.48418,-7.66037 -7.77599,-7.66037 z m 0,0" data-original="#000000" class="" id="path24"/>
                <path id="path26" class="" data-original="#000000" d="m 73.727962,282.92328 h 50.593148 c 4.29507,0 7.77482,-3.42853 7.77482,-7.66038 0,-4.228 -3.47975,-7.66037 -7.77482,-7.66037 H 73.310788 c -4.295072,0 -7.774822,3.43237 -7.774822,7.66037 0,4.23185 3.47975,7.66038 7.774822,7.66038 z m 0,0"/>
                <path id="path28" class="" data-original="#000000" d="M 73.727962,397.31825 H 201.13692 c 4.28631,0 7.75897,-3.42852 7.75897,-7.66038 0,-4.228 -3.47266,-7.66037 -7.75897,-7.66037 H 73.294937 c -4.286315,0 -7.758971,3.43237 -7.758971,7.66037 0,4.23186 3.472656,7.66038 7.758971,7.66038 z m 0,0"/>
                <path d="m 214.01589,420.81008 h -47.49694 c -4.30845,0 -7.79903,3.43237 -7.79903,7.66037 0,4.23185 3.49058,7.66039 7.79903,7.66039 h 47.8899 c 4.30454,0 7.79904,-3.42854 7.79904,-7.66039 0,-4.228 -3.4945,-7.66037 -7.79904,-7.66037 z m 0,0" data-original="#000000" class="" id="path30"/>
                <path d="M 135.16793,420.81008 H 73.318752 c -4.299471,0 -7.782786,3.43237 -7.782786,7.66037 0,4.23185 3.483315,7.66039 7.782786,7.66039 h 62.258388 c 4.29947,0 7.78279,-3.42854 7.78279,-7.66039 0,-4.228 -3.48332,-7.66037 -7.78279,-7.66037 z m 0,0" data-original="#000000" class="" id="path32"/>
            </g>
            <path d="m 391.1678,509.67046 c -1.6049,-0.26911 -2.86394,-0.1248 -4.11909,0 -76.90767,7.88602 -145.67061,-47.90892 -153.57683,-124.63183 -7.90622,-76.71122 48.03161,-145.29852 124.95102,-153.18453 11.08512,-1.14274 22.01775,-0.95554 32.60629,0.43291 62.87043,8.20973 114.20607,58.53672 120.97055,124.19892 7.78499,75.45929 -46.21343,143.04815 -121.18952,152.74772 z m 0,0" data-original="#F64346" class="" data-old_color="#f64346" style="fill:#ec407a" id="path36"/>
            <path d="m 391.1678,509.67046 c -1.4637,-0.26911 -2.72389,-0.1248 -3.98017,0 -76.97724,7.88602 -145.80238,-47.90892 -153.71575,-124.63183 -7.91727,-76.71122 48.07506,-145.29852 125.06404,-153.18453 11.09515,-1.14274 22.03767,-0.95554 32.63188,0.43291 -75.04,9.70346 -129.08726,77.29233 -121.29914,152.75162 6.77059,65.6622 58.15267,115.98919 121.08388,124.19502 z m 0,0" data-original="#CB353C" class="active-path" data-old_color="#cb353c" style="fill:#c53968" id="path38"/>
            <path d="m 475.13576,360.54844 c -4.79305,-46.26565 -40.10859,-82.95753 -84.69408,-90.90315 -67.46174,-12.07062 -128.15546,44.03651 -121.12982,112.43279 5.47219,53.23483 50.4558,92.86534 102.74997,92.86534 61.74366,0 109.30333,-53.42997 103.07393,-114.02113 z m 0,0" data-original="#FFF5F4" class="" id="path40" style="fill:#fff5f4"/>
            <path d="m 338.94383,448.38744 c 14.74092,13.06642 32.32801,21.61982 51.08706,24.94832 -6.0233,1.08477 -12.26463,1.60766 -18.22174,1.60766 2.32444,0 -35.98014,3.02413 -68.77928,-26.48354 -19.10947,-17.18094 -31.08987,-40.74961 -33.71801,-66.37077 -5.81694,-56.73651 35.49735,-107.62766 92.10934,-113.4652 9.36395,-0.95601 18.97319,-0.70238 28.7226,1.04576 -52.72623,9.35332 -90.17814,58.21149 -84.62206,112.41944 2.62813,25.62116 14.60854,49.18983 33.718,66.37077 z m 0,0" data-original="#EBE0DA" class="" id="path42" style="fill:#ebe0da"/>
            <path id="path44" style="fill:#c53968" data-old_color="#cb353c" class="active-path" data-original="#CB353C" d="m 371.71181,378.93335 h -59.77237 c -4.31538,0 -7.8116,-3.47302 -7.8116,-7.75978 0,-4.08797 3.49622,-7.56098 7.8116,-7.56098 h 52.60437 v -63.73708 c -0.26318,-4.28676 3.23302,-7.75977 7.54841,-7.75977 4.31146,0 7.81159,3.47301 7.81159,7.75977 v 71.29806 c 0,4.28287 -3.50013,7.75978 -7.81159,7.75978 z m 0,0"/>
        </g>
    </symbol>
    <symbol id="youtubemed" viewBox="0 -61 500 381">
        <g id="g6" transform="matrix(0.9765625,0,0,0.97692308,0,-61.000001)">
            <path d="M 437,0 H 75 C 33.648438,0 0,33.648438 0,75 v 240 c 0,41.35156 33.648438,75 75,75 h 362 c 41.35156,0 75,-33.64844 75,-75 V 75 C 512,33.648438 478.35156,0 437,0 Z M 181,298.41797 V 94.511719 L 361.49609,194.78125 Z m 0,0" data-original="#000000" class="active-path" data-old_color="#000000" id="path2"/>
            <path d="m 211,145.48828 v 101.10547 l 89.50391,-51.375 z m 0,0" data-original="#000000" class="active-path" data-old_color="#000000" id="path4"/>
        </g>
    </symbol>
    <symbol id="close_envemed" viewBox="0 0 500 357">
        <g transform="matrix(35.714286,0,0,35.7,-2e-6,-71.4)" id="g14">
            <g id="g12">
                <g id="g10">
                    <path id="path2" data-old_color="#030104" class="active-path" data-original="#030104" d="M 7,9 5.268,7.484 0.316,11.729 C 0.496,11.896 0.739,12 1.007,12 h 11.986 c 0.267,0 0.509,-0.104 0.688,-0.271 L 8.732,7.484 Z"/>
                    <path id="path4" data-old_color="#030104" class="active-path" data-original="#030104" d="M 13.684,2.271 C 13.504,2.103 13.262,2 12.993,2 H 1.007 C 0.74,2 0.498,2.104 0.318,2.273 L 7,8 Z"/>
                    <polygon id="polygon6" data-old_color="#030104" class="active-path" data-original="#030104" points="4.833,7.079 0,2.878 0,11.186 "/>
                    <polygon id="polygon8" data-old_color="#030104" class="active-path" data-original="#030104" points="14,2.875 9.167,7.079 14,11.186 "/>
                </g>
            </g>
        </g>
    </symbol>
    <symbol id="check-mark" viewBox="0 0 500 500">
        <g id="g6" transform="matrix(1.451988,0,0,1.451988,-4.3622192e-6,-12.000007)">
            <g id="g4">
                <path d="m 329.31758,30.678045 c -15.53905,-8.367182 -32.87107,7.769527 -43.03122,17.332021 -23.3076,22.710924 -43.03025,49.007783 -65.14449,72.914024 -24.50389,26.29686 -47.21482,52.59372 -72.31636,78.2939 -14.34375,14.34374 -29.8828,29.88279 -39.44529,47.81247 C 87.864608,226.11152 69.337275,203.4006 45.43104,184.87424 28.099019,171.72582 -0.58846349,162.16332 0.0091924,193.83908 1.2045042,235.07832 37.661513,279.30485 64.556028,307.3937 c 11.355462,11.95312 26.296859,24.50389 43.628882,25.10155 20.91795,1.19531 42.43356,-23.90624 54.98434,-37.65232 22.11424,-23.90624 40.04392,-50.80173 60.36324,-75.30464 26.29686,-32.27342 53.19138,-63.95016 78.89058,-96.82123 16.13671,-20.3203 66.93746,-70.524379 26.89451,-92.039015 z" data-original="#000000" class="active-path" data-old_color="#000000" id="path2" style="fill:#f59fbc;stroke-width:.9765619"/>
            </g>
        </g>
    </symbol>
    <symbol id="cancelmed" viewBox="0 0 500 500">
        <g transform="matrix(1.0077435,0,0,1.0077557,2.6350004e-7,-0.0030263)" id="g6">
            <path id="path2" data-old_color="#E04F5F" class="active-path" data-original="#E04F5F" d="M 496.158,248.085 C 496.158,111.064 385.088,0.003 248.082,0.003 111.07,0.003 0,111.063 0,248.085 c 0,137.002 111.07,248.07 248.082,248.07 137.006,0 248.076,-111.068 248.076,-248.07 z"/>
            <path id="path4" data-old_color="#FFFFFF" class="" data-original="#FFFFFF" d="m 277.042,248.082 72.528,-84.196 c 7.91,-9.182 6.876,-23.041 -2.31,-30.951 -9.172,-7.904 -23.032,-6.876 -30.947,2.306 l -68.236,79.212 -68.229,-79.212 c -7.91,-9.188 -21.771,-10.216 -30.954,-2.306 -9.186,7.91 -10.214,21.77 -2.304,30.951 l 72.522,84.196 -72.522,84.192 c -7.91,9.182 -6.882,23.041 2.304,30.951 4.143,3.569 9.241,5.318 14.316,5.318 6.161,0 12.294,-2.586 16.638,-7.624 l 68.229,-79.212 68.236,79.212 c 4.338,5.041 10.47,7.624 16.637,7.624 5.069,0 10.168,-1.749 14.311,-5.318 9.186,-7.91 10.22,-21.77 2.31,-30.951 z" style="fill:#fff"/>
        </g>
    </symbol>
    <symbol id="servicesmed" viewBox="0 0 500 660">
        <g id="g832" transform="scale(7.7539817,7.7647059)">
            <path style="fill:#cec398" data-name="Path 14" d="M 64.483,17.454 47.028,0 v 17.454 z m 0,0" id="Path_14"/>
            <path style="fill:#d80027" data-name="Path 15" d="m 13.091,24.727 h 5.818 v -5.818 h 5.818 V 13.091 H 18.909 V 7.273 h -5.818 v 5.818 H 7.273 v 5.818 h 5.818 z m 0,0" id="Path_15"/>
            <path style="fill:#f5f3eb" data-name="Path 16" d="M 64.483,17.586 H 47.028 V 0 H 32.483 v 85 h 32 z m 0,0" id="Path_16"/>
            <path style="fill:#efebdd" data-name="Path 17" d="M 7.273,68.879 H 32 V 0 H 0 V 85 H 32 V 68.879 Z m 0,-55.69 h 5.818 V 7.328 h 5.818 v 5.862 h 5.818 v 5.862 h -5.818 v 5.862 H 13.091 V 19.052 H 7.273 Z m 0,0" id="Path_17"/>
            <path style="fill:#c0ab91" data-name="Path 18" class="cls-5" d="M 57.197,43.954 H 7.286 a 1.455,1.455 0 1 1 0,-2.909 h 49.911 a 1.455,1.455 0 1 1 0,2.909 z m 0,0" id="Path_18"/>
            <path style="fill:#c0ab91" data-name="Path 19" class="cls-5" d="M 57.197,52.75 H 7.286 a 1.455,1.455 0 1 1 0,-2.909 h 49.911 a 1.455,1.455 0 1 1 0,2.909 z m 0,0" id="Path_19"/>
            <path style="fill:#c0ab91" data-name="Path 20" class="cls-5" d="M 57.197,61.545 H 7.286 a 1.455,1.455 0 1 1 0,-2.909 h 49.911 a 1.455,1.455 0 1 1 0,2.909 z m 0,0" id="Path_20"/>
            <path style="fill:#c0ab91" data-name="Path 21" class="cls-5" d="M 57.197,70.341 H 7.286 a 1.455,1.455 0 1 1 0,-2.909 h 49.911 a 1.455,1.455 0 1 1 0,2.909 z m 0,0" id="Path_21"/>
        </g>
    </symbol>
    <symbol id="phonesymbol" viewBox="0 0 500 500">
        <g transform="matrix(29.411765,0,0,29.411765,88.235292,4382.353)" id="phone-symbol-of-an-auricular-inside-a-circle">
            <g transform="translate(-2.999,-149)" data-name="Group 6" id="Group_6">
                <path transform="translate(-0.001)" data-name="Path 4" class="cls-1" d="M 8.5,0 A 8.5,8.5 0 1 0 17,8.5 8.5,8.5 0 0 0 8.5,0 Z m 4.49,12.4 -0.681,0.681 a 1.254,1.254 0 0 1 -0.489,0.2 8.027,8.027 0 0 1 -8.1,-8.119 1.267,1.267 0 0 1 0.2,-0.467 L 4.6,4.014 A 1.137,1.137 0 0 1 5.663,3.763 L 5.806,3.811 A 1.345,1.345 0 0 1 6.583,4.633 L 6.925,5.889 A 1.232,1.232 0 0 1 6.644,6.965 L 6.19,7.419 a 4.827,4.827 0 0 0 3.394,3.4 l 0.454,-0.455 a 1.232,1.232 0 0 1 1.076,-0.282 l 1.256,0.344 a 1.346,1.346 0 0 1 0.822,0.776 l 0.048,0.145 A 1.138,1.138 0 0 1 12.99,12.4 Z" id="Path_4"/>
            </g>
        </g>
    </symbol>
    <symbol id="heartmed" viewBox="0 0 500 425">
        <g transform="matrix(4.977527,0,0,4.9997296,0.01659608,-182.94511)" id="heart">
            <g transform="translate(0,36.592)" id="Layer_2_26_">
                <g data-name="Group 16" id="Group_16">
                    <path style="fill:#d43d21" transform="translate(-65.028,-31.592)" data-name="Path 11" d="m 125.112,76.811 c 7.784,-7.372 17.446,-16.526 18.775,-24.672 0.932,-5.759 0.023,-10.508 -2.707,-14.114 -2.757,-3.64 -6.944,-5.717 -12.812,-6.35 a 15.62,15.62 0 0 0 -1.59,-0.084 18.571,18.571 0 0 0 -11.559,4.185 18.556,18.556 0 0 0 -11.551,-4.185 15.623,15.623 0 0 0 -1.595,0.084 c -5.869,0.633 -10.06,2.71 -12.812,6.35 -2.729,3.606 -3.639,8.355 -2.707,14.114 1.329,8.149 10.991,17.3 18.776,24.672 0,0 3.885,3.926 5.05,4.932 0.879,0.758 2.78,2.283 4.843,2.283 2.063,0 3.964,-1.525 4.839,-2.283 1.165,-1.006 5.05,-4.932 5.05,-4.932 z" id="Path_11"/>
                    <path style="fill:#dec8ae" transform="translate(0,-108.289)" data-name="Path 12" class="cls-2" d="m 36.555,165.864 c -0.426,-0.328 -3.808,-2.885 -13.187,-3.511 a 3.537,3.537 0 0 1 -1.495,-0.712 l -0.336,-0.226 a 6.347,6.347 0 0 1 -1.3,-1.1 c -0.716,-0.858 -1.528,-1.578 -2.21,-2.531 -4.558,-6.357 -9.029,-7.63 -9.7,-7.886 -0.888,-0.426 -1.494,-0.551 -1.692,-1.159 -0.08,-0.282 -0.854,-7.665 -0.992,-8.9 -0.384,-3.56 -0.766,-6.2 -2.8,-6.914 a 1.056,1.056 0 0 0 -1.288,0.289 c -0.466,0.488 -0.74,3.073 -0.873,4.708 0,0 -0.768,9.552 -0.678,12.864 0.09,3.312 5.824,16.542 8.896,19.629 3.072,3.087 17.28,11.164 17.28,11.164 0.511,0.426 3.351,2.611 3.351,5.477 v 3.23 a 2.6,2.6 0 0 0 2.87,2.989 c 3.275,0 7.819,0.013 11.053,0.013 3.234,0 2.6,-2.921 2.606,-3.944 v -1.584 -0.175 c 0.039,-1.056 0.218,-2.1 0.344,-3.152 a 11.9,11.9 0 0 0 -0.1,-4.349 c -1.913,-8.563 -8.979,-13.621 -9.749,-14.22 z" id="Path_12"/>
                    <path style="fill:#dec8ae" transform="translate(-166.838,-108.29)" data-name="Path 13" class="cls-2" d="m 266.539,137.923 c -0.134,-1.635 -0.408,-4.219 -0.873,-4.708 a 1.057,1.057 0 0 0 -1.288,-0.289 c -2.04,0.716 -2.421,3.354 -2.8,6.914 -0.138,1.239 -0.911,8.622 -0.992,8.9 -0.2,0.607 -0.8,0.732 -1.692,1.159 -0.668,0.255 -5.139,1.529 -9.7,7.886 -0.682,0.953 -1.494,1.673 -2.21,2.531 a 6.362,6.362 0 0 1 -1.3,1.1 l -0.336,0.226 a 3.538,3.538 0 0 1 -1.495,0.712 c -9.38,0.626 -12.761,3.183 -13.187,3.511 -0.769,0.6 -7.836,5.656 -9.757,14.22 a 11.9,11.9 0 0 0 -0.1,4.349 c 0.126,1.048 0.305,2.1 0.344,3.152 v 1.759 c 0,1.023 -0.629,3.944 2.606,3.944 3.235,0 7.778,-0.013 11.053,-0.013 a 2.6,2.6 0 0 0 2.87,-2.989 v -3.23 c 0,-2.866 2.84,-5.051 3.351,-5.477 0,0 15.326,-8.835 17.281,-11.164 1.955,-2.329 8.517,-16.4 8.891,-19.629 0.374,-3.229 -0.666,-12.864 -0.666,-12.864 z" id="Path_13"/>
                </g>
            </g>
        </g>
    </symbol>
    <symbol id="doctor" viewBox="0 0 500 620">
        <g transform="matrix(7.2322268,0,0,7.2349877,-283.96615,2.526045)" id="doctor">
            <g transform="translate(39.264)" data-name="Group 36" id="Group_36">
                <g transform="translate(37.032,2.604)" data-name="Group 19" id="Group_19">
                    <path style="fill:#80362d" transform="translate(-223.513,-12.724)" data-name="Path 22" class="cls-1" d="m 232.938,12.724 -9.425,51.166 6.732,1.346 C 244.5,54.8 250.611,12.724 232.938,12.724 Z" id="Path_22"/>
                </g>
                <g transform="translate(8.947)" data-name="Group 20" id="Group_20">
                    <path style="fill:#80362d" transform="translate(-82.988)" data-name="Path 23" class="cls-1" d="m 121.168,2.6 c -2.356,-1.431 -14.793,-5.064 -24.237,0 -11.613,6.231 -21.768,28.5 -5.385,51.17 0.023,0.032 12.118,-1.346 12.118,-1.346 z" id="Path_23"/>
                </g>
                <g transform="translate(22.449,43.259)" data-name="Group 21" id="Group_21">
                    <path style="fill:#ffd7a3" transform="translate(-151.129,-216.714)" data-name="Path 24" d="m 172.746,219.859 h -0.073 v -3.145 h -18.851 v 3.142 c 0,3.078 -0.013,6.424 -2.693,8.447 v 30.152 h 24.237 v -30.2 c -2.612,-2.028 -2.62,-5.344 -2.62,-8.396 z" id="Path_24"/>
                </g>
                <g transform="translate(26.465,69.596)" data-name="Group 22" id="Group_22">
                    <path style="fill:#545465" transform="translate(-170.87,-345.424)" data-name="Path 25" class="cls-3" d="m 178.949,347.363 a 30.9,30.9 0 0 1 -8.079,-1.05 v 14.515 h 18.851 v -15.4 a 29.362,29.362 0 0 1 -10.772,1.935 z" id="Path_25"/>
                </g>
                <g transform="translate(25.117,43.562)" data-name="Group 23" id="Group_23">
                    <path style="fill:#fdc88e" transform="translate(-164.289,-216.331)" data-name="Path 26" d="m 184.486,233.914 a 7.43,7.43 0 0 0 1.346,0.24 v -6.2 c -2.611,-2.029 -2.62,-5.346 -2.62,-8.4 v -3.223 l -14.883,0.078 -4.039,1.346 c 2.692,3.03 10.939,13.634 20.196,16.159 z" id="Path_26"/>
                </g>
                <g transform="translate(15.716,12.029)" data-name="Group 24" id="Group_24">
                    <path style="fill:#ffe1b2" transform="translate(-118.228,-58.785)" data-name="Path 27" class="cls-5" d="m 155.929,73.6 c 0,10.783 -10.724,24.237 -18.851,24.237 -8.127,0 -18.85,-13.458 -18.85,-24.237 0,-10.779 8.44,-14.811 18.851,-14.811 10.411,0 18.85,4.025 18.85,14.811 z" id="Path_27"/>
                </g>
                <g transform="translate(11.714,5.296)" data-name="Group 25" id="Group_25">
                    <path style="fill:#80362d" transform="translate(-97.843,-25.884)" data-name="Path 28" class="cls-1" d="m 123.557,25.884 a 27.628,27.628 0 0 0 -5.22,1.595 l -0.166,-0.248 -0.757,0.6 c -1.117,0.424 -1.936,0.751 -1.936,0.751 l 0.315,0.525 c -5.111,4.027 -16.771,13.238 -17.819,14.286 -1.346,1.346 8.079,35.7 8.079,16.158 0,-16.326 9.07,-19.559 17.5,-21.544 3.815,-0.9 4.937,-3.142 5.386,-5.386 0.449,-2.244 -4.039,-6.737 -5.382,-6.737 z" id="Path_28"/>
                </g>
                <g transform="translate(38.405,2.604)" data-name="Group 26" id="Group_26">
                    <path style="fill:#80362d" transform="translate(-230.093,-12.724)" data-name="Path 29" class="cls-1" d="m 232.786,23.5 c 2.469,8.864 7.406,12.876 12.034,14.054 2.536,0.646 1.431,-7.321 1.431,-7.321 0,0 -3.591,-9.2 -4.039,-9.425 -0.448,-0.225 -4.039,-8.079 -4.039,-8.079 l -8.079,6.732 z" id="Path_29"/>
                </g>
                <g transform="translate(0,53.235)" data-name="Group 27" id="Group_27">
                    <path style="fill:#e4ebf0" transform="translate(-39.264,-265.465)" data-name="Path 30" class="cls-6" d="m 63.633,265.465 c -1.261,2.049 -3.832,3.489 -9.109,3.489 h -0.449 a 14.811,14.811 0 0 0 -14.811,14.811 v 9.425 a 4.039,4.039 0 0 0 4.036,4.04 h 27.63 z" id="Path_30"/>
                </g>
                <g transform="translate(37.465,53.235)" data-name="Group 28" id="Group_28">
                    <path style="fill:#e4ebf0" transform="translate(-226.671,-265.465)" data-name="Path 31" class="cls-6" d="m 233.972,265.465 c 1.261,2.049 3.832,3.489 9.109,3.489 h 0.449 a 14.811,14.811 0 0 1 14.811,14.811 v 9.425 a 4.04,4.04 0 0 1 -4.039,4.039 h -27.63 z" id="Path_31"/>
                </g>
                <g transform="translate(10.618,74.228)" data-name="Group 29" id="Group_29">
                    <circle style="fill:#d0d7dc" data-name="Ellipse 1" class="cls-7" r="4.039" cy="4.039" cx="4.039" id="Ellipse_1"/>
                </g>
                <g transform="translate(46.581,59.753)" data-name="Group 30" id="Group_30">
                    <path style="fill:#d0d7dc" transform="translate(-271.222,-297.322)" data-name="Path 32" class="cls-7" d="m 284.023,320.448 -1.665,-1.144 a 16.059,16.059 0 0 0 2.328,-8.853 c 0,-6.021 -2.621,-11.109 -5.722,-11.109 -3.101,0 -5.723,5.087 -5.723,11.109 a 16.058,16.058 0 0 0 2.328,8.853 l -1.665,1.144 a 18.1,18.1 0 0 1 -2.683,-10 c 0,-7.362 3.4,-13.128 7.742,-13.128 4.342,0 7.742,5.767 7.742,13.128 a 18.1,18.1 0 0 1 -2.682,10 z" id="Path_32"/>
                </g>
                <g transform="translate(49.167,80.961)" data-name="Group 31" id="Group_31">
                    <circle style="fill:#545465" data-name="Ellipse 2" class="cls-3" r="1.346" cy="1.346" cx="1.346" id="Ellipse_2"/>
                </g>
                <g transform="translate(57.016,80.961)" data-name="Group 32" id="Group_32">
                    <circle style="fill:#545465" data-name="Ellipse 3" class="cls-3" r="1.346" cy="1.346" cx="1.346" id="Ellipse_3"/>
                </g>
                <g transform="translate(13.598,53.02)" data-name="Group 33" id="Group_33">
                    <path style="fill:#d0d7dc" transform="translate(-106.712,-264.419)" data-name="Path 33" class="cls-7" d="m 107.722,287.983 a 1.01,1.01 0 0 1 -1.01,-1.01 c 0,-17.449 8.247,-22.231 8.6,-22.426 a 1.01,1.01 0 0 1 0.986,1.763 c -0.1,0.057 -7.564,4.537 -7.564,20.664 a 1.01,1.01 0 0 1 -1.012,1.009 z" id="Path_33"/>
                </g>
                <g transform="translate(12.509,76.136)" data-name="Group 34" id="Group_34">
                    <circle style="fill:#b2b9bf" data-name="Ellipse 4" r="2.132" cy="2.132" cx="2.132" id="Ellipse_4"/>
                </g>
                <g transform="translate(50.806,56.029)" data-name="Group 35" id="Group_35">
                    <path style="fill:#d0d7dc" transform="translate(-290.96,-277.583)" data-name="Path 34" class="cls-7" d="m 294.663,283.642 a 1.011,1.011 0 0 1 -0.952,-0.674 7.725,7.725 0 0 0 -2.32,-3.548 1.01,1.01 0 0 1 1.158,-1.655 9.558,9.558 0 0 1 3.066,4.531 1.01,1.01 0 0 1 -0.952,1.346 z" id="Path_34"/>
                </g>
            </g>
            <g transform="translate(87.058,26.459)" data-name="Group 37" id="Group_37">
                <path style="fill:#ffe1b2" transform="translate(-276.156,-131.17)" data-name="Path 35" class="cls-5" d="m 279.536,131.293 c 2.2,-0.505 3.647,0.574 3.647,2.693 0,2.805 -2.963,9.678 -6.078,5.386 -3.115,-4.292 2.431,-8.079 2.431,-8.079 z" id="Path_35"/>
            </g>
        </g>
    </symbol>
    <symbol id="clockmed" viewBox="0 0 500 500">
        <g transform="scale(29.411765)" id="Group_5" data-name="Group 5">
            <g id="Group_4" data-name="Group 4">
                <path id="Path_2" d="M 8.5,0 A 8.5,8.5 0 1 0 17,8.5 8.5,8.5 0 0 0 8.5,0 Z m 3.675,10.117 H 8.503 A 0.588,0.588 0 0 1 7.915,9.529 v -6 a 0.588,0.588 0 1 1 1.176,0 v 5.412 h 3.087 a 0.588,0.588 0 0 1 0,1.176 z" data-name="Path 2"/>
            </g>
        </g>
    </symbol>
    <symbol id="geo_icon" viewBox="0 0 2.646 3.704">
        <path d="M1.137 296.987a.323.323 0 0 1-.14-.094 104.58 104.58 0 0 1-.939-1.976 1.034 1.034 0 0 1-.057-.43c.004-.155.016-.224.058-.352.114-.347.419-.655.767-.774a1.28 1.28 0 0 1 .798-.003c.367.12.685.446.792.813.036.123.047.207.047.365 0 .166-.01.242-.047.351a89.457 89.457 0 0 1-.933 1.985.32.32 0 0 1-.132.106.337.337 0 0 1-.214.009zm.25-1.857a.613.613 0 0 0 .286-.168.574.574 0 0 0 .173-.467.508.508 0 0 0-.05-.218.62.62 0 0 0-1.164.406.624.624 0 0 0 .504.46.803.803 0 0 0 .25-.013z" stroke-width=".007" transform="translate(0 -293.296)" style="fill:#facfdd"/>
    </symbol>
</svg>
