<svg xmlns="http://www.w3.org/2000/svg" width="210mm" height="297mm" viewBox="0 0 210 297"><defs><filter id="a" x="-1.302" width="3.604" y="-1.113" height="3.225" color-interpolation-filters="sRGB"><feGaussianBlur stdDeviation="38.427"/></filter><filter id="c" x="-.024" width="1.048" y="-.024" height="1.048" color-interpolation-filters="sRGB"><feGaussianBlur stdDeviation=".044"/></filter><filter id="b" x="-.024" width="1.048" y="-.024" height="1.048" color-interpolation-filters="sRGB"><feGaussianBlur stdDeviation=".044"/></filter><filter id="d" x="-.024" width="1.048" y="-.024" height="1.048" color-interpolation-filters="sRGB"><feGaussianBlur stdDeviation=".044"/></filter><filter id="e" x="-.024" width="1.048" y="-.024" height="1.048" color-interpolation-filters="sRGB"><feGaussianBlur stdDeviation=".044"/></filter><filter id="f" x="-.024" width="1.048" y="-.024" height="1.048" color-interpolation-filters="sRGB"><feGaussianBlur stdDeviation=".044"/></filter><filter id="g" x="-.024" width="1.048" y="-.024" height="1.048" color-interpolation-filters="sRGB"><feGaussianBlur stdDeviation=".044"/></filter></defs><g fill="none"><path d="M163.052 93.354c-23.609 27.628-55.482 50.17-70.826 82.883" stroke="#916ee9" stroke-width="1.323" filter="url(#a)"/><path d="M22.387 296.896l80.621-93.297" stroke="#916ee9" stroke-width="1.323"/><path d="M218.538 116.716L147.1 199.682" stroke="#916ee9" stroke-width="1.323" stroke-miterlimit="31.2"/><g opacity=".3"><g stroke="#9173e6" stroke-width=".256" filter="url(#b)" transform="matrix(1.03612 0 0 1.02821 -296.258 84.245)"><path d="M335.523 47.839h4.344m-2.172-2.206v4.377"/></g><g stroke="#5e42b0" stroke-width=".769" stroke-opacity=".632" filter="url(#c)" transform="matrix(1.03612 0 0 1.02821 -296.258 84.245)"><path d="M335.523 47.839h4.344m-2.172-2.206v4.377"/></g></g><g stroke="#9173e6" stroke-width=".256" filter="url(#d)" transform="matrix(1.03612 0 0 1.02821 -290.506 88.782)"><path d="M335.523 47.839h4.344m-2.172-2.206v4.377"/></g><g stroke="#5e42b0" stroke-width=".769" stroke-opacity=".632" filter="url(#e)" transform="matrix(1.03612 0 0 1.02821 -290.506 88.782)"><path d="M335.523 47.839h4.344m-2.172-2.206v4.377"/></g><g stroke="#9173e6" stroke-width=".256" filter="url(#f)" transform="matrix(1.03612 0 0 1.02821 -169.763 154.11)"><path d="M335.523 47.839h4.344m-2.172-2.206v4.377"/></g><g stroke="#5e42b0" stroke-width=".769" stroke-opacity=".632" filter="url(#g)" transform="matrix(1.03612 0 0 1.02821 -169.763 154.11)"><path d="M335.523 47.839h4.344m-2.172-2.206v4.377"/></g></g></svg>