<svg xmlns="http://www.w3.org/2000/svg"><symbol id="fbk" viewBox="0 0 52.917 52.917"><path d="M26.293.662C18.097.649 10.03 4.895 5.361 11.64c-3.895 5.518-5.513 12.59-4.31 19.226C2.18 37.36 5.866 43.401 11.225 47.262c5.256 3.852 12.005 5.644 18.468 4.78 6.565-.823 12.785-4.26 16.894-9.463 4.024-5.013 6.1-11.569 5.594-17.984-.454-6.412-3.392-12.65-8.138-17.01C39.342 3.19 32.945.635 26.52.662h-.226zm.206 4.01c7.648-.048 15.157 4.303 18.882 10.991 3.232 5.66 3.786 12.803 1.31 18.851-2.292 5.76-7.13 10.48-13.011 12.487-5.786 2.038-12.442 1.528-17.79-1.508-5.276-2.923-9.27-8.112-10.615-14.006-1.397-5.872-.278-12.329 3.173-17.301 3.33-4.908 8.729-8.378 14.605-9.247a22.354 22.354 0 0 1 3.446-.267zm7.858 16.69h-5.79v-4.226c0-1.296 1.34-1.597 1.967-1.597h3.74V9.836l-4.287-.023c-5.848 0-7.183 4.253-7.183 6.98v4.57H18.56v5.875h4.244v15.865h5.763V27.238h4.896z"/></symbol><symbol id="linkin" viewBox="0 0 52.917 52.917"><path d="M26.293.662C18.097.649 10.03 4.895 5.361 11.64c-3.895 5.518-5.513 12.59-4.31 19.226C2.18 37.36 5.866 43.401 11.225 47.262c5.256 3.852 12.005 5.644 18.468 4.78 6.565-.823 12.785-4.26 16.894-9.463 4.024-5.013 6.1-11.569 5.594-17.984-.454-6.412-3.392-12.65-8.138-17.01C39.342 3.19 32.945.635 26.52.662h-.226zm.206 4.01c7.648-.048 15.157 4.303 18.882 10.991 3.232 5.66 3.786 12.803 1.31 18.851-2.292 5.76-7.13 10.48-13.011 12.487-5.786 2.038-12.442 1.528-17.79-1.508-5.276-2.924-9.27-8.112-10.615-14.006-1.397-5.872-.278-12.329 3.173-17.301 3.33-4.908 8.729-8.378 14.605-9.247a22.354 22.354 0 0 1 3.446-.267zm-13.7 12.834v19.22h6.058l-.036-19.186-6.021-.033zm11.107-.002v19.222h4.836c.064-3.886-.07-7.78.177-11.66.21-1.462 1.146-2.948 2.641-3.343 1.136-.3 2.428-.296 3.473.288 1.3.8 1.909 2.387 1.868 3.868.128 3.46.06 6.924.12 10.386-.18.58.386.413.766.431 1.426.01 2.851.02 4.277.028-.063-4.518.073-9.044-.168-13.556-.224-1.741-.887-3.624-2.442-4.604-1.62-.999-3.62-1.112-5.471-.961-1.717.172-3.536.843-4.438 2.414-.34.557-.596 1.158-.877 1.744-.134-1.415-.124-2.837-.144-4.256zM15.94 9.15h-.12c-1.813-.045-3.384 1.838-2.955 3.614.324 1.663 2.219 2.884 3.852 2.29 1.527-.486 2.579-2.301 1.97-3.843-.407-1.14-1.517-2.038-2.747-2.06z"/></symbol><symbol id="viber" viewBox="0 0 52.917 52.917"><path d="M25.233.63c-5.046.047-10.244.522-14.828 2.806-3.215 1.596-5.896 4.251-7.384 7.522C.951 15.294.524 20.184.696 24.926c.2 4.48 1.298 9.05 3.933 12.754 1.75 2.461 4.218 4.375 7 5.515.351.075.52.259.397.628-.144 2.143-.368 4.436.663 6.414.652 1.26 2.045 2.137 3.483 2.042 1.845-.022 3.565-1.158 4.478-2.733 1.142-1.402 2.459-2.662 3.582-4.071.342-.199.757-.006 1.127-.082 5.028-.038 10.164-.166 14.951-1.884 3.389-1.205 6.54-3.348 8.47-6.44 2.5-3.809 3.441-8.43 3.463-12.926.1-4.55-.381-9.228-2.38-13.379-1.574-3.255-4.258-5.974-7.561-7.482C37.01.735 30.99.63 25.232.631zm2.607 4.015c4.123.055 8.384.265 12.212 1.957C42.607 7.7 44.83 9.64 46.069 12.15c1.827 3.457 2.206 7.453 2.186 11.302-.019 3.882-.625 7.91-2.699 11.263-1.402 2.236-3.577 3.939-6.038 4.869-3.876 1.573-8.128 1.69-12.253 1.766-1.321.035-2.657-.113-3.958.137-1.011.224-1.933.834-2.482 1.717-1.482 1.7-2.797 3.582-4.549 5.023-.242.115-.313-.214-.259-.385-.05-2.2.547-4.5-.324-6.593-.217-.626-.793-.985-1.359-1.248-1.702-.9-3.737-1.37-5.049-2.881-2.568-2.46-3.896-5.95-4.326-9.425-.451-3.422-.326-6.91.202-10.315.572-3.204 1.874-6.431 4.366-8.622 2.654-2.327 6.173-3.364 9.616-3.782 2.884-.357 5.796-.322 8.697-.33zm-1.421 3.618c-.98-.014-1.55 1.488-.692 2.051.749.482 1.678.191 2.504.393 2.017.26 3.917 1.154 5.487 2.432 1.698 1.278 2.83 3.187 3.506 5.175.403 1.195.536 2.46.55 3.714.1.687.848 1.21 1.515.947.534-.171.898-.752.77-1.304.007-3.276-1.334-6.494-3.586-8.863-2.497-2.862-6.26-4.572-10.054-4.545zm-9.109 2.202c-1.043-.013-2.127.164-3.016.748-2.322 1.294-3.969 3.936-3.655 6.64.323 2.914 2.006 5.424 3.478 7.895.87 1.51 1.823 2.988 3.02 4.26 1.222 1.332 2.669 2.44 4.138 3.486 2.554 1.725 5.297 3.265 8.288 4.104 2.03.488 4.222-.112 5.811-1.429 1.445-1.167 2.502-2.917 2.474-4.807-.002-.645.02-1.306-.108-1.937-.446-.861-1.49-1.073-2.282-1.491-1.254-.574-2.41-1.439-3.787-1.693-1.458-.084-2.714.856-3.798 1.727-.206.139-.392.413-.627.441-1.843-.607-3.453-1.793-4.791-3.175-1.077-1.227-2.047-2.598-2.538-4.171.973-1.196 2.149-2.475 2.204-4.092-.041-1.144-.732-2.103-1.167-3.125-.525-1.024-.987-2.097-1.66-3.033-.548-.47-1.323-.32-1.984-.348zm9.462 2.33c-.645-.01-1.465.357-1.478 1.094-.047.724.664 1.349 1.376 1.255.97-.005 1.936.183 2.807.616 1.807.835 3.173 2.546 3.565 4.5.188.743.17 1.53.385 2.263.448.795 1.95.654 2.072-.318.213-1.367-.203-2.755-.767-3.996-1.276-2.672-3.839-4.703-6.746-5.309-.4-.073-.807-.11-1.214-.104zm-9.217.031a.368.368 0 0 1 .44.368c.504 1.377 1.636 2.525 1.785 4.026-.082.98-1 1.55-1.615 2.204-.514.487-.96 1.254-.624 1.962.61 1.793 1.577 3.46 2.755 4.932.805.831 1.733 1.53 2.578 2.316 1.24.938 2.645 1.651 4.1 2.214.525.207 1.196.175 1.556-.319.359-.431.742-.843 1.224-1.14.411-.287.766-.753 1.28-.842.751-.031 1.337.526 2.003.775l2.459 1.23c.066 1.136-.065 2.399-.892 3.257-.956 1.25-2.631 1.842-4.17 1.567-1.927-.286-3.632-1.312-5.345-2.173-2.003-1.107-3.807-2.535-5.523-4.04-1.718-1.605-3.015-3.599-4.134-5.652-1.074-1.895-2.36-3.83-2.487-6.074-.182-2.008 1.225-4.093 3.23-4.503.455-.08.924-.093 1.38-.108zm8.846 4.51c-.656.005-1.276.645-1.082 1.314.098.645.739 1.061 1.364 1 .843.072 1.78.575 1.927 1.48.133.596.052 1.408.666 1.751.596.337 1.6.107 1.691-.664.215-1.32-.487-2.666-1.418-3.588-.838-.807-1.981-1.323-3.148-1.294z"/></symbol><symbol id="teleg" viewBox="0 0 52.917 52.917"><path d="M26.293.666C18.097.654 10.03 4.9 5.361 11.643 1.466 17.16-.152 24.23 1.051 30.865 2.18 37.357 5.866 43.398 11.225 47.26c5.256 3.85 12.005 5.643 18.468 4.778 6.565-.822 12.785-4.26 16.894-9.461 4.024-5.012 6.1-11.566 5.594-17.981-.454-6.41-3.392-12.647-8.138-17.006C39.342 3.193 32.945.639 26.52.666h-.226zm.206 4.01c7.648-.049 15.157 4.302 18.882 10.989 3.232 5.66 3.786 12.801 1.31 18.848-2.292 5.76-7.13 10.478-13.011 12.484-5.786 2.038-12.442 1.528-17.79-1.507-5.276-2.923-9.27-8.11-10.615-14.004-1.397-5.871-.278-12.327 3.173-17.298 3.33-4.906 8.729-8.376 14.605-9.245a22.359 22.359 0 0 1 3.446-.267zm9.237 33.84c.785-.374.828-.519 2.758-9.335.986-4.504 2.027-9.252 2.314-10.551.288-1.3.523-2.577.523-2.838 0-.582-.362-1.15-.921-1.448-.522-.277-1.004-.27-1.756.028-.336.133-2.167.829-4.07 1.547a7321.36 7321.36 0 0 0-6.4 2.419c-1.618.612-5.562 2.1-8.765 3.307-7.475 2.816-7.462 2.81-7.673 3.217-.33.64-.135 1.386.44 1.683.184.095 1.606.61 3.16 1.145 2.916 1.003 3.616 1.14 4.368.854.278-.106 3.314-2.002 9.508-5.938 4.134-2.627 4.162-2.643 4.366-2.516.407.255.291.661-.353 1.247-.336.305-2.538 2.415-4.892 4.688-3.336 3.22-4.297 4.21-4.352 4.487-.12.596.17 1.065 1.038 1.678.82.58 4.806 3.461 7.293 5.272 1.937 1.41 2.376 1.546 3.414 1.053z"/></symbol><symbol id="gmail" viewBox="0 0 52.917 52.917"><path d="M26.293.662C18.097.649 10.03 4.896 5.361 11.64c-3.895 5.517-5.513 12.59-4.31 19.225C2.18 37.36 5.866 43.401 11.225 47.262c5.256 3.852 12.005 5.644 18.468 4.78 6.565-.823 12.785-4.26 16.894-9.463 4.024-5.013 6.1-11.569 5.594-17.984-.454-6.412-3.392-12.65-8.138-17.01C39.342 3.19 32.945.635 26.52.662h-.226zm.206 4.01c7.648-.048 15.157 4.303 18.882 10.991 3.232 5.66 3.786 12.803 1.31 18.851-2.292 5.76-7.13 10.48-13.011 12.487-5.786 2.038-12.442 1.528-17.79-1.508-5.276-2.923-9.27-8.112-10.615-14.006-1.397-5.872-.278-12.329 3.173-17.301 3.33-4.908 8.729-8.378 14.605-9.247a22.353 22.353 0 0 1 3.446-.267zM11.211 14.99h30.495v22.937H11.211zm26.226 18.188l-8.613-6.171-2.234 1.93-2.422-2.044-8.062 6.512v4.166c.09.09 4.881.112 10.768.112h10.703zM19.839 29.61l3.738-3.111-7.47-6.414v12.437c1.514-1.142 2.52-1.945 3.732-2.912zm17.415-9.826l-7.912 6.785 8.034 5.735zm-1.124-4.55H17.51l9.086 9.217z"/></symbol><symbol id="skype" viewBox="0 0 52.917 52.917"><path d="M14.776.669C8.936.609 3.281 4.6 1.44 10.17c-1.473 4.225-.838 9.131 1.755 12.786.335.599-.018 1.28.006 1.91-.596 7.91 3.205 16.057 9.756 20.595 4.744 3.37 10.79 4.903 16.548 4.105.636.065 1.025.655 1.6.873 4.8 2.74 11.211 2.356 15.564-1.079 3.687-2.809 5.91-7.511 5.548-12.152-.163-2.63-1.085-5.197-2.568-7.368-.241-.802.164-1.607.084-2.415.395-8.069-3.796-16.246-10.666-20.551-4.594-2.959-10.236-4.246-15.653-3.526-.7-.074-1.15-.702-1.784-.947A14.22 14.22 0 0 0 14.776.67zm-.015 3.951c2.589-.052 5.087 1.047 7.064 2.664 1.151.433 2.312-.164 3.499-.135 6.694-.434 13.514 2.912 17.193 8.536 2.81 4.18 3.895 9.475 2.945 14.42-.095.844.503 1.501.975 2.12 2.704 3.659 2.367 9.137-.613 12.54-2.367 2.746-6.244 4.079-9.797 3.341-1.868-.356-3.519-1.372-5.017-2.495-1.184-.385-2.386.22-3.587.17-6.646.376-13.392-2.963-17.042-8.547-2.815-4.188-3.894-9.495-2.94-14.45.091-.95-.674-1.611-1.147-2.332-2.549-3.685-2.122-9.06.86-12.378 1.92-2.13 4.725-3.46 7.607-3.454zm10.331 6.578c-3.414.053-6.957 1.093-9.452 3.515-2.843 2.928-3.051 8.076-.28 11.121 1.796 1.943 4.415 2.779 6.912 3.381 2.737.683 5.638.992 8.11 2.45.978.935.45 2.757-.796 3.172-2.605 1.32-5.888.658-8.037-1.228-1.12-.855-1.876-2.25-3.263-2.756-1.363-.545-3.107-.267-4.038.932-1.136 1.386-1.098 3.512-.051 4.938 1.261 2.002 3.491 3.103 5.654 3.862 4.196 1.44 8.892 1.56 13.093.078 2.628-.999 5.062-2.925 6.045-5.631.98-2.611.644-5.819-1.281-7.921-1.87-2.063-4.587-3.053-7.216-3.731-2.693-.7-5.576-.94-8.021-2.351-.849-.882-.338-2.613.89-2.83 2.006-.779 4.292-.591 6.2.33 1.204.638 2.11 1.72 3.239 2.47 1.63.834 3.92.312 4.814-1.349 1.037-1.721.513-4.2-1.168-5.318-2.19-1.86-5.088-2.554-7.867-2.95a28.2 28.2 0 0 0-3.487-.184z"/></symbol><symbol id="github" viewBox="0 0 52.917 52.917"><path d="M188.24 261.324c-.874-11.894-1.852-26.63-1.909-32.596-.38-4.58-.874-16.227-11.932-23.665 43.901-3.677 64.793-27.941 66.294-60.005 1.255-18.26-6.004-34.317-18.896-47.275.656-13.86-.418-30.288-1.31-37.507-9.9-2.85-32.986 9.339-39.438 14.555-13.605-5.283-46.903-7.135-67.14 0-14.346-10.09-30.677-16.322-39.578-14.583C66.112 78.46 71.395 95.675 73 97.727c-10.584 9.672-25.348 21.576-21.338 46.515 6.431 36.567 32.159 56.29 73.58 61.116-8.834 1.805-10.327 8.399-11.067 11.258-27.818 11.476-35.77-7.087-39.285-11.923-11.676-14.45-22.155-10.26-22.801-10.033-.628.228-1.102 1.14-1.036 1.577.589 3.116 6.945 6.28 7.259 6.536 8.616 6.422 11.809 18.023 13.775 21.329 12.36 20.321 41.09 11.895 41.365 12.066.02 1.776-.199 16.73-.37 28.368-52.385-14.308-90.929-62.096-90.929-119.013 0-68.214 55.294-123.506 123.506-123.506 68.213 0 123.508 55.292 123.508 123.506 0 53.231-33.727 98.443-80.926 115.801zM145.66 0C65.219 0 0 65.219 0 145.66c0 80.45 65.219 145.66 145.66 145.66s145.66-65.21 145.66-145.66C291.319 65.219 226.1 0 145.66 0z" transform="translate(.661 .661) scale(.1771)"/></symbol></svg>