<svg viewBox="0 0 264.583 264.583" xmlns="http://www.w3.org/2000/svg"><linearGradient id="a" gradientUnits="userSpaceOnUse" x1="134.044" x2="138.387" y1="123.227" y2="290.273"><stop offset="0"/><stop offset="1" stop-opacity="0"/></linearGradient><path d="M125.534 192.583c-16.005-3.678-25.3-22.45-19.336-37.594 4.066-12.268 17.23-20.433 30.048-18.149 15.467.57 27.487 16.972 24.87 31.965-1.94 16.329-19.674 28.504-35.582 23.778zm22.424 28.517c25.855-6.697 45-32.894 42.562-59.682-.75-23.24-17.833-44.122-39.446-51.621-16.929-5.135-36.299-3.036-50.815 7.498-16.112 10.73-26.628 29.981-24.827 49.518-.769 26.332 20.963 50.136 46.264 55.196 8.637 1.66 17.7.821 26.262-.91zm-29.538 29.068c-37.49-6.709-66.914-34.488-88.24-64.494-4.705-6.538-8.73-13.519-12.732-20.498 16.216-30.302 39.564-57.956 70.005-74.648 23.41-13.172 52.428-16.108 77.593-6.256 36.62 13.737 63.197 45.266 82.077 78.416.4 9.539-9.237 17.569-13.792 25.885-20.472 28.796-49.2 54.963-85.004 61.48-9.9 1.123-20.008 1.333-29.907.115z" fill="url(#a)" transform="translate(0 -32.417)"/></svg>