<svg xmlns="http://www.w3.org/2000/svg"><symbol id="float" viewBox="0 0 52.917 52.917"><g transform="translate(0 -244.083)" id="layer1"><g transform="translate(168.276 365.602)" id="g1674"><circle id="path1525" cx="-141.818" cy="-95.061" r="25.198" opacity=".94" fill="#f2f5fa" fill-opacity="1" stroke="#068dde" stroke-width="2.52" stroke-linejoin="miter" stroke-miterlimit="4" stroke-dasharray="none" stroke-opacity="1" paint-order="normal"/><g id="g1656" transform="translate(36.964 88.024) scale(.5289)"><path id="path1630" d="M-373.084-337.465c-.995-1.06-.976-2.392.05-3.355.783-.736 1.108-.767 8.052-.767 7.107 0 7.25.014 8.003.816.995 1.06.975 2.393-.05 3.356-.783.736-1.109.767-8.052.767-7.108 0-7.25-.015-8.003-.817z" fill="#068dde" fill-opacity="1" stroke-width=".353"/><path id="path1628" d="M-357.623-338.06c.388-.388.705-.864.705-1.058 0-.194-.317-.67-.705-1.058-.657-.656-1.176-.706-7.409-.706-6.232 0-6.752.05-7.408.706-.388.388-.706.864-.706 1.058 0 .194.318.67.706 1.059.656.656 1.176.705 7.408.705 6.233 0 6.752-.05 7.409-.705z" fill="#068dde" fill-opacity="1" stroke-width=".353"/><path id="path1626" d="M-351.395-337.294c-.509-.561-.584-1.718-.584-8.97 0-7.098.082-8.407.554-8.88.455-.454 1.502-.554 5.796-.554 5.78 0 6.35.19 6.35 2.121 0 1.649-1.062 2.112-4.841 2.112h-3.273v3.175h2.755c3.206 0 4.065.433 4.065 2.048 0 1.868-.562 2.185-3.865 2.185h-2.955v2.92c0 3.506-.494 4.489-2.258 4.489-.676 0-1.404-.27-1.744-.646z" fill="#000" stroke-width=".353"/><path id="path1624" d="M-348.446-340.982c.003-1.594.122-3.079.265-3.3.146-.226 1.518-.457 3.154-.53 3.094-.14 3.84-.5 3.466-1.679-.214-.673-.498-.74-3.14-.74-1.788 0-3.066-.163-3.327-.424-.55-.55-.55-3.896 0-4.445.272-.271 1.66-.423 3.868-.423 3.007 0 3.49-.084 3.799-.662.269-.502.202-.798-.28-1.234-.915-.828-9.253-.844-10.078-.02-.47.47-.554 1.713-.554 8.114 0 7.118.041 7.602.713 8.274.567.566.857.636 1.411.34.607-.325.698-.749.703-3.271z" fill="#000" stroke-width=".353"/><path id="path1622" d="M-337.407-337.5l-.99-.85-.106-8.102c-.117-8.914-.045-9.246 2.017-9.246 1.984 0 2.146.606 2.146 8.034v6.744l.97.462c1.22.582 1.572 2.626.578 3.353-1.063.777-3.494.57-4.615-.394z" fill="#000" stroke-width=".353"/><path id="path1620" d="M-333.498-337.893c.67-.67.372-1.536-.663-1.93-1.047-.397-1.229-1.683-1.234-8.72-.004-5.298-.054-5.746-.688-6.086-.553-.296-.79-.215-1.235.419-.45.643-.55 1.972-.55 7.321.001 8.125.404 9.245 3.414 9.5.23.02.659-.208.956-.504z" fill="#000" stroke-width=".353"/><path id="path1618" transform="scale(.26458)" d="M-1232.281-1325.574c-15.475 0-23.367 8.949-23.367 26.535 0 12.827 4.117 20.903 12.668 24.855 2.47 1.142 7.325 1.705 12.695 1.471 15.42-.671 21.928-8.484 21.928-26.326 0-17.205-6.416-25.38-20.729-26.416a43.958 43.958 0 0 0-3.195-.12zm.76 10.556c7.685-.034 9.873 3.507 9.873 15.979 0 12.471-2.188 16.013-9.873 15.98-2.637-.01-5.453-.46-6.26-1-6.21-4.146-6.21-25.812 0-29.959.807-.538 3.623-.988 6.26-1z" fill="#000" stroke-width="1.333"/><path id="path1610" transform="scale(.26458)" d="M-1183.648-1325.695c-14.398.01-21.277 4.05-19.43 11.41 1.229 4.896 4.852 6.154 12.586 4.369 5.917-1.366 7.099-1.252 10.426 1.002l3.752 2.541-9.686.754c-11.599.902-16.11 3.69-18.94 11.701-2.778 7.868-.01 15.896 6.626 19.211 5.208 2.602 17.358 3.13 21.464.932 1.88-1.006 3.901-.943 7.133.226 3.814 1.38 5.027 1.293 7.856-.56 4.492-2.944 5.443-6.64 2.949-11.463-1.388-2.684-2.068-7.688-2.068-15.203 0-9.427-.48-11.92-3.028-15.733-4.086-6.116-10.666-9.195-19.64-9.187zm1.54 29.324c7.282 0 9.175 2.743 6.198 8.978-1.529 3.202-2.64 3.74-8.424 4.08-4.03.237-7.32-.264-8.322-1.267-2.598-2.598-1.949-7.438 1.304-9.717 1.664-1.165 5.718-2.074 9.245-2.074z" fill="#000" stroke-width="1.333"/><path id="path1602" d="M-303.676-337.68c-1.014-1.014-1.03-1.094-1.03-4.898 0-3.736-.03-3.887-.883-4.445-.616-.404-.882-.897-.882-1.636 0-.785.227-1.16.882-1.46.714-.324.882-.655.882-1.73 0-1.578.737-2.438 2.087-2.438 1.291 0 2.147 1.001 2.147 2.512 0 1.075.138 1.263 1.146 1.56.893.263 1.172.557 1.26 1.329.141 1.23-.466 2.007-1.568 2.007-.817 0-.838.076-.838 3.007 0 2.951.018 3.015.962 3.374 1.126.428 1.494.912 1.502 1.972.009 1.267-.924 1.878-2.87 1.878-1.48 0-1.932-.167-2.797-1.032z" fill="#000" stroke-width=".353"/><path id="path1600" d="M-299.856-337.576c1.167-.313 1.086-1.808-.114-2.109-1.175-.295-1.562-1.376-1.562-4.366 0-2.942.201-3.533 1.202-3.533.426 0 .952-.179 1.17-.396.577-.578.144-1.368-.752-1.368-1.123 0-1.62-.667-1.62-2.175 0-.951-.193-1.432-.68-1.693-.996-.532-1.79.417-1.79 2.14 0 1.009-.171 1.46-.617 1.625-.34.125-.727.393-.861.594-.295.442.33 1.273.956 1.273.33 0 .481 1.1.574 4.196.134 4.492.5 5.46 2.19 5.79.417.081.837.167.934.191.097.024.533-.052.97-.17z" fill="#000" stroke-width=".353"/><path id="path1598" d="M-366.734-344.52c-.995-1.06-.976-2.393.05-3.356.74-.696 1.193-.767 4.877-.767 3.788 0 4.112.055 4.828.817.995 1.059.975 2.392-.05 3.355-.74.696-1.193.767-4.877.767-3.789 0-4.113-.055-4.828-.816z" fill="#068dde" fill-opacity="1" stroke-width=".353"/><path id="path1596" d="M-357.623-345.115c.388-.388.705-.864.705-1.058 0-.194-.317-.67-.705-1.059-.612-.611-1.176-.705-4.234-.705-3.057 0-3.622.094-4.233.705-.388.388-.706.865-.706 1.059 0 .194.318.67.706 1.058.611.611 1.176.706 4.233.706 3.058 0 3.622-.095 4.234-.706z" fill="#068dde" fill-opacity="1" stroke-width=".353"/><path id="path1594" d="M-377.318-351.576c-.995-1.06-.975-2.392.05-3.355.796-.748 1.052-.767 10.169-.767 9.32 0 9.355.003 10.12.816.995 1.06.975 2.393-.05 3.355-.796.748-1.052.768-10.169.768-9.32 0-9.355-.003-10.12-.817z" fill="#068dde" fill-opacity="1" stroke-width=".353"/><path id="path1590" d="M-357.623-352.17c.388-.389.705-.865.705-1.059 0-.194-.317-.67-.705-1.058-.668-.668-1.176-.706-9.525-.706-8.35 0-8.858.038-9.525.706-.389.388-.706.864-.706 1.058 0 .194.317.67.706 1.058.667.668 1.175.706 9.525.706 8.349 0 8.857-.038 9.525-.706z" fill="#068dde" fill-opacity="1" stroke-width=".353"/></g></g></g></symbol><symbol id="svg" viewBox="0 0 52.917 52.917"><g transform="translate(0 -244.083)" id="layer1"><g id="g914" transform="translate(-173.4 -164.447) scale(.54902)"><ellipse ry="40.877" rx="42.13" cy="792.303" cx="364.03" id="path7038" opacity=".94" fill="#fff" fill-opacity="1" stroke="#000" stroke-width="12.124" stroke-miterlimit="4" stroke-dasharray="none" stroke-opacity="1" paint-order="markers stroke fill"/><g transform="matrix(.155 0 0 .155 263.53 741.303)" id="g7036"><path transform="translate(-553.236 3.443) scale(1.83298)" d="M787.85 184.456v101.6a30.624 30.624 0 0 1-30.691 30.692h-203.2a30.624 30.624 0 0 1-30.692-30.692v-101.6c95.53.051 179.947 0 264.583 0z" id="rect6944-8" opacity=".94" fill="#000" fill-opacity="1" stroke="none" stroke-width="38.107" stroke-miterlimit="4" stroke-dasharray="none" stroke-opacity="1" paint-order="markers stroke fill"/><g id="g6992" transform="translate(-338.556 74.316) scale(1.83298)"><path d="M538.716 30.17c-.644-.01-1.275.02-1.888.082-5.375.56-9.43 2.477-13.124 6.201-3.068 3.093-4.87 6.42-5.787 10.678-.444 2.051-.443 5.945 0 7.978.816 3.75 2.405 6.954 4.84 9.761l1.017 1.174v44.062h-.32c-.236 0-4.402-4.09-15.725-15.44l-15.404-15.438-.135-1.668c-.248-3.04-.895-5.36-2.227-7.978-2.886-5.672-7.936-9.59-14.336-11.125-1.106-.265-1.708-.309-4.275-.31-2.662-.003-3.134.035-4.339.333-4.31 1.069-7.273 2.725-10.333 5.777-2.481 2.473-4.065 4.992-5.101 8.116-.84 2.53-.996 3.562-.996 6.58 0 3.018.156 4.05.996 6.58 2.329 7.018 8.429 12.435 15.71 13.952.582.122 1.796.28 2.698.355l1.64.133 15.404 15.439c11.323 11.348 15.404 15.524 15.404 15.76v.321h-43.962l-1.171-1.02c-2.917-2.54-6.236-4.153-10.133-4.925-1.905-.377-5.627-.34-7.567.076a21.81 21.81 0 0 0-7.584 3.18c-1.751 1.16-4.456 3.856-5.67 5.652-2.06 3.046-3.336 6.726-3.632 10.475l-.076.963.076.962c.296 3.75 1.572 7.43 3.632 10.475 1.214 1.796 3.919 4.493 5.67 5.653a21.81 21.81 0 0 0 7.584 3.18c1.94.415 5.662.453 7.567.075 3.897-.771 7.216-2.384 10.133-4.925l1.17-1.02h43.963v.321c0 .236-4.081 4.412-15.404 15.76l-15.405 15.44-1.64.133c-.901.074-2.115.233-2.697.354-7.281 1.517-13.381 6.935-15.71 13.952-.84 2.53-.996 3.563-.996 6.58 0 3.018.156 4.05.996 6.58 1.036 3.124 2.62 5.644 5.1 8.117 3.061 3.051 6.024 4.708 10.334 5.777 1.205.298 1.677.334 4.34.333 2.566-.001 3.168-.045 4.274-.31 6.4-1.535 11.45-5.453 14.336-11.126 1.332-2.617 1.98-4.937 2.227-7.977l.135-1.668 15.404-15.44c11.323-11.348 15.489-15.439 15.724-15.439h.32v44.063l-1.017 1.173c-2.434 2.808-4.023 6.012-4.84 9.762-.442 2.033-.443 5.927 0 7.978.917 4.258 2.72 7.584 5.788 10.677 3.693 3.725 7.749 5.641 13.124 6.202 3.268.34 7.073-.372 10.414-1.95 5.926-2.801 10.289-8.37 11.696-14.93.45-2.098.447-5.812-.01-7.94-.815-3.812-2.342-6.905-4.843-9.806l-1.006-1.166v-44.062h.32c.236 0 4.4 4.088 15.717 15.433l15.396 15.435.147 1.69c.268 3.096.902 5.367 2.215 7.939 2.115 4.145 5.287 7.299 9.38 9.325 2.024 1.002 2.95 1.343 4.942 1.82 1.14.272 1.719.315 4.304.317 2.663.003 3.135-.035 4.34-.333 4.296-1.066 7.277-2.734 10.326-5.78 3.098-3.094 4.91-6.439 5.847-10.79.364-1.694.364-6.11 0-7.824-1.166-5.48-4.404-10.382-8.82-13.352-3.167-2.129-6.522-3.303-10.327-3.614l-1.639-.134-15.404-15.439c-11.323-11.348-15.404-15.524-15.404-15.76v-.32h43.975l1.146 1.012c2.838 2.506 6.354 4.212 10.145 4.923 2.113.396 5.469.364 7.527-.071 4.274-.904 7.59-2.7 10.692-5.793 3.763-3.75 5.733-8.042 6.235-13.581l.081-.891-.08-.892c-.503-5.539-2.473-9.831-6.236-13.581-3.102-3.092-6.418-4.889-10.692-5.792-2.058-.436-5.414-.468-7.527-.072-3.79.71-7.307 2.417-10.145 4.924l-1.146 1.012h-43.975v-.321c0-.236 4.081-4.412 15.404-15.76l15.404-15.439 1.64-.133c3.804-.311 7.16-1.486 10.326-3.615 4.416-2.97 7.654-7.872 8.82-13.351.364-1.715.364-6.13 0-7.824-.936-4.352-2.749-7.697-5.847-10.79-3.05-3.046-6.03-4.715-10.327-5.78-1.204-.3-1.676-.336-4.339-.334-2.585.001-3.164.045-4.304.318-1.991.476-2.918.817-4.942 1.82-4.093 2.026-7.265 5.18-9.38 9.325-1.313 2.571-1.946 4.842-2.215 7.938l-.147 1.69-15.396 15.435c-11.318 11.345-15.481 15.434-15.717 15.434h-.32V66.044l1.006-1.167c2.5-2.901 4.028-5.994 4.843-9.806.455-2.128.459-5.842.01-7.94-1.407-6.56-5.77-12.128-11.696-14.928-2.714-1.283-5.735-1.994-8.526-2.033z" id="path6911" opacity=".94" fill="#feb03a" stroke="#000" stroke-width="32.884" stroke-miterlimit="4" stroke-dasharray="none" stroke-opacity="1" paint-order="markers stroke fill"/></g><path transform="translate(-553.236 3.443) scale(1.83298)" d="M787.85 184.456v101.6a30.624 30.624 0 0 1-30.691 30.692h-203.2a30.624 30.624 0 0 1-30.692-30.692v-101.6c95.53.051 179.947 0 264.583 0z" id="rect6944" opacity=".94" fill="#000" fill-opacity=".855" stroke="none" stroke-width="38.107" stroke-miterlimit="4" stroke-dasharray="none" stroke-opacity="1" paint-order="markers stroke fill"/><path id="path7013" d="M782.842 569.176c26.272-3.235 47.987-22.623 54.007-48.22 1.656-7.039 1.575-4.932 1.667-43.237l.084-34.94h-63.285v37.339h26.222l-.107 14.974c-.09 12.588-.174 15.242-.523 16.66-1.89 7.678-6.294 13.643-12.77 17.294-10.372 5.847-23.154 4.097-31.507-4.314-3.383-3.405-5.595-7.28-6.938-12.15l-.694-2.516-.079-46.803c-.082-48.748-.062-49.833 1.016-53.728 4.195-15.15 20.903-23.17 35.559-17.07 5.317 2.214 10.136 6.695 12.913 12.007 1.725 3.3 2.597 6.296 2.98 10.238l.183 1.88h37.091l-.177-3.177c-1.522-27.391-20.19-50.689-46.359-57.86-6.441-1.764-9.099-2.092-16.94-2.092-7.842 0-10.499.328-16.94 2.093-25.302 6.932-43.751 29.083-46.193 55.46-.357 3.847-.357 96.39 0 100.478 1.358 15.588 7.966 29.442 19.242 40.342 10.458 10.109 23.324 16.047 38.057 17.564 2.615.27 10.565.139 13.491-.222zm-115.812-.056c.074-.25 1.488-6.988 3.14-14.974 4.966-23.999 16.396-79.19 21.238-102.552 2.498-12.05 8.045-38.83 12.327-59.508 4.283-20.679 7.849-37.861 7.925-38.183l.138-.585-18.595.066-18.594.067-12.752 61.583c-7.014 33.87-12.902 62.283-13.084 63.138-.276 1.291-.362 1.446-.506.908-.095-.357-6-28.797-13.12-63.201L622.2 353.326l-18.622-.003c-17.615-.003-18.614.022-18.484.451.075.25 3.288 15.681 7.138 34.292 6.57 31.753 15.476 74.775 26.624 128.611 2.643 12.764 6.144 29.683 7.781 37.598 1.637 7.915 3.037 14.595 3.112 14.845.127.426 1.241.453 18.64.453s18.513-.027 18.64-.453zm-137.932.062c11.038-1.291 21.614-5.539 30.547-12.269 20.969-15.797 30.015-42.518 22.972-67.85-2.333-8.39-6.887-16.907-12.785-23.91-10.336-12.272-25.167-19.398-45.775-21.994-4.782-.602-10.639-1.833-12.935-2.718-2.628-1.014-4.813-2.354-6.937-4.256-8.661-7.755-11.23-20.188-6.332-30.646 6.638-14.172 23.892-19.408 37.402-11.35 2.298 1.37 6.546 5.323 7.929 7.377 2.368 3.518 4.001 7.971 4.501 12.27l.32 2.754h36.986v-1.64c0-6.57-1.868-15.3-4.838-22.605-7.275-17.899-23.418-32.038-42.203-36.966-6.194-1.625-8.693-1.919-16.357-1.919-6.17 0-7.396.071-10.328.597-11.174 2.004-21.07 6.464-29.606 13.345-2.508 2.021-7.357 6.89-9.347 9.386-19.643 24.63-18.58 59.466 2.518 82.483 3.59 3.916 5.665 5.71 9.696 8.384 8.111 5.381 19.28 9.317 33.178 11.69 12.854 2.197 17.713 3.98 22.07 8.105 8.441 7.99 10.492 20.364 5.11 30.836-3.416 6.645-9.2 11.307-16.549 13.34-3.471.96-8.179 1.107-11.752.368-7.469-1.545-13.59-5.835-17.42-12.208-2.149-3.574-3.3-7.171-3.755-11.73l-.174-1.75h-37.109l.179 3.047c.962 16.386 7.58 31.002 19.115 42.21 4.438 4.313 8.347 7.243 13.577 10.176 6.401 3.59 15.036 6.448 22.04 7.295 1.284.155 2.626.324 2.983.376 1.834.265 10.096.12 13.079-.228z" fill="#fff" fill-opacity="1" stroke-width=".259"/></g></g></g></symbol><symbol id="flex" viewBox="0 0 52.917 52.917"><g transform="translate(0 -244.083)" id="layer1"><g transform="translate(165.1 434.975)" id="g1687" fill-opacity="1" stroke="none" stroke-miterlimit="4" stroke-dasharray="none" stroke-opacity="1"><circle id="path1525-1" cx="-138.642" cy="-164.433" r="26.458" opacity=".94" fill="#000" stroke-width="2.646" stroke-linejoin="miter" paint-order="normal"/><g id="g1588" transform="translate(-44.875 -65.27) scale(.67442)" fill="#fff" stroke-width=".794"><path id="path1582" d="M-153.988-163.904v-11.377h8.732v22.754h-8.731z"/><path id="path1580" d="M-143.404-157.686v-5.16h8.731v10.319h-8.731z"/><path id="path1578" d="M-132.82-157.686v-5.16h8.73v10.319h-8.731z"/><path id="path1574" d="M-143.404-169.986v-5.295h19.326l-.072 5.225-.072 5.226-9.591.07-9.591.069z"/></g><g id="g1572" transform="translate(258.221 -79.89) scale(1.0277)" fill="#fff" stroke-width=".794"><path id="path1552" transform="scale(.26458)" d="M-1455.66-294.754c-3.29.008-6.587.53-8.572 1.56-4.483 2.328-9.197 8.114-9.971 12.239-2.185 11.648 1.94 20.2 11.666 24.193 4.624 1.183 8.554 2.349 15.008.334 5.405-2.053 8.934-4.63 8.841-6.457-.03-.602-1.441-2.193-3.136-3.535-2.986-2.363-3.174-2.387-6.026-.75-4.02 2.307-9.303 2.168-11.78-.31-1.1-1.1-2-2.45-2-3 0-.614 4.832-1 12.5-1h12.5v-4.032c0-7.36-4.187-14.428-10.5-17.724-1.956-1.021-5.24-1.526-8.53-1.518zm.312 9.873c.686.03 1.356.194 1.967.516 2.535 1.335 3.712 2.795 3.734 4.635.011.862-1.842 1.25-5.984 1.25-4.141 0-5.997-.388-5.986-1.25.036-2.905 3.3-5.282 6.27-5.15z" stroke-width="3"/><path id="path1548" d="M-397.571-71.432v-3.572h2.116v-2.646h-1.058c-.862 0-1.058-.093-1.058-.5 0-.607.609-.88 1.476-.662.615.155.64.107.64-1.19v-1.352h-1.948c-2.388 0-3.196.503-3.64 2.269-.218.865-.063 1.17-.57 1.182-.428.01-.72.195-.72 1.444 0 1.278.064 1.426.528 1.455.574.035.53.176.53 3.572v3.572h3.704z" stroke-width=".794"/><path id="path1546" d="M-390.754-74.541l-.07-6.68-1.786-.08-1.786-.077v13.518h3.713z" stroke-width=".794"/><path id="path1542" d="M-376.047-69.104l.751-1.243.703 1.242.702 1.242 1.949.001 1.948.002-.473-.728c-.26-.4-1.006-1.532-1.657-2.514l-1.184-1.787 1.56-2.314c.859-1.273 1.6-2.404 1.65-2.513.048-.11-.75-.199-1.775-.199h-1.863l-.698 1.191c-.384.655-.8 1.128-.925 1.05-.125-.077-.493-.612-.817-1.19l-.59-1.05h-1.804c-.992 0-1.803.089-1.803.198 0 .109.707 1.26 1.57 2.556l1.57 2.358-1.722 2.47-1.722 2.472h3.88z" stroke-width=".794"/></g></g></g></symbol><symbol id="git" viewBox="0 0 52.917 52.917"><g transform="translate(0 -244.083)" id="layer1"><g transform="translate(-415.1 13.807)" id="g6328"><g id="g6363"><g id="g6373"><g id="g6383" fill-opacity="1" stroke-miterlimit="4" stroke-dasharray="none" stroke-opacity="1"><circle r="26.327" cy="256.735" cx="441.559" id="path6319" fill="#f05334" stroke="none" stroke-width=".263"/><path d="M440.401 276.257c-.191-.1-4.364-4.19-9.274-9.09-6.352-6.34-8.994-9.043-9.162-9.376-.344-.608-.381-1.675-.01-2.236.13-.246 2.697-2.89 6.31-6.498l6.089-6.082 2.237 2.235c1.573 1.571 2.217 2.281 2.168 2.39-.131.301-.161 1.412-.05 1.828.175.646.727 1.396 1.282 1.741l.498.31v10.835l-.472.298c-1.184.748-1.7 2.265-1.236 3.63.226.661.871 1.358 1.578 1.704.76.372 1.797.399 2.537.066 1.413-.636 2.151-2.265 1.694-3.737-.152-.487-.321-.741-.846-1.269l-.655-.66V251.71l2.01 2.008 2.01 2.008-.15.583c-.13.514-.128.661.015 1.242.789 3.196 5.131 3.225 5.947.04.169-.659.098-1.49-.172-2.01-.27-.52-.828-1.088-1.356-1.38-.511-.284-.642-.31-1.57-.31h-1.014l-2.113-2.111-2.114-2.112.102-.564c.36-1.988-1.538-3.912-3.47-3.517l-.505.104-2.266-2.268-2.267-2.269 1.923-1.93c1.057-1.063 2.11-2.03 2.338-2.15.538-.352 1.643-.36 2.236.012.67.345 18.188 17.87 18.515 18.521.272.544.316 1.39.107 2.028-.112.342-1.747 2.029-9.145 9.439-6.091 6.1-9.153 8.957-9.425 9.221-.55.538-1.61.45-2.324-.038z" id="path6321" fill="#f05033" stroke="none" stroke-width=".221"/><path d="M440.401 276.257c-.191-.1-4.364-4.19-9.274-9.09-6.352-6.34-8.994-9.043-9.162-9.376-.344-.608-.381-1.675-.01-2.236.13-.246 2.697-2.89 6.31-6.498l9.834-9.834c1.057-1.062 2.11-2.03 2.338-2.15.537-.351 1.643-.36 2.236.013.67.345 18.188 17.87 18.515 18.521.272.544.316 1.39.107 2.028-.112.342-1.747 2.029-9.145 9.439-6.091 6.1-9.153 8.957-9.425 9.221-.55.538-1.61.45-2.324-.038z" id="path6321-5" fill="#fff" stroke="none" stroke-width=".221"/><path id="path6345" d="M440.401 276.257c-.191-.1-4.364-4.19-9.274-9.09-6.352-6.34-8.994-9.043-9.162-9.376-.344-.608-.381-1.675-.01-2.236.13-.246 2.697-2.89 6.31-6.498l6.089-6.082 2.237 2.235c1.573 1.571 2.217 2.281 2.168 2.39-.131.301-.161 1.412-.05 1.828.175.646.727 1.396 1.282 1.741l.498.31v10.835l-.472.298c-1.184.748-1.7 2.265-1.236 3.63.226.661.871 1.358 1.578 1.704.76.372 1.797.399 2.537.066 1.413-.636 2.151-2.265 1.694-3.737-.152-.487-.321-.741-.846-1.269l-.655-.66V251.71l2.01 2.008 2.01 2.008-.15.583c-.13.514-.128.661.015 1.242.789 3.196 5.131 3.225 5.947.04.169-.659.098-1.49-.172-2.01-.27-.52-.828-1.088-1.356-1.38-.511-.284-.642-.31-1.57-.31h-1.014l-2.113-2.111-2.114-2.112.102-.564c.36-1.988-1.538-3.912-3.47-3.517l-.505.104-2.266-2.268-2.267-2.269 1.923-1.93c1.057-1.063 2.11-2.03 2.338-2.15.538-.352 1.643-.36 2.236.012.67.345 18.188 17.87 18.515 18.521.272.544.316 1.39.107 2.028-.112.342-1.747 2.029-9.145 9.439-6.091 6.1-9.153 8.957-9.425 9.221-.55.538-1.61.45-2.324-.038z" fill="#f05033" stroke="none" stroke-width=".221"/><path id="path6347" d="M440.401 276.257c-.191-.1-4.364-4.19-9.274-9.09-6.352-6.34-8.994-9.043-9.162-9.376-.344-.608-.381-1.675-.01-2.236.13-.246 2.697-2.89 6.31-6.498l9.834-9.834c1.057-1.062 2.11-2.03 2.338-2.15.537-.351 1.643-.36 2.236.013.67.345 18.188 17.87 18.515 18.521.272.544.316 1.39.107 2.028-.112.342-1.747 2.029-9.145 9.439-6.091 6.1-9.153 8.957-9.425 9.221-.55.538-1.61.45-2.324-.038z" fill="#fff" stroke="none" stroke-width=".221"/><path d="M440.401 276.257c-.191-.1-4.364-4.19-9.274-9.09-6.352-6.34-8.994-9.043-9.162-9.376-.344-.608-.381-1.675-.01-2.236.13-.246 2.697-2.89 6.31-6.498l6.089-6.082 2.237 2.235c1.573 1.571 2.217 2.281 2.168 2.39-.131.301-.161 1.412-.05 1.828.175.646.727 1.396 1.282 1.741l.498.31v10.835l-.472.298c-1.184.748-1.7 2.265-1.236 3.63.226.661.871 1.358 1.578 1.704.76.372 1.797.399 2.537.066 1.413-.636 2.151-2.265 1.694-3.737-.152-.487-.321-.741-.846-1.269l-.655-.66V251.71l2.01 2.008 2.01 2.008-.15.583c-.13.514-.128.661.015 1.242.789 3.196 5.131 3.225 5.947.04.169-.659.098-1.49-.172-2.01-.27-.52-.828-1.088-1.356-1.38-.511-.284-.642-.31-1.57-.31h-1.014l-2.113-2.111-2.114-2.112.102-.564c.36-1.988-1.538-3.912-3.47-3.517l-.505.104-2.266-2.268-2.267-2.269 1.923-1.93c1.057-1.063 2.11-2.03 2.338-2.15.538-.352 1.643-.36 2.236.012.67.345 18.188 17.87 18.515 18.521.272.544.316 1.39.107 2.028-.112.342-1.747 2.029-9.145 9.439-6.091 6.1-9.153 8.957-9.425 9.221-.55.538-1.61.45-2.324-.038z" id="path6349" fill="#f05033" stroke="none" stroke-width=".221"/><path d="M440.395 276.257c-.191-.1-4.365-4.19-9.274-9.09-6.353-6.34-8.994-9.043-9.163-9.376-.344-.608-.38-1.675-.009-2.236.13-.246 2.697-2.89 6.31-6.498l9.833-9.834c1.058-1.062 2.11-2.03 2.339-2.15.537-.351 1.643-.36 2.236.013.67.345 18.188 17.87 18.514 18.521.272.544.317 1.39.107 2.028-.112.342-1.746 2.029-9.145 9.439-6.09 6.1-9.152 8.957-9.424 9.221-.551.538-1.611.45-2.324-.038z" id="path6351" fill="#fff" stroke="#fff" stroke-width="1.263"/><path id="path6353" d="M440.401 276.257c-.191-.1-4.364-4.19-9.274-9.09-6.352-6.34-8.994-9.043-9.162-9.376-.344-.608-.381-1.675-.01-2.236.13-.246 2.697-2.89 6.31-6.498l6.089-6.082 2.237 2.235c1.573 1.571 2.217 2.281 2.168 2.39-.131.301-.161 1.412-.05 1.828.175.646.727 1.396 1.282 1.741l.498.31v10.835l-.472.298c-1.184.748-1.7 2.265-1.236 3.63.226.661.871 1.358 1.578 1.704.76.372 1.797.399 2.537.066 1.413-.636 2.151-2.265 1.694-3.737-.152-.487-.321-.741-.846-1.269l-.655-.66V251.71l2.01 2.008 2.01 2.008-.15.583c-.13.514-.128.661.015 1.242.789 3.196 5.131 3.225 5.947.04.169-.659.098-1.49-.172-2.01-.27-.52-.828-1.088-1.356-1.38-.511-.284-.642-.31-1.57-.31h-1.014l-2.113-2.111-2.114-2.112.102-.564c.36-1.988-1.538-3.912-3.47-3.517l-.505.104-2.266-2.268-2.267-2.269 1.923-1.93c1.057-1.063 2.11-2.03 2.338-2.15.538-.352 1.643-.36 2.236.012.67.345 18.188 17.87 18.515 18.521.272.544.316 1.39.107 2.028-.112.342-1.747 2.029-9.145 9.439-6.091 6.1-9.153 8.957-9.425 9.221-.55.538-1.61.45-2.324-.038z" fill="#f05033" stroke="none" stroke-width=".221"/></g></g></g></g></g></symbol><symbol id="es6" viewBox="0 0 52.917 52.917"><g transform="translate(0 -244.083)" id="layer1"><g transform="translate(-215.446 185.964)" id="g6283" fill-opacity="1"><circle id="path6274" cx="241.905" cy="84.577" r="26.458" fill="#f7df1e" stroke="none" stroke-width=".794" stroke-miterlimit="4" stroke-dasharray="none" stroke-opacity="1"/><path id="path6279" d="M253.616 93.113c-2.195-.46-3.906-1.748-4.738-3.565-.41-.896-.463-1.233-.39-2.503.12-2.062.722-3.222 3.877-7.467l2.643-3.557 2.245-.007c1.746-.005 2.214.046 2.104.23-.384.645-3.1 4.144-3.8 4.896l-.797.855h1.55c1.313 0 1.716.081 2.635.533 1.876.921 2.819 2.555 2.803 4.86-.013 2.04-.72 3.44-2.323 4.602-1.352.979-4.027 1.496-5.809 1.123zm2.738-3.59a2.353 2.353 0 0 0 1.039-3.383c-.55-.902-1.181-1.236-2.32-1.227-1.174.009-1.806.398-2.318 1.427-.604 1.216-.018 2.706 1.287 3.274.8.348 1.397.325 2.312-.09zm-17.403 3.3c-1.496-.42-2.563-1.108-3.445-2.224-.767-.97-.769-.978-.376-1.273.218-.164.87-.553 1.448-.865l1.052-.568.486.62c.77.986 1.824 1.427 3.172 1.33.947-.069 1.211-.169 1.583-.601 1.008-1.172.278-2.2-2.363-3.332-3.418-1.463-4.608-2.842-4.6-5.33.006-1.533.423-2.519 1.463-3.456 1.001-.903 1.924-1.206 3.672-1.204 1.814.002 3.34.675 4.19 1.848.306.422.556.82.556.886 0 .064-.598.487-1.33.938l-1.328.82-.493-.585c-1.125-1.338-3.312-.977-3.312.547 0 .864.547 1.323 2.914 2.447 1.272.604 2.629 1.375 3.013 1.713 1.028.903 1.54 2.092 1.553 3.615.02 2.172-1.1 3.799-3.097 4.5-1.265.443-3.506.526-4.758.174zm-16.835-.132c-.05-.132-.07-3.919-.043-8.415l.05-8.173 5.568-.05 5.568-.051-.055 1.57-.056 1.572-3.754.052-3.754.051v3.604h6.653v2.851h-6.653v3.984l3.944.052 3.945.051v3.041l-5.66.05c-4.426.04-5.68-.001-5.753-.19z" fill="#282828" stroke-width=".19"/></g></g></symbol><symbol id="resp" viewBox="0 0 52.917 52.917"><g transform="translate(0 -244.083)" id="layer1" fill-opacity="1"><circle r="26.458" cy="270.542" cx="26.458" id="path6238" fill="#0656ff" stroke="none" stroke-width=".794" stroke-miterlimit="4" stroke-dasharray="none" stroke-opacity="1"/><path d="M15.929 283.511v-.656h2.463v-2.589l-4.535-.01-4.534-.008-.286-.09c-.909-.285-1.471-.853-1.689-1.706l-.072-.283v-19.16l.072-.273c.208-.79.719-1.358 1.465-1.628.581-.21-.317-.197 12.202-.187l11.371.008.255.074c.779.227 1.302.634 1.589 1.237.264.555.288.827.276 3.103l-.009 1.76-.614.008-.614.01-.01-1.96c-.01-1.957-.01-1.96-.083-2.141a1.231 1.231 0 0 0-.705-.715c-.148-.064-.22-.064-11.52-.073-11.237-.008-11.375-.008-11.58.055a1.18 1.18 0 0 0-.72.578c-.148.288-.143.004-.144 7.668v7.238H27.06v1.311H8.504l.01 1.48c.009 1.397.013 1.487.073 1.629.148.345.366.55.748.705l.18.073 8.772.008 8.773.008v1.279h-3.711v2.59h2.495v1.312h-9.916zm13.307.605a1.242 1.242 0 0 1-.813-.685l-.1-.208V265.31l.075-.185a1.41 1.41 0 0 1 .59-.638c.095-.047.265-.1.378-.118.284-.046 11.226-.046 11.51 0 .113.018.283.071.378.118.227.111.493.398.59.638l.074.185.01 2.615.008 2.615h-1.249v-4.318H29.555v15.45h7.421v2.495l-3.782-.003c-3.224-.002-3.808-.009-3.958-.05zm6.166-.65c.232-.118.34-.313.32-.58-.017-.24-.128-.413-.329-.51-.294-.143-.673-.024-.815.254-.119.232-.063.584.116.741a.671.671 0 0 0 .708.096zm3.227.654a.605.605 0 0 1-.344-.312c-.06-.115-.061-.279-.061-5.835v-5.717l.068-.142a.57.57 0 0 1 .214-.234l.146-.092h3.258c2.663 0 3.276.008 3.36.043a.72.72 0 0 1 .343.396c.025.086.032 1.778.025 5.82l-.01 5.699-.096.138a.728.728 0 0 1-.239.211l-.142.072-1.857-.002-1.856-.002.138-.067a.619.619 0 0 0 .048-1.085.66.66 0 0 0-.628 0 .619.619 0 0 0 .048 1.085l.138.067h-1.216c-.948 0-1.242-.01-1.338-.043zm5.768-6.783v-4.334l-2.47.008-2.472.008-.008 4.326-.008 4.327h4.959zm-23.75.292a.815.815 0 0 1-.213-.17.656.656 0 0 1 .089-.958c.15-.114.456-.143.62-.06.31.161.439.545.291.865-.139.3-.5.449-.787.323z" id="path6240" fill="#fff" stroke-width=".032"/></g></symbol><symbol id="sass" viewBox="0 0 52.917 52.917"><g transform="translate(0 -244.083)" id="layer1"><g transform="translate(-13.178 304.364)" id="g6158" fill-opacity="1" stroke-miterlimit="4" stroke-dasharray="none" stroke-opacity="1"><path d="M66.095-33.823A26.458 26.458 0 0 1 39.636-7.364a26.458 26.458 0 0 1-26.458-26.459A26.458 26.458 0 0 1 39.636-60.28a26.458 26.458 0 0 1 26.459 26.458z" id="path4575" fill="#cc6698" stroke="none" stroke-width=".476"/><g id="g6149" transform="translate(0 .323)" stroke-width=".479"><path d="M22.132-18.16c-.488-.05-.977-.164-1.206-.28-.432-.221-.886-.83-1.085-1.455-.395-1.244-.092-2.76.782-3.916.91-1.202 2.858-2.639 5.368-3.957.34-.179.625-.358.633-.399.016-.093-.51-.513-1.585-1.261-2.777-1.932-3.529-2.516-4.529-3.52-1.212-1.215-1.816-2.161-2.128-3.335-.246-.921-.053-2.03.582-3.34.512-1.058 1.263-2.085 2.31-3.16 1.728-1.775 3.821-3.238 6.647-4.646 3.488-1.738 6.081-2.528 8.864-2.699 2.616-.16 5.064.407 6.565 1.524 1.223.91 1.779 2.046 1.784 3.646.002 1.078-.22 1.998-.75 3.097-.848 1.759-2.283 3.316-4.085 4.434-1.38.856-3.321 1.502-5.446 1.815-.816.12-2.716.118-3.376-.002-1.128-.207-1.976-.63-2.679-1.34-.394-.397-.609-.788-.613-1.114-.004-.334.101-.314.543.102.821.773 1.909 1.13 3.433 1.13 2.169 0 4.82-.816 6.76-2.08 1.737-1.13 3.082-2.628 3.675-4.088.45-1.11.49-2.061.12-2.87-.078-.17-.238-.378-.444-.58-1.328-1.305-4.46-1.604-7.85-.749-1.537.388-2.832.878-4.5 1.701-5.345 2.64-8.256 5.484-8.523 8.329-.079.836.058 1.53.452 2.291.527 1.02 1.32 1.823 3.378 3.423 1.496 1.163 1.906 1.503 2.465 2.05.464.451.465.452.6.384.075-.036 1.05-.57 2.167-1.184 1.824-1.002 2.044-1.135 2.159-1.31.07-.107.376-.442.68-.745 1.14-1.135 2.363-1.736 3.21-1.578.418.077.639.247.844.649l.167.327.002.825c.002.454.016.838.028.852.016.016.132-.028.26-.097.263-.142.466-.135.78.024.225.114.333.26.333.448 0 .079-.16.744-.356 1.479-.573 2.147-.788 3.161-.788 3.72 0 .314.06.546.14.546.208 0 .691-.98 2.6-5.269 1.33-2.984 1.533-3.48 1.717-4.174.102-.384.2-.658.249-.695.175-.131.577-.21 1.202-.234.72-.028.97.016 1.143.2l.112.12-.22.702c-.284.908-.32 1.103-.32 1.717 0 .899.148 1.542.531 2.309.23.46.186.505 1.118-1.118.638-1.11 1.278-2.332 1.52-2.896a8.92 8.92 0 0 0 .334-1.025c.227-.878.271-.987.44-1.085.388-.227 1.792-.302 2.143-.115.22.118.231.243.066.758-.252.788-.343 1.193-.37 1.657-.033.554.081 1.453.24 1.875.145.383.669 1.426.75 1.494.05.04.174.008.512-.134 2.52-1.05 5.393-.897 7.3.389.392.263.997.847 1.257 1.212.493.692.746 1.44.75 2.215.002.576-.052.85-.26 1.285-.207.437-.797 1.023-1.266 1.26-.648.325-.976.197-.439-.172.899-.619 1.325-1.437 1.192-2.291-.165-1.065-.93-2.018-2.086-2.601-1.323-.667-3.57-.894-5.228-.528-.533.117-1.144.318-1.21.397-.035.041-.015.166.067.42.17.538.23.955.203 1.448-.02.385-.046.491-.198.812-.487 1.026-1.56 1.863-3.015 2.35-.624.21-1.072.182-1.364-.083-.234-.211-.343-.675-.27-1.147.164-1.05.767-2.07 1.867-3.159.309-.306.562-.587.562-.625 0-.036-.138-.355-.307-.706-.311-.648-.52-1.283-.71-2.155-.076-.351-.126-.487-.182-.498-.056-.008-.18.182-.457.715a34.605 34.605 0 0 1-1.693 2.888l-.48.73.11.294c.281.75.348 1.077.352 1.724.004.558-.008.657-.127 1-.246.717-.77 1.327-1.494 1.741a7.267 7.267 0 0 1-1.595.669c-.477.124-1.397.176-1.69.096-.254-.068-.494-.33-.494-.537 0-.412.11-.574 1.594-2.35 1.193-1.428 1.569-1.94 1.525-2.078-.016-.056-.18-.404-.361-.774-.401-.82-.645-1.577-.88-2.737-.053-.261-.18-.073-.543.801a56.74 56.74 0 0 1-2.635 5.554c-.791 1.468-.972 1.757-1.357 2.168-.543.58-.999.745-1.436.522-.545-.278-.754-.992-.7-2.396.024-.636.016-.798-.032-.798-.033 0-.178.274-.32.608-.576 1.36-1.117 2.39-1.452 2.762-.316.351-.62.49-1.075.49-.52 0-.753-.094-1.06-.427-.438-.471-.831-1.359-1.043-2.352-.204-.95-.107-2.544.228-3.749.18-.651.188-.714.087-.714-.046 0-.472.222-.946.494-1.264.725-1.405.81-1.428.869-.013.028.05.243.137.476.271.722.334 1.15.33 2.258-.002.82-.02 1.055-.107 1.465-.423 1.964-1.46 3.483-3.105 4.55-.505.327-.76.455-1.336.67-.834.311-1.894.453-2.738.366z" id="path4573" fill="#fff" stroke="none"/><path d="M23.885-20.476c1.564-.356 3.105-1.788 3.704-3.442.19-.53.282-.97.317-1.535.045-.719-.122-1.813-.28-1.844-.16-.032-2.186 1.284-3.093 2.007-.279.222-.66.549-.849.726-1.25 1.18-1.859 2.919-1.312 3.747.252.382.795.504 1.513.34z" id="path4571" fill="#cc6698" stroke="#fdfdfd"/><path d="M42.782-24.542c.27-.137.854-.615 1.115-.91.279-.318.54-.834.606-1.2.097-.533-.032-.499-.54.144-.43.543-.686.842-1.29 1.505-.388.425-.434.555-.197.555a.859.859 0 0 0 .306-.093z" id="path4569" fill="#cc6698" stroke="none"/><path d="M33.687-24.578c.22-.154.333-.323.662-.99.35-.71 1.169-2.772 1.57-3.954.325-.96.573-1.883.607-2.261.024-.275.016-.324-.074-.419-.26-.273-.919-.012-1.523.603-.507.516-1.295 1.907-1.595 2.816-.521 1.577-.533 3.606-.02 4.152.147.157.213.166.375.053z" id="path4567" fill="#cc6698" stroke="#fdfdfd"/><path d="M48.9-26.018c.62-.3 1.125-.844 1.297-1.4.158-.51.119-1.485-.061-1.544-.086-.028-.506.385-.836.82-.447.592-.893 1.591-.893 2.002 0 .316.06.33.494.122z" id="path3750" fill="#cc6698" stroke="none"/></g></g></g></symbol><symbol id="js" viewBox="0 0 52.917 52.917"><g transform="translate(0 -244.083)" id="layer1"><g transform="translate(-186.944 197.237)" id="g6200"><g id="g6289" fill-opacity="1" stroke="none"><circle r="26.458" cy="73.305" cx="213.402" id="path6112" fill="#f7df1e" stroke-width=".133" stroke-miterlimit="4" stroke-dasharray="none" stroke-opacity="1"/><g id="g6194" transform="translate(-272.583 -297.475) scale(2.90945)" fill="#282828" stroke-width=".015"><path id="path6190" d="M169.499 123.243a4.34 4.34 0 0 1 .418.015c.671.069 1.204.331 1.615.796.107.122.29.378.34.474l.023.045-.63.405a43.39 43.39 0 0 1-.643.41c-.007.002-.039-.039-.071-.09-.193-.305-.392-.476-.658-.564-.108-.036-.144-.04-.345-.04-.253-.002-.32.01-.476.092-.35.18-.488.635-.304 1.008.128.26.368.417 1.17.76 1.013.435 1.444.688 1.825 1.073.392.395.578.819.63 1.436.029.323-.011.699-.103.98-.299.913-1.135 1.478-2.337 1.58a5.021 5.021 0 0 1-.631.006 5.128 5.128 0 0 1-.548-.074c-.93-.18-1.676-.694-2.133-1.466a.608.608 0 0 1-.08-.163c.007-.005.296-.174.643-.375.347-.2.645-.374.663-.386.03-.02.035-.018.056.023.047.09.253.352.368.467.25.25.528.402.873.477.195.042.636.038.814-.006.338-.085.565-.243.68-.473a.707.707 0 0 0 .079-.402.737.737 0 0 0-.247-.528c-.195-.185-.385-.286-1.22-.647-.652-.281-.968-.45-1.27-.676-.484-.364-.78-.818-.892-1.371-.288-1.421.542-2.573 1.99-2.763.1-.013.25-.021.4-.022z"/><path id="path6192" d="M163.938 123.333h1.652v3.025c0 3.217 0 3.145-.07 3.493a2.56 2.56 0 0 1-.391.904c-.107.148-.32.355-.472.456-.3.202-.658.33-1.082.39-.2.028-.596.04-.782.023a2.856 2.856 0 0 1-1.041-.28 2.439 2.439 0 0 1-.971-.86c-.123-.182-.216-.36-.198-.378.017-.017 1.33-.812 1.333-.807.186.324.267.439.406.577a.91.91 0 0 0 .443.255 1.7 1.7 0 0 0 .635-.023c.267-.086.425-.282.504-.625.022-.094.025-.416.029-3.128z"/></g></g></g></g></symbol><symbol id="gulp" viewBox="0 0 52.917 52.917"><g transform="translate(0 -244.083)" id="layer1"><g transform="translate(-236.535 386.206)" id="g6217"><g id="g6249" fill-opacity="1"><circle r="26.458" cy="-115.664" cx="262.993" id="path6112-7" fill="#eb4a4b" stroke="none" stroke-width=".133" stroke-miterlimit="4" stroke-dasharray="none" stroke-opacity="1"/><path id="path6213" d="M261.682-93.192c-2.072-.15-3.767-.618-4.091-1.13-.077-.123-.149-.582-.184-1.181-.031-.54-.094-1.442-.139-2.006-.045-.564-.13-1.708-.19-2.542-.109-1.503-.113-1.52-.433-2.05a53.297 53.297 0 0 1-.61-1.04l-.286-.503.56.174c1.982.617 3.637.825 6.577.825 2.933 0 4.651-.21 6.487-.793.356-.113.647-.186.647-.163 0 .023-.248.47-.55.994l-.55.951-.067 1.026a395.46 395.46 0 0 0-.165 2.764c-.207 3.67-.186 3.487-.433 3.717-.278.257-1.382.612-2.435.783-.8.129-3.302.234-4.138.174zm-.223-9.988c-1.89-.123-3.672-.426-5.035-.857-.967-.305-1.294-.542-1.298-.936-.001-.138-.04-.63-.085-1.097a580.41 580.41 0 0 1-.359-3.79 32.108 32.108 0 0 0-.14-1.31l-.052-.33.297.085c.57.166 1.346-.161 2.174-.914.286-.26.492-.4.458-.31-.206.549-.507 1.752-.507 2.029 0 .371.176.569.433.487.284-.09.405-.366.904-2.055.26-.883.607-1.953.77-2.378.376-.978.472-1.674.26-1.886-.402-.401-.738-.09-1.11 1.029-.225.675-.38.962-.77 1.436-.509.616-1.266 1.27-1.635 1.41-1.038.395-.952-1.567.168-3.802.614-1.226 1.26-2.083 1.852-2.46.685-.433.972-.354 1.47.409.466.715.957.65.957-.129 0-.352-.051-.478-.322-.794-.653-.764-1.529-.938-2.447-.489-1.034.506-2.32 2.138-2.993 3.797-.164.405-.3.689-.3.632 0-.058-.08-.8-.178-1.65-.097-.85-.298-2.689-.448-4.087-.15-1.397-.328-3.042-.397-3.654-.07-.613-.115-1.125-.101-1.138.013-.014.197.036.409.11.833.295 2.533.556 4.994.77 1.828.158 7.64.13 9.583-.047 2.425-.22 3.901-.472 4.806-.82.154-.058.162-.025.11.463a24929.962 24929.962 0 0 1-.59 5.475 2032.515 2032.515 0 0 1-.586 5.44c-.05.48-.065.502-.735 1.08-.714.616-1.323 1.06-1.455 1.06-.172 0-.046-.221.543-.949 1.001-1.238 1.21-1.883.75-2.31-.48-.445-1.512-.206-2.127.492l-.179.202-.044-.345c-.04-.313-.07-.345-.309-.345-.321 0-.568.328-.799 1.061-.128.409-.257.59-.706.996-.673.61-1.28 1.02-1.51 1.02-.144 0-.163-.042-.113-.246.073-.292 1.508-3.885 2.06-5.153.234-.54.37-.97.34-1.082-.094-.361-.635-.425-.897-.106-.077.094-2.2 5.403-2.463 6.159-.058.166-.68.517-.917.517-.246 0-.111-.723.352-1.888.33-.83.398-1.085.332-1.259-.204-.536-.7-.32-.98.426-.59 1.577-1.43 2.632-2.095 2.632-.334 0-.075-1.084.516-2.16.178-.323.323-.666.323-.763 0-.255-.212-.393-.552-.36-.274.026-.322.082-.667.786-.465.946-.921 2.32-.921 2.77 0 1.072 1.452 1.158 2.384.14l.338-.369-.001.387c-.001.304.045.425.218.565.263.212.56.175 1.183-.151.507-.266.483-.264.54-.044.124.473 1.01.412 1.754-.12.223-.159.451-.317.507-.35.056-.035-.18.544-.522 1.285-.83 1.79-.887 2.307-.253 2.307.37 0 .608-.334.998-1.395 1.175-3.203 2.204-4.758 3.149-4.758.125 0 .227.037.227.082 0 .045-.183.315-.406.602-1.303 1.672-1.384 1.818-1.233 2.247.115.327.444.474.942.422.531-.055.991-.291 1.672-.858.297-.247.54-.419.54-.38 0 .038-.038.391-.083.783-.288 2.474-.467 4.04-.632 5.529-.174 1.567-.205 1.71-.408 1.893-.4.362-2.375.883-4.317 1.139-.96.126-3.742.229-4.635.17zm-2.675-22.425c-3.296-.249-5.364-.635-5.762-1.075-.163-.18-.161-.187.069-.386.752-.647 4.735-1.113 9.535-1.116l2.728-.002.147-.602c.082-.331.33-1.304.553-2.163l.404-1.56.694-.713a354.61 354.61 0 0 0 2.465-2.586l2.014-2.13c.193-.204.292-.245.478-.198.288.072.906.618.968.856.035.135-.531.784-2.498 2.861l-2.544 2.686-.433 1.752a72.869 72.869 0 0 0-.434 1.812c-.001.033.269.084.6.114 2.453.222 3.935.469 4.747.791.412.164.492.231.492.417 0 .78-4.413 1.35-10.272 1.325-1.658-.007-3.436-.044-3.95-.083zm7.874-.534c.361-.1.523-.32.326-.442-.07-.044-.193-.022-.3.053-.257.18-1.508.175-1.69-.007-.162-.162-.433-.078-.395.123.06.314 1.312.48 2.06.272z" fill="#fff" stroke-width=".089"/></g></g></g></symbol></svg>