<svg xmlns="http://www.w3.org/2000/svg"><symbol id="float" viewBox="0 0 52.917 52.917"><g transform="translate(0 -244.083)" id="layer1"><g transform="translate(168.276 365.602)" id="g1674"><circle id="path1525" cx="-141.818" cy="-95.061" r="25.198" opacity=".94" fill="#f2f5fa" fill-opacity="1" stroke="#068dde" stroke-width="2.52" stroke-linejoin="miter" stroke-miterlimit="4" stroke-dasharray="none" stroke-opacity="1" paint-order="normal"/><g id="g1656" transform="translate(36.964 88.024) scale(.5289)"><path id="path1630" d="M-373.084-337.465c-.995-1.06-.976-2.392.05-3.355.783-.736 1.108-.767 8.052-.767 7.107 0 7.25.014 8.003.816.995 1.06.975 2.393-.05 3.356-.783.736-1.109.767-8.052.767-7.108 0-7.25-.015-8.003-.817z" fill="#068dde" fill-opacity="1" stroke-width=".353"/><path id="path1628" d="M-357.623-338.06c.388-.388.705-.864.705-1.058 0-.194-.317-.67-.705-1.058-.657-.656-1.176-.706-7.409-.706-6.232 0-6.752.05-7.408.706-.388.388-.706.864-.706 1.058 0 .194.318.67.706 1.059.656.656 1.176.705 7.408.705 6.233 0 6.752-.05 7.409-.705z" fill="#068dde" fill-opacity="1" stroke-width=".353"/><path id="path1626" d="M-351.395-337.294c-.509-.561-.584-1.718-.584-8.97 0-7.098.082-8.407.554-8.88.455-.454 1.502-.554 5.796-.554 5.78 0 6.35.19 6.35 2.121 0 1.649-1.062 2.112-4.841 2.112h-3.273v3.175h2.755c3.206 0 4.065.433 4.065 2.048 0 1.868-.562 2.185-3.865 2.185h-2.955v2.92c0 3.506-.494 4.489-2.258 4.489-.676 0-1.404-.27-1.744-.646z" fill="#000" stroke-width=".353"/><path id="path1624" d="M-348.446-340.982c.003-1.594.122-3.079.265-3.3.146-.226 1.518-.457 3.154-.53 3.094-.14 3.84-.5 3.466-1.679-.214-.673-.498-.74-3.14-.74-1.788 0-3.066-.163-3.327-.424-.55-.55-.55-3.896 0-4.445.272-.271 1.66-.423 3.868-.423 3.007 0 3.49-.084 3.799-.662.269-.502.202-.798-.28-1.234-.915-.828-9.253-.844-10.078-.02-.47.47-.554 1.713-.554 8.114 0 7.118.041 7.602.713 8.274.567.566.857.636 1.411.34.607-.325.698-.749.703-3.271z" fill="#000" stroke-width=".353"/><path id="path1622" d="M-337.407-337.5l-.99-.85-.106-8.102c-.117-8.914-.045-9.246 2.017-9.246 1.984 0 2.146.606 2.146 8.034v6.744l.97.462c1.22.582 1.572 2.626.578 3.353-1.063.777-3.494.57-4.615-.394z" fill="#000" stroke-width=".353"/><path id="path1620" d="M-333.498-337.893c.67-.67.372-1.536-.663-1.93-1.047-.397-1.229-1.683-1.234-8.72-.004-5.298-.054-5.746-.688-6.086-.553-.296-.79-.215-1.235.419-.45.643-.55 1.972-.55 7.321.001 8.125.404 9.245 3.414 9.5.23.02.659-.208.956-.504z" fill="#000" stroke-width=".353"/><path id="path1618" transform="scale(.26458)" d="M-1232.281-1325.574c-15.475 0-23.367 8.949-23.367 26.535 0 12.827 4.117 20.903 12.668 24.855 2.47 1.142 7.325 1.705 12.695 1.471 15.42-.671 21.928-8.484 21.928-26.326 0-17.205-6.416-25.38-20.729-26.416a43.958 43.958 0 0 0-3.195-.12zm.76 10.556c7.685-.034 9.873 3.507 9.873 15.979 0 12.471-2.188 16.013-9.873 15.98-2.637-.01-5.453-.46-6.26-1-6.21-4.146-6.21-25.812 0-29.959.807-.538 3.623-.988 6.26-1z" fill="#000" stroke-width="1.333"/><path id="path1610" transform="scale(.26458)" d="M-1183.648-1325.695c-14.398.01-21.277 4.05-19.43 11.41 1.229 4.896 4.852 6.154 12.586 4.369 5.917-1.366 7.099-1.252 10.426 1.002l3.752 2.541-9.686.754c-11.599.902-16.11 3.69-18.94 11.701-2.778 7.868-.01 15.896 6.626 19.211 5.208 2.602 17.358 3.13 21.464.932 1.88-1.006 3.901-.943 7.133.226 3.814 1.38 5.027 1.293 7.856-.56 4.492-2.944 5.443-6.64 2.949-11.463-1.388-2.684-2.068-7.688-2.068-15.203 0-9.427-.48-11.92-3.028-15.733-4.086-6.116-10.666-9.195-19.64-9.187zm1.54 29.324c7.282 0 9.175 2.743 6.198 8.978-1.529 3.202-2.64 3.74-8.424 4.08-4.03.237-7.32-.264-8.322-1.267-2.598-2.598-1.949-7.438 1.304-9.717 1.664-1.165 5.718-2.074 9.245-2.074z" fill="#000" stroke-width="1.333"/><path id="path1602" d="M-303.676-337.68c-1.014-1.014-1.03-1.094-1.03-4.898 0-3.736-.03-3.887-.883-4.445-.616-.404-.882-.897-.882-1.636 0-.785.227-1.16.882-1.46.714-.324.882-.655.882-1.73 0-1.578.737-2.438 2.087-2.438 1.291 0 2.147 1.001 2.147 2.512 0 1.075.138 1.263 1.146 1.56.893.263 1.172.557 1.26 1.329.141 1.23-.466 2.007-1.568 2.007-.817 0-.838.076-.838 3.007 0 2.951.018 3.015.962 3.374 1.126.428 1.494.912 1.502 1.972.009 1.267-.924 1.878-2.87 1.878-1.48 0-1.932-.167-2.797-1.032z" fill="#000" stroke-width=".353"/><path id="path1600" d="M-299.856-337.576c1.167-.313 1.086-1.808-.114-2.109-1.175-.295-1.562-1.376-1.562-4.366 0-2.942.201-3.533 1.202-3.533.426 0 .952-.179 1.17-.396.577-.578.144-1.368-.752-1.368-1.123 0-1.62-.667-1.62-2.175 0-.951-.193-1.432-.68-1.693-.996-.532-1.79.417-1.79 2.14 0 1.009-.171 1.46-.617 1.625-.34.125-.727.393-.861.594-.295.442.33 1.273.956 1.273.33 0 .481 1.1.574 4.196.134 4.492.5 5.46 2.19 5.79.417.081.837.167.934.191.097.024.533-.052.97-.17z" fill="#000" stroke-width=".353"/><path id="path1598" d="M-366.734-344.52c-.995-1.06-.976-2.393.05-3.356.74-.696 1.193-.767 4.877-.767 3.788 0 4.112.055 4.828.817.995 1.059.975 2.392-.05 3.355-.74.696-1.193.767-4.877.767-3.789 0-4.113-.055-4.828-.816z" fill="#068dde" fill-opacity="1" stroke-width=".353"/><path id="path1596" d="M-357.623-345.115c.388-.388.705-.864.705-1.058 0-.194-.317-.67-.705-1.059-.612-.611-1.176-.705-4.234-.705-3.057 0-3.622.094-4.233.705-.388.388-.706.865-.706 1.059 0 .194.318.67.706 1.058.611.611 1.176.706 4.233.706 3.058 0 3.622-.095 4.234-.706z" fill="#068dde" fill-opacity="1" stroke-width=".353"/><path id="path1594" d="M-377.318-351.576c-.995-1.06-.975-2.392.05-3.355.796-.748 1.052-.767 10.169-.767 9.32 0 9.355.003 10.12.816.995 1.06.975 2.393-.05 3.355-.796.748-1.052.768-10.169.768-9.32 0-9.355-.003-10.12-.817z" fill="#068dde" fill-opacity="1" stroke-width=".353"/><path id="path1590" d="M-357.623-352.17c.388-.389.705-.865.705-1.059 0-.194-.317-.67-.705-1.058-.668-.668-1.176-.706-9.525-.706-8.35 0-8.858.038-9.525.706-.389.388-.706.864-.706 1.058 0 .194.317.67.706 1.058.667.668 1.175.706 9.525.706 8.349 0 8.857-.038 9.525-.706z" fill="#068dde" fill-opacity="1" stroke-width=".353"/></g></g></g></symbol></svg>