<?xml version="1.0" encoding="UTF-8" standalone="no"?>
<svg
   xmlns:dc="http://purl.org/dc/elements/1.1/"
   xmlns:cc="http://creativecommons.org/ns#"
   xmlns:rdf="http://www.w3.org/1999/02/22-rdf-syntax-ns#"
   xmlns:svg="http://www.w3.org/2000/svg"
   xmlns="http://www.w3.org/2000/svg"
   id="svg5093"
   version="1.1"
   fill="none"
   viewBox="0 0 21 15"
   height="15"
   width="21">
  <metadata
     id="metadata5099">
    <rdf:RDF>
      <cc:Work
         rdf:about="">
        <dc:format>image/svg+xml</dc:format>
        <dc:type
           rdf:resource="http://purl.org/dc/dcmitype/StillImage" />
        <dc:title></dc:title>
      </cc:Work>
    </rdf:RDF>
  </metadata>
  <defs
     id="defs5097" />
  <path
     style="fill:#444444"
     id="path5089"
     d="m 0,10.377 c 0,1.8948 1.41846,3.4669 3.28173,3.7704 H 8.59092 V 13.2588 H 4.03869 L 3.60246,13.2244 C 2.34435,13.0239 0.954574,11.532 0.954574,10.3121 0.954574,9.35942 1.76688,7.83218 3.33615,7.28999 L 3.02019,6.46526 C 2.94669,6.3068 2.90946,6.13784 2.90946,5.96222 c 0,-0.68538 0.693,-1.70388 1.78023,-1.70388 0.37323,0 0.93594,0.318345 1.06146,0.45054 0.12552,0.132195 1.02615,0.714 1.02615,0.714 L 7.64977,4.25927 C 8.63865,2.78546 10.3053,1.77269 12.1838,1.77269 c 2.6508,0 5.2672,2.52669 5.3092,5.05242 v 0.89535 l 0.9231,0.24723 c 1.0404,0.35031 1.7382,1.29246 1.7382,2.34431 0,1.219 -1.2486,2.7463 -2.5066,2.9467 h -0.5775 -4.6611 v 0.8887 h 5.3092 C 19.5815,13.8439 21,12.2717 21,10.377 21,8.71223 19.9042,7.29569 18.3741,6.77069 18.3187,3.47369 15.5486,0.818115 12.1409,0.818115 c -2.45798,0 -4.58375,1.381235 -5.59937,3.388655 -0.48015,-0.51546 -1.17503,-0.84 -1.94823,-0.84 -1.44996,0 -2.625,1.14165 -2.625,2.54861 0,0.36751 0.08016,0.71689 0.22335,1.03281 C 0.893461,7.5725 0,8.87354 0,10.377 Z" />
  <path
     id="path5091"
     fill="#444444"
     d="M8.60332 5.59094V9.88641H6.68182L10.5 14.1819L14.3182 9.88641H12.4139V5.59094H8.60332Z" />
</svg>
