<svg height="200" viewBox="0 0 52.916665 52.916668" width="200" xmlns="http://www.w3.org/2000/svg"><path d="m0 52.916666v-52.916666l52.916665-.0000015v52.9166675zm27.681345-9.579006c11.160009-.868398 18.405908-11.933102 14.73076-22.494296-2.494704-7.168989-9.612927-11.8223157-17.203139-11.2460096-11.117932.8441426-18.3745858 11.9429486-14.704405 22.4898876 2.167811 6.229591 7.980988 10.726949 14.530659 11.241602.579787.04561 1.125314.08857 1.212281.09551.08697.0071.732198-.03204 1.433844-.08663zm-6.149779-3.533561c-4.728184-1.820235-8.078405-5.807623-9.057136-10.779694-.124844-.634184-.182033-1.438235-.182033-2.559112 0-1.120857.05721-1.924919.182033-2.559092 1.152248-5.853531 5.573485-10.275928 11.425471-11.42849 1.261371-.248438 3.855492-.248438 5.116861 0 5.162946 1.016847 9.337099 4.668572 10.938103 9.569123.510915 1.563867.669403 2.609989.669403 4.418459 0 1.120877-.05719 1.924928-.182029 2.559112-.979899 4.977969-4.374584 9.010959-9.074125 10.780316l-.675864.25447-.03547-1.814735c-.03999-2.045674-.166834-2.507306-.894083-3.25398-.422765-.434061-.419266-.437673.543318-.561591.893773-.115051 2.067532-.474827 2.990878-.916745 1.615516-.773194 2.792151-2.262837 3.292362-4.168184.310902-1.184245.387549-3.236408.15922-4.26298-.203511-.914979-.63384-1.866816-1.113459-2.462836-.274286-.340847-.32546-.480306-.270864-.738102.307252-1.450868.277946-2.35951-.11483-3.560235l-.163835-.500867h-.515572c-.682228 0-1.996994.487214-3.089422 1.144867l-.866349.521551-.944683-.216082c-1.412385-.323071-4.85396-.322285-6.245745.001l-.979018.227704-.549513-.350969c-1.362666-.870337-2.676598-1.365663-3.470616-1.308377-.446222.03224-.454789.04031-.648776.612571-.277459.818561-.343715 2.315878-.137174 3.10001l.163867.622102-.350622.432337c-.436696.53849-.82581 1.306061-1.0767 2.123939-.149148.486183-.190396.949898-.182501 2.051653.01754 2.445439.565221 4.069112 1.823974 5.407214.372213.395663.962851.887112 1.312523 1.092112.730638.428327 2.127381.916592 3.123382 1.091837.376864.06633.798719.143673.937454.171908l.252257.05133-.319952.336898c-.728027.766581-.96584 1.732693-.971918 3.948347-.002.652418-.03886 1.183908-.08231 1.181081-.04345-.0031-.374907-.119051-.736492-.258255z" stroke-width=".10543"/></svg>