
<svg xmlns="http://www.w3.org/2000/svg"
	xmlns:xlink="http://www.w3.org/1999/xlink"
>
	<symbol id="docxicon" viewBox="0 0 550.801 550.801">
	<g>
	<path d="M486.201,196.121h-13.166v-63.525c0-0.399-0.062-0.795-0.115-1.2c-0.021-2.522-0.825-5-2.552-6.96L364.657,3.675
		c-0.033-0.031-0.064-0.042-0.085-0.073c-0.63-0.704-1.364-1.292-2.143-1.796c-0.229-0.157-0.461-0.286-0.702-0.419
		c-0.672-0.365-1.387-0.672-2.121-0.893c-0.2-0.052-0.379-0.134-0.577-0.188C358.23,0.118,357.401,0,356.562,0H96.757
		C84.894,0,75.256,9.649,75.256,21.502v174.613H62.092c-16.971,0-30.732,13.756-30.732,30.73v159.81
		c0,16.966,13.761,30.736,30.732,30.736h13.164V526.79c0,11.854,9.638,21.501,21.501,21.501h354.776
		c11.853,0,21.501-9.647,21.501-21.501V417.392h13.166c16.966,0,30.729-13.764,30.729-30.731v-159.81
		C516.93,209.877,503.167,196.121,486.201,196.121z M96.757,21.507h249.054v110.006c0,5.94,4.817,10.751,10.751,10.751h94.972
		v53.861H96.757V21.507z M367.547,335.847c7.843,0,16.547-1.701,21.666-3.759l3.916,20.301c-4.768,2.376-15.509,4.949-29.493,4.949
		c-39.748,0-60.204-24.73-60.204-57.472c0-39.226,27.969-61.055,62.762-61.055c13.465,0,23.705,2.737,28.31,5.119l-5.285,20.64
		c-5.287-2.226-12.615-4.263-21.832-4.263c-20.641,0-36.663,12.444-36.663,38.027C330.718,321.337,344.362,335.847,367.547,335.847z
		 M291.647,296.97c0,37.685-22.854,60.537-56.444,60.537c-34.113,0-54.066-25.759-54.066-58.495
		c0-34.447,21.995-60.206,55.94-60.206C272.39,238.806,291.647,265.248,291.647,296.97z M67.72,355.124V242.221
		c9.552-1.532,21.999-2.375,35.13-2.375c21.83,0,35.981,3.916,47.055,12.276c11.945,8.863,19.455,23.021,19.455,43.311
		c0,21.994-8.017,37.181-19.105,46.556c-12.111,10.058-30.528,14.841-53.045,14.841C83.749,356.825,74.198,355.968,67.72,355.124z
		 M451.534,520.968H96.757V417.392h354.776V520.968z M471.245,355.627l-10.409-20.804c-4.263-8.012-6.992-13.99-10.231-20.636
		h-0.342c-2.388,6.656-5.28,12.624-8.861,20.636l-9.552,20.804h-29.675l33.254-58.158l-32.054-56.786h29.849l10.058,20.984
		c3.413,6.979,5.963,12.614,8.694,19.092h0.335c2.729-7.332,4.955-12.446,7.843-19.092l9.721-20.984h29.683l-32.406,56.103
		l34.105,58.841H471.245z"/>
	<path d="M141.729,296.277c0.165-23.869-13.814-36.494-36.15-36.494c-5.807,0-9.552,0.514-11.772,1.027v75.2
		c2.226,0.509,5.806,0.509,9.047,0.509C126.388,336.698,141.729,323.743,141.729,296.277z"/>
	<path d="M208.604,298.493c0,22.515,10.575,38.372,27.969,38.372c17.567,0,27.617-16.703,27.617-39.045
		c0-20.641-9.885-38.377-27.801-38.377C218.827,259.448,208.604,276.162,208.604,298.493z"/>
</g>
	</symbol>


	<symbol id="pdficon" viewBox="0 0 550.801 550.801">
		<g>
			<path d="M160.381,282.225c0-14.832-10.299-23.684-28.474-23.684c-7.414,0-12.437,0.715-15.071,1.432V307.6
				c3.114,0.707,6.942,0.949,12.192,0.949C148.419,308.549,160.381,298.74,160.381,282.225z"/>
			<path d="M272.875,259.019c-8.145,0-13.397,0.717-16.519,1.435v105.523c3.116,0.729,8.142,0.729,12.69,0.729
				c33.017,0.231,54.554-17.946,54.554-56.474C323.842,276.719,304.215,259.019,272.875,259.019z"/>
			<path d="M488.426,197.019H475.2v-63.816c0-0.398-0.063-0.799-0.116-1.202c-0.021-2.534-0.827-5.023-2.562-6.995L366.325,3.694
				c-0.032-0.031-0.063-0.042-0.085-0.076c-0.633-0.707-1.371-1.295-2.151-1.804c-0.231-0.155-0.464-0.285-0.706-0.419
				c-0.676-0.369-1.393-0.675-2.131-0.896c-0.2-0.056-0.38-0.138-0.58-0.19C359.87,0.119,359.037,0,358.193,0H97.2
				c-11.918,0-21.6,9.693-21.6,21.601v175.413H62.377c-17.049,0-30.873,13.818-30.873,30.873v160.545
				c0,17.043,13.824,30.87,30.873,30.87h13.224V529.2c0,11.907,9.682,21.601,21.6,21.601h356.4c11.907,0,21.6-9.693,21.6-21.601
				V419.302h13.226c17.044,0,30.871-13.827,30.871-30.87v-160.54C519.297,210.838,505.47,197.019,488.426,197.019z M97.2,21.605
				h250.193v110.513c0,5.967,4.841,10.8,10.8,10.8h95.407v54.108H97.2V21.605z M362.359,309.023c0,30.876-11.243,52.165-26.82,65.333
				c-16.971,14.117-42.82,20.814-74.396,20.814c-18.9,0-32.297-1.197-41.401-2.389V234.365c13.399-2.149,30.878-3.346,49.304-3.346
				c30.612,0,50.478,5.508,66.039,17.226C351.828,260.69,362.359,280.547,362.359,309.023z M80.7,393.499V234.365
				c11.241-1.904,27.042-3.346,49.296-3.346c22.491,0,38.527,4.308,49.291,12.928c10.292,8.131,17.215,21.534,17.215,37.328
				c0,15.799-5.25,29.198-14.829,38.285c-12.442,11.728-30.865,16.996-52.407,16.996c-4.778,0-9.1-0.243-12.435-0.723v57.67H80.7
				V393.499z M453.601,523.353H97.2V419.302h356.4V523.353z M484.898,262.127h-61.989v36.851h57.913v29.674h-57.913v64.848h-36.593
				V232.216h98.582V262.127z"/>
		</g>
	</symbol>
	<symbol id="printicon"  viewBox="0 0 512 512">
		<g>
			<g>
				<path d="M475.934,108.229H380.35V54.285c0-5.995-4.862-10.857-10.857-10.857H142.507c-5.995,0-10.857,4.862-10.857,10.857v53.945
					H36.066C16.179,108.229,0,124.409,0,144.296v172.837C0,337.02,16.179,353.2,36.066,353.2h95.584v104.515
					c0,5.995,4.862,10.857,10.857,10.857h226.987c5.995,0,10.857-4.862,10.857-10.857V353.2h95.584
					c19.886,0,36.066-16.179,36.066-36.067V144.296C512,124.409,495.82,108.229,475.934,108.229z M380.349,129.942h25.897v30.385
					h-25.897V129.942z M153.363,65.142h205.273v95.186H153.363V65.142z M105.753,129.943h25.897v30.385h-25.897V129.943z
					M358.637,446.858H153.363V303.879h205.273V446.858z M490.288,317.133h-0.001c0,7.915-6.439,14.354-14.352,14.354H380.35v-27.607
					h19.805c5.995,0,10.857-4.862,10.857-10.857s-4.862-10.857-10.857-10.857h-30.661H142.507h-30.661
					c-5.995,0-10.857,4.862-10.857,10.857s4.862,10.857,10.857,10.857h19.805v27.607H36.066c-7.913,0-14.352-6.439-14.352-14.354
					V144.296c0-7.914,6.439-14.354,14.352-14.354H84.04v41.241c0,5.995,4.861,10.857,10.857,10.857h322.207
					c5.995,0,10.857-4.862,10.857-10.857v-41.241h47.974c7.913,0,14.353,6.439,14.353,14.354V317.133z"/>
			</g>
		</g>
		<g>
			<g>
				<circle cx="68.799" cy="219.261" r="13.602"/>
			</g>
		</g>
		<g>
			<g>
				<path d="M252.849,386.456h-50.68c-5.995,0-10.857,4.86-10.857,10.857c0,5.995,4.861,10.857,10.857,10.857h50.68
					c5.995,0,10.857-4.862,10.857-10.857C263.706,391.316,258.844,386.456,252.849,386.456z"/>
			</g>
		</g>
		<g>
			<g>
				<path d="M309.831,331.483H202.169c-5.995,0-10.857,4.862-10.857,10.857c0,5.996,4.861,10.857,10.857,10.857h107.661
					c5.995,0,10.857-4.861,10.857-10.857C320.687,336.345,315.826,331.483,309.831,331.483z"/>
			</g>
		</g>
	</symbol>
</svg>

