<svg height="19" viewBox="0 0 5.027 5.027" width="19" xmlns="http://www.w3.org/2000/svg"><g fill="#fefefe"><path d="M3.808 2.839c-.23.139-.422.31-.556.498-.134.188-.234.43-.147.652.088.223.303.274.505.26.202-.016.43-.097.66-.236.23-.139.421-.31.556-.498.134-.188.234-.43.147-.652-.088-.223-.303-.274-.505-.259a1.53 1.53 0 0 0-.66.235zm.16.407a1.19 1.19 0 0 1 .485-.177c.122-.009.15.03.145.02-.004-.01.004.04-.077.154a1.438 1.438 0 0 1-.411.363 1.19 1.19 0 0 1-.484.177c-.123.009-.15-.03-.146-.02.004.01-.004-.04.077-.154.082-.113.23-.253.411-.363zm-3.232.369c-.23.14-.422.31-.556.499-.134.188-.235.43-.147.652.087.222.303.274.505.259.202-.015.43-.096.66-.235.23-.139.421-.31.555-.498.135-.189.235-.43.147-.653-.087-.222-.302-.273-.505-.258-.202.015-.43.096-.66.234zm.16.408a1.19 1.19 0 0 1 .484-.178c.122-.009.15.031.146.02-.005-.01.004.04-.078.154a1.438 1.438 0 0 1-.41.363 1.19 1.19 0 0 1-.485.177c-.122.01-.15-.03-.145-.02.004.011-.004-.04.077-.154.08-.113.229-.252.411-.362zM4.716.95l-3.09.818.113.43 3.091-.816z"/><path d="M4.767 0a.223.223 0 0 0-.05.007L1.625.824a.223.223 0 0 0-.166.215v2.799h.446V1.21L4.55.512v2.55h.446V.221A.223.223 0 0 0 4.766 0z"/></g></svg>