<svg height="29" viewBox="0 0 3.969 7.673" width="15" xmlns="http://www.w3.org/2000/svg"><path d="M1.3 7.527a.203.203 0 0 1-.12-.123c-.015-.051-.062.153.567-2.43a64.53 64.53 0 0 0 .295-1.238c-.003-.003-.411.095-.907.218-.496.122-.921.223-.945.223a.196.196 0 0 1-.153-.073C.007 4.07 0 4.052 0 4.01 0 3.97.61 1.428.867.402.897.283.908.254.94.218a.203.203 0 0 1 .08-.055c.027-.007.324-.012.803-.012.738 0 .763.001.808.023a.235.235 0 0 1 .074.058c.058.079.07.038-.351 1.18a64.251 64.251 0 0 0-.384 1.055c.002.002.41-.096.904-.218 1.022-.252.95-.242 1.046-.147.092.092.193-.148-1.163 2.757a300.938 300.938 0 0 1-1.226 2.608c-.045.063-.15.09-.233.06z" fill="#fff"/></svg>