<svg height="14" viewBox="0 0 2.646 3.704" width="10" xmlns="http://www.w3.org/2000/svg"><path d="M1.137 3.69a.323.323 0 0 1-.14-.093 25.94 25.94 0 0 1-.474-.982c-.247-.523-.456-.97-.465-.994A1.034 1.034 0 0 1 0 1.19 1.04 1.04 0 0 1 .059.84C.173.492.478.184.826.065a1.28 1.28 0 0 1 .798-.003c.367.12.685.446.792.813.036.123.047.207.047.365 0 .166-.01.242-.047.351a89.457 89.457 0 0 1-.933 1.985.32.32 0 0 1-.132.106.337.337 0 0 1-.214.009zm.25-1.856a.613.613 0 0 0 .286-.168.574.574 0 0 0 .173-.467.508.508 0 0 0-.05-.218.62.62 0 0 0-1.164.406.624.624 0 0 0 .504.46.803.803 0 0 0 .25-.013z" fill="#fcfcfc"/></svg>