<svg height="19" width="16" xmlns="http://www.w3.org/2000/svg"><g fill="#fff"><path d="M13.89 13.45a.862.862 0 0 1-.366-.075 13.806 13.806 0 0 0-2.107-.717l.596-1.608c.495.125.99.3 1.485.475a7.6 7.6 0 0 0 .6-2.975C14.072 4.75 11.336 1.675 8 1.675S1.928 4.75 1.928 8.55c0 1.025.209 2.05.6 2.975.469-.175.964-.325 1.485-.475l.596 1.568c-.703.175-1.482.482-2.107.757-.417.2-.938.025-1.147-.35-.782-1.35-1.173-2.9-1.173-4.475C.182 3.825 3.674 0 8 0s7.818 3.825 7.818 8.55a9.173 9.173 0 0 1-1.147 4.475c-.156.275-.469.425-.782.425z"/><path d="M7.557 14.4c-2.32-.25-4.065-2.35-4.795-5.75-.078-.325-.104-.65-.13-1.05 0-.125.026-.225.13-.325a.491.491 0 0 1 .313-.125h2.397l.391-2.7c.026-.2.209-.35.443-.35.209 0 .391.15.443.35l.391 2.7h.6l.13-1.275c.026-.225.208-.375.443-.375s.417.175.443.375l.13 1.275h4.04c.13 0 .234.05.312.125s.13.2.13.325c-.026.375-.052.725-.13 1.05-.391 1.85-1.069 3.3-2.007 4.3-.404.453-.499.518-1.042.85-.173.11-.33.18-.495.275-.826.304-1.097.372-2.137.325zm3.023-2.025c.808-.875 1.433-2.2 1.798-3.875.026-.15.052-.3.078-.475h-3.96c-.053 0-.131 0-.183-.025-.052.025-.105.025-.183.025H6.75a.462.462 0 0 1-.444-.375v-.075.075a.444.444 0 0 1-.443.375H3.544a19 19 0 0 0 .078.475c.652 3.025 2.351 5.074 4.013 5.075 1.662.001 2.113-.402 2.945-1.2z"/><path d="M1.746 19H0c0-3.125 2.814-5.675 6.306-5.675V15c-2.527 0-4.56 1.8-4.56 4zM16 19h-1.746c0-2.2-2.033-4-4.56-4v-1.675C13.186 13.325 16 15.875 16 19zM6.15 8.65c-.287 0-.521.225-.521.5s.234.5.52.5.522-.225.522-.5-.235-.5-.521-.5zm3.7 0c-.286 0-.521.225-.521.5s.235.5.521.5.521-.225.521-.5-.234-.5-.52-.5z"/></g></svg>