<svg height="17" viewBox="0 0 3.969 4.498" width="15" xmlns="http://www.w3.org/2000/svg"><path d="M.962 3.828c-.178-.036-.328-.203-.37-.413a1.96 1.96 0 0 1-.003-.37c.03-.348.142-.64.297-.774a.6.6 0 0 1 .359-.153l.048-.005.04.034a1.017 1.017 0 0 0 1.304 0l.04-.034.067.008a.591.591 0 0 1 .468.313c.121.218.183.52.174.85a.68.68 0 0 1-.017.173.572.572 0 0 1-.16.262.426.426 0 0 1-.166.102l-.045.014-.995.001c-.837.001-1.003 0-1.041-.008zm.917-1.588a.852.852 0 0 1-.397-.15 1.059 1.059 0 0 1-.201-.202.825.825 0 0 1-.119-.257 1.134 1.134 0 0 1-.01-.299.808.808 0 0 1 .467-.597.788.788 0 0 1 .366-.074c.199 0 .348.045.495.149a.79.79 0 0 1 .339.523 1.04 1.04 0 0 1-.015.311.834.834 0 0 1-.591.574.935.935 0 0 1-.334.022z" fill="#fff"/></svg>