<svg height="24" viewBox="0 0 7.937 6.35" width="30" xmlns="http://www.w3.org/2000/svg"><path d="M.422 6.342c-.134-.024-.235-.12-.367-.353C.006 5.904 0 5.883 0 5.81c0-.179.148-.38.463-.63.253-.202.38-.327.398-.394.013-.047.01-.065-.046-.205-.084-.214-.098-.29-.107-.572a2.379 2.379 0 0 1 .268-1.24c.202-.4.44-.686.849-1.014.382-.307.95-.597 1.383-.706C3.48.98 3.89.946 4.705.923c.74-.02.952-.04 1.269-.113.3-.07.457-.157.685-.377.267-.258.345-.302.554-.315.144-.009.204.012.293.1.184.18.305.524.4 1.129.078.508.009 1.192-.18 1.76A3.48 3.48 0 0 1 6.82 4.56c-.38.379-.796.674-1.334.946-1.046.53-2.113.64-3.15.323a4.144 4.144 0 0 1-.398-.173c-.338-.164-.435-.203-.506-.203-.092 0-.149.069-.437.524-.086.138-.235.296-.316.337a.432.432 0 0 1-.257.027zm1.719-1.745c.029-.019.196-.175.371-.348.384-.377.574-.54.849-.725.559-.38 1.082-.54 1.87-.571.235-.01.24-.01.303-.05a.277.277 0 0 0 .135-.259.29.29 0 0 0-.13-.22c-.047-.03-.072-.036-.173-.041a4.22 4.22 0 0 0-2.85 1.06c-.318.274-.75.715-.793.811a.287.287 0 0 0 0 .227c.031.07.124.15.186.16a.68.68 0 0 1 .06.01c.03.008.123-.022.172-.054z" fill="#fff"/></svg>