<svg xmlns="http://www.w3.org/2000/svg" xmlns:xlink="http://www.w3.org/1999/xlink" height="32" viewBox="0 0 8.467 8.467" width="32" version="1.1" id="svg72"><linearGradient id="a"><stop offset="0" stop-color="#d1d2d3" id="stop2"/><stop offset="1" stop-color="#e6e7e8" stop-opacity="0" id="stop4"/></linearGradient><filter id="b" height="1.012" width="1.012" x="-.006" y="-.006" color-interpolation-filters="sRGB"><feGaussianBlur stdDeviation=".036" id="feGaussianBlur7"/></filter><filter id="c" height="1.024" width="1.024" x="-.012" y="-.012" color-interpolation-filters="sRGB"><feGaussianBlur stdDeviation=".036" id="feGaussianBlur10"/></filter><filter id="d" height="1.36" width="1.36" x="-.18" y="-.18" color-interpolation-filters="sRGB"><feGaussianBlur stdDeviation=".354" id="feGaussianBlur13"/></filter><filter id="e" height="1.024" width="1.024" x="-.012" y="-.012" color-interpolation-filters="sRGB"><feGaussianBlur stdDeviation=".144" id="feGaussianBlur16"/></filter><linearGradient id="f" gradientUnits="userSpaceOnUse" x1=".613" x2="29.906" xlink:href="#a" y1="244.965" y2="244.965"/><linearGradient id="g" gradientUnits="userSpaceOnUse" x1="14.774" x2="16.727" xlink:href="#a" y1="245.06" y2="245.06"/><filter id="h" height="1.102" width="1.056" x="-.028" y="-.051" color-interpolation-filters="sRGB"><feGaussianBlur stdDeviation=".224" id="feGaussianBlur21"/></filter><g transform="translate(-.118 -187.211) scale(.81448)" id="g70"><g id="g4604" transform="matrix(.35663 0 0 .35053 -.068 149.178)"><g id="g26" transform="matrix(.99509 0 0 1 .005 0)" fill="#eff0f0" filter="url(#e)"><path id="path24" d="M15.271 230.442c-.171.031-4.1.306-6.077.935-1.977.628-3.547 1.567-4.424 3.149-1.725 3.106-3.81 10.05-3.81 10.05s1.318.307 3.037.644c1.33.26 2.897.537 4.386.727l6.888 13.542m0-29.047c.172.031 4.078.306 6.055.935 1.976.628 3.546 1.567 4.424 3.149 1.724 3.106 3.81 10.05 3.81 10.05s-1.32.307-3.038.644c-1.33.26-2.897.537-4.386.727l-6.888 13.542" fill="#eff0f0"/></g><g id="g30" transform="matrix(.99509 0 0 1 .005 0)" fill="url(#f)" stroke="#c9c9ca" filter="url(#e)"><path id="path28" d="M15.271 230.442c-.171.031-4.1.306-6.077.935-1.977.628-3.547 1.567-4.424 3.149-1.725 3.106-3.81 10.05-3.81 10.05s1.318.307 3.037.644c1.33.26 2.897.537 4.386.727l6.888 13.542m0-29.047c.172.031 4.078.306 6.055.935 1.976.628 3.546 1.567 4.424 3.149 1.724 3.106 3.81 10.05 3.81 10.05s-1.32.307-3.038.644c-1.33.26-2.897.537-4.386.727l-6.888 13.542" fill="url(#g)" stroke="#858589" stroke-width=".074" stroke-linecap="round" stroke-linejoin="round"/></g><g id="g36" transform="translate(0 197)" fill="#fff" stroke="#fff" stroke-width=".074" stroke-linecap="round" stroke-linejoin="round" filter="url(#h)"><path id="path32" d="M15.178 36.326c1.35 0 3.178.009 4.422.009a5.259 5.259 0 1 1 0 10.517c-1.859 0-3.487-.93-4.422-2.386"/><path id="path34" d="M15.176 36.326c-1.351 0-3.178.009-4.422.009a5.259 5.259 0 1 0 0 10.517c1.858 0 3.487-.93 4.422-2.386m.002-8.14c1.35 0 3.178.009 4.422.009a5.259 5.259 0 1 1 0 10.517c-1.859 0-3.487-.93-4.422-2.386"/></g><g id="g54"><g id="g44" filter="url(#b)"><path id="path38" d="M19.668 243.633c2.77 0 4.948-2.18 4.948-4.99 0-2.811-2.113-5.057-4.882-5.057-1.215 0-2.363.368-3.235 1.072 0 0-.88-1.031-.955-1.187-.076-.157.012-1.101.012-1.101 1.525-1.227 3.796-1.383 5.575-1.06 1.78.323 3.647 1.466 4.619 3.216 1.724 3.106 3.81 10.05 3.81 10.05s-6.028 1.406-9.102 1.492c-.822.023-1.692.066-2.457-.237-.814-.322-1.606-.869-2.079-1.606-.489-.762-.744-2.76-.744-2.76.978 1.317 2.702 2.168 4.49 2.168z" fill="#3fad5d" filter="url(#b)"/><circle id="circle40" r="3.625" cy="238.582" cx="19.574" fill="#3fad5d" filter="url(#c)"/><circle id="circle42" transform="translate(2.423 29.53) scale(.87624)" r="2.362" cy="238.605" cx="19.574" filter="url(#d)"/></g><g id="g52" transform="matrix(-1 0 0 1 30.376 0)" filter="url(#b)"><path id="path46" d="M19.668 243.633c2.77 0 4.948-2.18 4.948-4.99 0-2.811-2.113-5.057-4.882-5.057-1.215 0-2.363.368-3.235 1.072 0 0-.88-1.031-.955-1.187-.076-.157.012-1.101.012-1.101 1.525-1.227 3.796-1.383 5.575-1.06 1.78.323 3.647 1.466 4.619 3.216 1.724 3.106 3.81 10.05 3.81 10.05s-6.028 1.406-9.102 1.492c-.822.023-1.692.066-2.457-.237-.814-.322-1.606-.869-2.079-1.606-.404-.851-.685-1.827-.724-2.76.978 1.317 2.682 2.168 4.47 2.168z" fill="#92c440" filter="url(#b)"/><circle id="circle48" r="3.625" cy="238.582" cx="19.574" fill="#92c440" filter="url(#c)"/><circle id="circle50" transform="translate(2.423 29.53) scale(.87624)" r="2.362" cy="238.605" cx="19.574" filter="url(#d)"/></g></g></g></g></svg>