<svg clip-rule="evenodd" fill-rule="evenodd" image-rendering="optimizeQuality" shape-rendering="geometricPrecision" text-rendering="geometricPrecision" viewBox="0 0 450 130" xmlns="http://www.w3.org/2000/svg" xmlns:xlink="http://www.w3.org/1999/xlink"><defs><style>.str0,.str1{stroke:#858589;stroke-width:.35315;stroke-linecap:round;stroke-linejoin:round}.str1{stroke:#fff;stroke-width:.354331}.fil4{fill:none}.fil6{fill:#000}.fil5{fill:#3fad5d}.fil7{fill:#92c440}.fil3{fill:#fff}</style><linearGradient id="id0" x1="58.683" x2="67.585" y1="65.156" y2="65.156" gradientUnits="userSpaceOnUse"><stop stop-color="#D1D2D3" offset="0"/><stop stop-color="#E6E7E8" stop-opacity="0" offset="1"/></linearGradient><linearGradient id="id1" x1="58.683" x2="67.585" y1="65.156" y2="65.156" gradientUnits="userSpaceOnUse" xlink:href="#id0"/></defs><filter id="b" x="-.006" y="-.006" width="1.012" height="1.012" color-interpolation-filters="sRGB"><feGaussianBlur stdDeviation=".036"/></filter><filter id="c" x="-.012" y="-.012" width="1.024" height="1.024" color-interpolation-filters="sRGB"><feGaussianBlur stdDeviation=".036"/></filter><filter id="d" x="-.18" y="-.18" width="1.36" height="1.36" color-interpolation-filters="sRGB"><feGaussianBlur stdDeviation=".354"/></filter><filter id="e" x="-.012" y="-.012" width="1.024" height="1.024" color-interpolation-filters="sRGB"><feGaussianBlur stdDeviation=".144"/></filter><filter id="h" x="-.028" y="-.051" width="1.056" height="1.102" color-interpolation-filters="sRGB"><feGaussianBlur stdDeviation=".224"/></filter><path d="M64 0S46 1 37 4s-15 7-19 14C10 32 1 63 1 63s6 2 13 3c6 1 13 3 20 3l30 61V0zm0 0zm0 0c1 0 18 1 27 4s16 7 20 14c8 14 17 45 17 45s-6 2-14 3c-5 1-12 3-19 3l-31 61V0zm0 0z" fill="#eff0f0"/><path class="str0" d="M64 0S46 1 37 4s-15 7-19 14C10 32 1 63 1 63s6 2 13 3c6 1 13 3 20 3l30 61M64 0z" fill="url(#id0)"/><path class="str0" d="M64 0c1 0 18 1 27 4s16 7 20 14c8 14 17 45 17 45s-6 2-14 3c-5 1-12 3-19 3l-31 61M64 0z" fill="url(#id1)"/><path class="fil3" d="M64 13h20c13 0 24 11 24 23 0 13-11 24-24 24-8 0-16-4-20-11V13zm0 0z"/><path class="fil4 str1" d="M64 13h20c13 0 24 11 24 23 0 13-11 24-24 24-8 0-16-4-20-11m0-36z"/><path class="fil3" d="M64 13H44c-13 0-23 11-23 23 0 13 10 24 23 24 9 0 16-4 20-11V13zm0 0z"/><path class="fil4 str1" d="M64 13H44c-13 0-23 11-23 23 0 13 10 24 23 24 9 0 16-4 20-11m0-36z"/><path class="fil3" d="M64 13h20c13 0 24 11 24 23 0 13-11 24-24 24-8 0-16-4-20-11V13zm0 0z"/><path class="fil4 str1" d="M64 13h20c13 0 24 11 24 23 0 13-11 24-24 24-8 0-16-4-20-11m0-36z"/><path class="fil5" d="M84 59c13 0 22-10 22-22 0-13-9-23-21-23-6 0-11 2-15 5l-4-5V9c7-6 17-7 25-5 8 1 16 6 21 14 7 14 17 45 17 45s-27 7-41 7c-4 0-8 0-11-1-4-2-7-4-9-7-3-4-4-13-4-13 5 6 12 10 20 10z"/><circle class="fil5" cx="84" cy="36" r="16"/><circle class="fil6" cx="84" cy="37" r="9"/><path class="fil7" d="M44 59c-12 0-22-10-22-22 0-13 10-23 22-23 5 0 11 2 14 5 0 0 4-5 5-5V9c-7-6-17-7-25-5-8 1-17 6-21 14C9 32 0 63 0 63s27 7 41 7c3 0 7 0 11-1 3-2 7-4 9-7 2-4 3-8 3-13-4 6-12 10-20 10z"/><circle class="fil7" cx="45" cy="36" r="16"/><circle class="fil6" cx="45" cy="37" r="9"/><path d="M184 76V52c-1-2-6-5-10-5-13 0-14 21-8 29 4 6 13 6 18 0zm0-58h11v65l2 6h-9l-1-4c-11 11-36 5-36-21 0-27 20-31 33-22V18zm53 20h12c0 15-1 37 2 51h-11l-1-5c-13 9-32 11-32-11V38h12c0 7-1 35 1 40 3 5 12 1 17-3V38zm23-20v71h12V53c6-6 18-11 18 4v32h12V50c-3-16-19-15-30-7V18h-12zm86 46c0-12-4-18-12-18-9 0-13 6-13 18s4 18 13 18c8 0 12-6 12-18zm-24-24c12-5 30-3 35 14 4 15 0 36-23 36-31 0-31-42-12-50zm79 24c0-12-4-18-12-18-9 0-13 6-13 18s4 18 13 18c8 0 12-6 12-18zm-24-24c12-5 30-3 35 14 4 15-1 36-23 36-31 0-31-42-12-50zm47-14h12v12h12v8h-12c0 35-3 39 12 33l2 8c-14 7-26 1-26-8V46h-6v-8h6V26z" fill="#4e5b6a" fill-rule="nonzero"/></svg>