<svg height="47" viewBox="0 0 41.275 12.435" width="156" xmlns="http://www.w3.org/2000/svg" xmlns:xlink="http://www.w3.org/1999/xlink"><linearGradient id="a"><stop offset="0" stop-color="#d1d2d3"/><stop offset="1" stop-color="#e6e7e8" stop-opacity="0"/></linearGradient><filter id="b" color-interpolation-filters="sRGB" height="1.012" width="1.012" x="-.006" y="-.006"><feGaussianBlur stdDeviation=".036"/></filter><filter id="c" color-interpolation-filters="sRGB" height="1.024" width="1.024" x="-.012" y="-.012"><feGaussianBlur stdDeviation=".036"/></filter><filter id="d" color-interpolation-filters="sRGB" height="1.36" width="1.36" x="-.18" y="-.18"><feGaussianBlur stdDeviation=".354"/></filter><filter id="e" color-interpolation-filters="sRGB" height="1.024" width="1.024" x="-.012" y="-.012"><feGaussianBlur stdDeviation=".144"/></filter><linearGradient id="f" gradientUnits="userSpaceOnUse" x1=".613" x2="29.906" xlink:href="#a" y1="244.965" y2="244.965"/><linearGradient id="g" gradientUnits="userSpaceOnUse" x1="14.774" x2="16.727" xlink:href="#a" y1="245.06" y2="245.06"/><filter id="h" color-interpolation-filters="sRGB" height="1.102" width="1.056" x="-.028" y="-.051"><feGaussianBlur stdDeviation=".224"/></filter><g fill="#eff0f0" filter="url(#e)" transform="matrix(.40524 0 0 .40724 .016 -93.538)"><path d="M15.271 230.442c-.171.031-4.1.306-6.077.935-1.977.628-3.547 1.567-4.424 3.149-1.725 3.106-3.81 10.05-3.81 10.05s1.318.307 3.037.644c1.33.26 2.897.537 4.386.727l6.888 13.542m0-29.047c.172.031 4.078.306 6.055.935 1.976.628 3.546 1.567 4.424 3.149 1.724 3.106 3.81 10.05 3.81 10.05s-1.32.307-3.038.644c-1.33.26-2.897.537-4.386.727l-6.888 13.542"/></g><g fill="url(#f)" filter="url(#e)" stroke="#c9c9ca" transform="matrix(.40524 0 0 .40724 .016 -93.538)"><path d="M15.271 230.442c-.171.031-4.1.306-6.077.935-1.977.628-3.547 1.567-4.424 3.149-1.725 3.106-3.81 10.05-3.81 10.05s1.318.307 3.037.644c1.33.26 2.897.537 4.386.727l6.888 13.542m0-29.047c.172.031 4.078.306 6.055.935 1.976.628 3.546 1.567 4.424 3.149 1.724 3.106 3.81 10.05 3.81 10.05s-1.32.307-3.038.644c-1.33.26-2.897.537-4.386.727l-6.888 13.542" fill="url(#g)" stroke="#858589" stroke-linecap="round" stroke-linejoin="round" stroke-width=".074"/></g><g transform="translate(.014 -13.312) scale(.40724)" filter="url(#h)" fill="#fff" stroke="#fff" stroke-width=".074" stroke-linecap="round" stroke-linejoin="round"><path d="M15.178 36.326c1.35 0 3.178.009 4.422.009a5.259 5.259 0 1 1 0 10.517c-1.859 0-3.487-.93-4.422-2.386"/><path d="M15.176 36.326c-1.351 0-3.178.009-4.422.009a5.259 5.259 0 1 0 0 10.517c1.858 0 3.487-.93 4.422-2.386m.002-8.14c1.35 0 3.178.009 4.422.009a5.259 5.259 0 1 1 0 10.517c-1.859 0-3.487-.93-4.422-2.386"/></g><g filter="url(#b)" transform="translate(.014 -93.538) scale(.40724)"><path d="M19.668 243.633c2.77 0 4.948-2.18 4.948-4.99s-2.113-5.057-4.882-5.057c-1.215 0-2.363.368-3.235 1.072 0 0-.88-1.031-.955-1.187-.076-.157.012-1.101.012-1.101 1.525-1.227 3.796-1.383 5.575-1.06s3.647 1.466 4.619 3.216c1.724 3.106 3.81 10.05 3.81 10.05s-6.028 1.406-9.102 1.492c-.822.023-1.692.066-2.457-.237-.814-.322-1.606-.869-2.079-1.606-.489-.762-.744-2.76-.744-2.76.978 1.317 2.702 2.168 4.49 2.168z" fill="#3fad5d" filter="url(#b)"/><circle cx="19.574" cy="238.582" fill="#3fad5d" filter="url(#c)" r="3.625"/><circle cx="19.574" cy="238.605" filter="url(#d)" r="2.362" transform="translate(2.423 29.53) scale(.87624)"/></g><g filter="url(#b)" transform="matrix(-.40724 0 0 .40724 12.384 -93.538)"><path d="M19.668 243.633c2.77 0 4.948-2.18 4.948-4.99s-2.113-5.057-4.882-5.057c-1.215 0-2.363.368-3.235 1.072 0 0-.88-1.031-.955-1.187-.076-.157.012-1.101.012-1.101 1.525-1.227 3.796-1.383 5.575-1.06s3.647 1.466 4.619 3.216c1.724 3.106 3.81 10.05 3.81 10.05s-6.028 1.406-9.102 1.492c-.822.023-1.692.066-2.457-.237-.814-.322-1.606-.869-2.079-1.606-.404-.851-.685-1.827-.724-2.76.978 1.317 2.682 2.168 4.47 2.168z" fill="#92c440" filter="url(#b)"/><circle cx="19.574" cy="238.582" fill="#92c440" filter="url(#c)" r="3.625"/><circle cx="19.574" cy="238.605" filter="url(#d)" r="2.362" transform="translate(2.423 29.53) scale(.87624)"/></g><path d="M16.748 1.782h1.077v5.987l.172.54h-.846l-.115-.373q-.428.448-1.192.448-.51-.01-.92-.224-.404-.214-.65-.56-.247-.344-.378-.755-.132-.42-.132-.867 0-.476.099-.886.107-.41.32-.765.222-.354.617-.55.394-.196.92-.177.56.028 1.028.382zm0 5.352V4.878q-.353-.355-.707-.392-.09-.01-.173-.01-.542 0-.789.411-.238.41-.238 1.091 0 .653.296 1.082.296.429.838.429h.099q.394-.037.674-.355zm4.896-3.487h1.101v4.01l.107.653H21.85l-.074-.476q-.674.457-1.34.531-.147.02-.27.02-.33 0-.576-.103-.239-.112-.378-.262-.14-.158-.222-.373-.082-.223-.115-.41-.025-.196-.025-.41v-3.18h1.093V6.64q0 .392.115.616.124.224.477.224.115 0 .263-.028.411-.084.847-.476zm2.086-1.865h1.077v2.284q.592-.4 1.167-.466.132-.019.264-.019.32 0 .558.112.239.103.37.261.14.15.222.373.082.215.107.41.033.187.033.402v3.17h-1.06V5.326q0-.391-.124-.615-.123-.224-.468-.224-.115 0-.263.028-.403.084-.806.448V8.31H23.73zm5.659 2.005q.452-.206 1.052-.206.6 0 1.044.206.452.195.698.54.247.345.362.756.123.41.123.895 0 .485-.123.895-.115.41-.362.756-.246.345-.698.55-.444.196-1.044.196-.6 0-1.052-.196-.444-.205-.69-.55-.247-.345-.37-.756-.116-.41-.116-.895 0-.485.115-.895.124-.41.37-.756.247-.345.69-.54zm2.194 2.191q0-1.641-1.15-1.641-1.143 0-1.143 1.641t1.143 1.641q1.15 0 1.15-1.64zm2.799-2.191q.452-.206 1.052-.206.6 0 1.044.206.452.195.698.54.247.345.362.756.123.41.123.895 0 .485-.123.895-.115.41-.362.756-.246.345-.698.55-.444.196-1.044.196-.6 0-1.052-.196-.444-.205-.69-.55-.247-.345-.37-.756-.116-.41-.116-.895 0-.485.115-.895.124-.41.37-.756.247-.345.69-.54zm2.194 2.191q0-1.641-1.15-1.641-1.143 0-1.143 1.641t1.143 1.641q1.15 0 1.15-1.64zm2.1-3.413h1.085v1.082h1.044v.764H39.76v2.742q0 .43.288.448.189.018.74-.205l.221.699q-.567.29-.994.29-.082 0-.181-.01-.493-.038-.83-.327-.329-.298-.329-.68V4.41h-.592v-.764h.592z" fill="#4e5b6a"/></svg>