<svg xmlns="http://www.w3.org/2000/svg" viewBox="0 0 252 252" width="50" height="50"><g fill="none" stroke-miterlimit="10" font-family="none" font-weight="none" font-size="none" text-anchor="none" style="mix-blend-mode:normal"><path d="M0 252V0h252v252z"/><path d="M63 39.375c-12.95 0-23.625 10.674-23.625 23.625v126c0 12.95 10.674 23.625 23.625 23.625h126c12.95 0 23.625-10.674 23.625-23.625V63c0-12.95-10.674-23.625-23.625-23.625zM165.375 63H189v23.625h-23.625zM126 94.5c17.503 0 31.5 13.997 31.5 31.5s-13.997 31.5-31.5 31.5-31.5-13.997-31.5-31.5 13.997-31.5 31.5-31.5zm-70.875 15.75h26.332A46.928 46.928 0 0 0 78.75 126c0 25.994 21.256 47.25 47.25 47.25s47.25-21.256 47.25-47.25a46.94 46.94 0 0 0-2.707-15.75h26.332V189c0 4.46-3.415 7.875-7.875 7.875H63c-4.46 0-7.875-3.415-7.875-7.875z" fill="#fff"/></g></svg>