<svg height="15" viewBox="0 0 4.762 3.969" width="18" xmlns="http://www.w3.org/2000/svg"><path d="M.327 3.956a.392.392 0 0 1-.192-.105.413.413 0 0 1-.119-.182C.001 3.62 0 3.565 0 2.094 0 .623.005.963.004.722c0-.24.04-.286.052-.31a.41.41 0 0 1 .17-.153C.329.212.2.219 2.382.219c2.183 0 2.054-.002 2.153.048a.543.543 0 0 1 .17.158.463.463 0 0 1 .042.094c.016.05.016.104.016 1.575 0 1.471 0 1.525-.016 1.575a.413.413 0 0 1-.118.182.388.388 0 0 1-.197.105c-.081.017-4.024.017-4.104 0zm4.059-.342c.047-.033.045.024.038-1.085L4.42 1.506c-.432.388-.88.71-1.348 1.095-.183.152-.256.203-.367.255-.244.117-.402.117-.646 0-.11-.052-.183-.103-.367-.255-.435-.362-.96-.75-1.347-1.095-.007.49-.011 1-.012 1.464 0 .628 0 .612.045.644.017.012.219.013 2.004.013s1.988 0 2.005-.013zM2.527 2.568c.081-.039.186-.111.31-.214l.622-.496c.63-.498.652-.516.724-.603.159-.19.193-.352.243-.513C4.467.612 4.4.59 4.354.576 4.334.561 4.3.56 2.38.56H.392C.32.56.337.642.34.683a.885.885 0 0 0 .259.598c.048.05.256.221.65.533.319.253.624.496.677.54.161.133.3.222.382.242.017.004.06.007.094.005a.293.293 0 0 0 .126-.033z" fill="#fff"/></svg>