<svg xmlns="http://www.w3.org/2000/svg" xml:space="preserve" width="500" height="500" version="1.1" id="svg9" clip-rule="evenodd" fill-rule="evenodd" image-rendering="optimizeQuality" shape-rendering="geometricPrecision" text-rendering="geometricPrecision"><g id="Слой_x0020_1" transform="matrix(1.00035 0 0 .99976 -.14 0)"><path id="path817" d="M152 384c9 14-23 37-42 51-19 13-61 31-69 17-9-15 24-40 44-54 19-13 58-27 67-14zm305-79c8 10-19 39-38 52-20 13-65 28-71 17-7-11 20-38 39-52 20-13 62-27 70-17zm-2-254v48l-265 70v-49zm21-51c-2 0-3 0-5 1L162 82c-9 3-16 11-16 21v233h-7c-20 2-43 10-65 24-23 13-43 30-56 49s-23 43-15 65c9 22 30 27 51 26 20-2 43-10 66-24 23-13 42-30 55-49 13-18 23-42 15-63V214l265-69v114h-9c-20 1-43 10-66 23-23 14-42 31-55 50-14 19-24 43-15 65s30 27 51 26c20-2 43-10 66-24s42-31 55-49c12-17 21-37 17-57V22c0-12-10-22-23-22z" fill="#000"/></g></svg>