<svg xmlns="http://www.w3.org/2000/svg" id="svg4" version="1.1" height="20" width="20" xml:space="preserve" clip-rule="evenodd" fill-rule="evenodd" image-rendering="optimizeQuality" shape-rendering="geometricPrecision" text-rendering="geometricPrecision"><path id="path2" d="M19.046 291.71a.89.886 0 0 0-.202.03l-12.349 3.25a.89.886 0 0 0-.662.854v9.319c-.086 0-.173-.011-.259-.004-.809.06-1.715.381-2.634.933-.919.552-1.686 1.236-2.223 1.984-.536.748-.935 1.71-.585 2.595.349.884 1.208 1.087 2.017 1.028.808-.06 1.716-.382 2.635-.934.92-.552 1.684-1.233 2.221-1.982.523-.728.91-1.659.609-2.524v-5.978l10.566-2.78v4.574c-.11-.004-.22-.015-.329-.008-.808.06-1.714.384-2.634.936-.919.552-1.685 1.233-2.222 1.981-.537.749-.938 1.71-.588 2.595.349.885 1.208 1.09 2.017 1.03.808-.06 1.718-.383 2.638-.935.919-.553 1.683-1.234 2.22-1.982.473-.659.838-1.483.68-2.274v-10.823a.89.886 0 0 0-.916-.886zm-.866 2.037v1.92L7.614 298.45v-1.922zm-.388 10.172c.488-.038.596.12.58.078-.017-.042.015.16-.309.613-.324.452-.915 1.006-1.643 1.443-.728.437-1.444.669-1.933.705-.488.038-.598-.12-.581-.078.016.042-.017-.16.308-.613.324-.452.915-1.006 1.643-1.443.728-.437 1.446-.669 1.935-.705zm-12.278 3.088c.49-.038.597.122.58.08-.016-.042.018.16-.306.613-.325.452-.915 1.006-1.643 1.443-.728.437-1.446.669-1.935.705-.488.038-.598-.12-.582-.078.017.042-.016-.163.309-.615.324-.452.915-1.004 1.643-1.44.727-.438 1.446-.672 1.934-.708z"/><g transform="translate(-13.339 -291.708)" id="g828" clip-rule="evenodd" fill-rule="evenodd" image-rendering="optimizeQuality" shape-rendering="geometricPrecision" text-rendering="geometricPrecision"><path d="M32.385 291.71a.875.875 0 0 0-.202.03l-12.349 3.25a.887.887 0 0 0-.662.854v9.319c-.086 0-.173-.011-.259-.004-.809.06-1.715.381-2.634.933-.919.552-1.686 1.236-2.223 1.984-.536.748-.935 1.71-.586 2.595.35.884 1.209 1.087 2.018 1.028.808-.06 1.716-.382 2.635-.934.92-.552 1.684-1.233 2.221-1.982.523-.728.91-1.659.609-2.524v-5.978l10.566-2.78v4.574c-.11-.004-.22-.015-.329-.008-.808.06-1.714.384-2.634.936-.919.552-1.685 1.233-2.222 1.981-.537.749-.938 1.71-.588 2.595.349.885 1.208 1.09 2.017 1.03.808-.06 1.718-.383 2.638-.935.919-.553 1.683-1.234 2.22-1.982.473-.659.838-1.483.68-2.274v-10.823c0-.5-.414-.901-.916-.886zm-.866 2.037v1.92l-10.566 2.782v-1.922zm.103 10.15c.309.402-.765 1.557-1.542 2.09-.777.532-2.563 1.127-2.836.693-.272-.435.799-1.54 1.587-2.078.788-.538 2.482-1.106 2.791-.704zm-12.189 3.19c.36.557-.922 1.472-1.684 2.012-.762.54-2.444 1.26-2.782.67-.337-.588.986-1.574 1.753-2.121.767-.548 2.353-1.118 2.713-.56z" id="path817"/></g></svg>