<svg xmlns="http://www.w3.org/2000/svg" id="svg4" version="1.1" width="15" viewBox="0 0 3.969 7.673" height="29"><path id="path2" d="M1.3 7.518a.203.203 0 0 1-.12-.123c-.015-.051-.062.153.567-2.43a64.53 64.53 0 0 0 .295-1.238c-.003-.003-.411.095-.907.218-.496.123-.921.223-.945.223a.196.196 0 0 1-.153-.073C.007 4.061 0 4.044 0 4.001 0 3.96.61 1.419.867.393.897.274.908.245.94.21a.203.203 0 0 1 .08-.055c.027-.007.324-.012.803-.012.738 0 .763.001.808.023a.235.235 0 0 1 .074.059c.058.078.07.037-.352 1.18a64.251 64.251 0 0 0-.383 1.054c.002.002.41-.096.904-.218 1.022-.252.95-.242 1.046-.147.092.092.193-.148-1.163 2.757a300.938 300.938 0 0 1-1.226 2.608c-.045.063-.15.09-.233.06z" fill="#fff" fill-opacity="1" stroke="none" stroke-width=".011"/></svg>