<svg xmlns="http://www.w3.org/2000/svg" id="svg16" version="1.1" width="16" height="19"><g id="g14" transform="matrix(.26059 0 0 .25 -3.726 -1.75)" fill="#fff"><path id="path12" transform="matrix(3.8375 0 0 4 14.3 7)" d="M8 0C3.674 0 .182 3.826.182 8.55c0 1.576.392 3.125 1.173 4.475.209.375.73.55 1.147.35.6-.264 1.337-.553 2.018-.73.234.288.485.542.751.763C2.276 13.854 0 16.191 0 19h1.746c0-2.2 2.033-4 4.56-4v-.959c.397.178.81.312 1.25.36 1.041.046 1.312-.023 2.137-.327V15c2.528 0 4.56 1.8 4.56 4H16c0-2.796-2.256-5.126-5.232-5.586a3.87 3.87 0 0 0 .462-.465c.08-.084.146-.19.221-.281.695.175 1.46.436 2.074.707.105.05.233.074.364.074.312 0 .627-.149.783-.424a9.174 9.174 0 0 0 1.146-4.474C15.818 3.826 12.326 0 8 0zm0 1.676c3.336 0 6.072 3.075 6.098 6.875a7.6 7.6 0 0 1-.6 2.974c-.364-.128-.726-.24-1.09-.35.35-.732.63-1.573.83-2.525.078-.325.103-.675.13-1.05a.465.465 0 0 0-.13-.325.44.44 0 0 0-.312-.125h-4.04l-.13-1.275a.445.445 0 0 0-.444-.375c-.234 0-.417.15-.443.375L7.74 7.15h-.6l-.39-2.7a.466.466 0 0 0-.443-.35c-.235 0-.418.15-.444.35l-.39 2.7H3.074a.49.49 0 0 0-.312.125c-.105.1-.13.2-.13.325.027.4.052.725.13 1.05.204.954.496 1.793.851 2.53-.37.11-.743.218-1.086.345a7.71 7.71 0 0 1-.6-2.974c0-3.8 2.737-6.875 6.073-6.875zM6.307 7.65a.463.463 0 0 0 .443.375h1.38c.079 0 .13 0 .182-.025.053.025.13.025.182.025h3.961c-.026.175-.052.325-.078.475-.365 1.675-.99 3-1.797 3.875-.831.798-1.283 1.2-2.945 1.2-1.662-.002-3.36-2.05-4.012-5.075-.026-.15-.052-.3-.078-.475h2.318a.445.445 0 0 0 .444-.375zm-.157 1a.513.513 0 0 0-.521.5c0 .275.235.5.521.5a.513.513 0 0 0 .522-.5c0-.275-.235-.5-.522-.5zm3.7 0a.513.513 0 0 0-.522.5c0 .275.235.5.522.5a.513.513 0 0 0 .521-.5c0-.275-.235-.5-.521-.5z" stroke-width=".255"/></g></svg>