<svg xmlns="http://www.w3.org/2000/svg" width="100" height="79" shape-rendering="geometricPrecision" text-rendering="geometricPrecision" image-rendering="optimizeQuality" fill-rule="evenodd" clip-rule="evenodd"><g id="Слой_x0020_1"><g id="g6"><path id="path2" d="M50 0c-1 1-2 1-3 2L2 37c-1 1-2 2-2 3 0 3 2 5 4 5 1 0 2-1 3-1l6-5v36c0 2 2 4 4 4h23c2 0 4-2 4-4V50h12v25c0 2 2 4 4 4h23c2 0 4-2 4-4V39l6 5c1 0 2 1 3 1 2 0 4-2 4-5 0-1-1-2-2-3L53 2c-1-1-2-2-3-2zm0 10l29 23v38H64V46c0-2-2-4-4-4H40c-2 0-4 2-4 4v25H21V33l29-23z" fill="#000" fill-rule="nonzero"/></g></g></svg>