<svg xmlns="http://www.w3.org/2000/svg" id="svg4" version="1.1" width="30" viewBox="0 0 7.937 6.35" height="24"><path id="path2" d="M.422 6.284c-.134-.024-.235-.12-.367-.353C.006 5.846 0 5.825 0 5.752c0-.179.148-.38.463-.63.253-.202.38-.327.398-.394.013-.047.01-.065-.046-.205-.084-.214-.098-.29-.107-.572a2.379 2.379 0 0 1 .268-1.24c.202-.4.44-.686.849-1.014.382-.307.95-.597 1.383-.706C3.48.922 3.89.888 4.705.865c.74-.02.952-.04 1.269-.114.3-.07.457-.156.685-.376.267-.258.345-.302.554-.315.144-.009.204.012.293.1.184.18.305.524.4 1.129.078.508.009 1.192-.18 1.76a3.48 3.48 0 0 1-.906 1.453c-.38.38-.796.675-1.334.947-1.046.53-2.113.64-3.15.323a4.144 4.144 0 0 1-.398-.173c-.338-.164-.435-.203-.506-.203-.092 0-.149.069-.437.524-.086.138-.235.296-.316.337a.432.432 0 0 1-.257.027zM2.141 4.54c.029-.02.196-.175.371-.348.384-.377.574-.54.849-.725.559-.38 1.082-.54 1.87-.571.235-.01.24-.01.303-.05a.277.277 0 0 0 .135-.259.29.29 0 0 0-.13-.22c-.047-.03-.072-.037-.173-.041a4.22 4.22 0 0 0-2.85 1.06c-.318.274-.75.715-.793.811a.287.287 0 0 0 0 .227c.031.07.124.15.186.16a.68.68 0 0 1 .06.01c.03.008.123-.022.172-.054z" fill="#fff" stroke-width=".013"/></svg>