<svg height="22" viewBox="0 0 7.144 5.821" width="27"><path d="M6.073 5.526a3.394 3.394 0 0 1-1.025-.422l-.113-.074-.115.017c-.6.092-1.253.022-1.788-.19-.141-.057-.501-.244-.487-.254a3.974 3.974 0 0 0 1.507-.167c.934-.298 1.623-.937 1.823-1.691.05-.19.062-.288.061-.502 0-.203-.019-.351-.06-.486a.217.217 0 0 1-.014-.065c.002-.002.08.047.173.109.196.13.41.327.531.49.16.212.27.464.303.69.02.145.009.424-.024.554-.103.409-.385.776-.815 1.062l-.122.082a.664.664 0 0 0 .052.119c.063.127.174.277.333.45.112.12.132.164.108.227-.035.093-.087.1-.328.051zM.82 4.602a.121.121 0 0 1-.077-.116c0-.054.014-.074.142-.216.181-.202.26-.312.325-.455l.037-.082-.12-.077a1.985 1.985 0 0 1-.7-.756C.056 2.176.332 1.361 1.12.846 1.997.272 3.303.197 4.287.665a2.3 2.3 0 0 1 .698.491c.237.243.366.465.443.76.025.097.029.14.029.333s-.004.236-.03.333c-.094.363-.301.671-.632.94-.361.293-.911.515-1.458.588-.307.04-.718.036-1.016-.011l-.1-.016-.126.08c-.332.21-.778.382-1.132.438-.086.013-.114.013-.143.002zm1.149-.927l.135-.092.148.026c.433.078.775.081 1.16.012.513-.092.956-.313 1.254-.626.233-.243.342-.512.325-.795a.869.869 0 0 0-.095-.372c-.24-.501-.905-.888-1.68-.979a4.642 4.642 0 0 0-.883.025c-.716.135-1.271.49-1.498.956a.84.84 0 0 0-.095.425c0 .118.006.16.033.253.057.19.167.365.334.53.126.125.265.223.526.371.114.065.207.12.207.121l-.038.094-.062.151-.024.06.059-.034c.032-.019.12-.075.194-.126z" fill="#fff" stroke-width=".012"/></svg>