<svg height="15" viewBox="0 0 22.222 4.167" width="80"><g fill="none" stroke="#ea9e2b" stroke-linecap="round" stroke-width=".339"><path class="star1" d="M2.2.392l.56 1.137 1.255.182-.908.885.215 1.25-1.123-.59-1.122.59.214-1.25-.908-.885 1.255-.182z" stroke-width=".331"/><path class="star2" d="M6.663.373l.561 1.138 1.255.182-.908.885.215 1.25-1.123-.59-1.122.59.214-1.25-.908-.885 1.255-.182z" stroke-width=".331"/><path class="star3" d="M11.127.373l.561 1.138 1.255.182-.908.885.215 1.25-1.123-.59-1.122.59.214-1.25-.908-.885 1.255-.182z" stroke-width=".331"/><path class="star4" d="M15.591.41l.562 1.137 1.254.183-.908.885.215 1.25-1.123-.59-1.122.59.214-1.25-.908-.885 1.255-.183z" stroke-width=".331"/><path class="star5" d="M20.055.392l.562 1.137 1.254.182-.908.885.215 1.25-1.123-.59-1.122.59.214-1.25-.908-.885 1.255-.182z" stroke-width=".331"/></g></svg>