<svg xmlns="http://www.w3.org/2000/svg" width="372px" height="372px" viewBox="0 0 54 54" xmlns:xlink="http://www.w3.org/1999/xlink" version="1.1"><g id="qr-qrcode" transform="translate(0,0)"><defs/><rect fill="#FFFFFF" width="54px" height="54px" x="0" y="0" class="qr-bg"/><g id="qr-image_bg"/><path id="p0" class="q-sq" d="M 2 3 C 2 3 2 2 3 2 L 15 2 C 15 2 16 2 16 3 L 16 15 C 16 15 16 16 15 16 L 3 16 C 3 16 2 16 2 15 L 2 3M 5 4 C 5 4 4 4 4 5 L 4 13 C 4 13 4 14 5 14 L 13 14 C 13 14 14 14 14 13 L 14 5 C 14 5 14 4 13 4 L 5 4 z" stroke-width="0" fill="#000000"/><path id="p1" d="M 2 19 C 2 19 2 18 3 18 L 5 18 C 5 18 6 18 6 19 L 6 19 C 6 19 6 20 5 20 L 3 20 C 3 20 2 20 2 19 L 2 19 z" fill="#000000" stroke-width="0"/><path id="p2" d="M 2 25 C 2 25 2 24 3 24 L 7 24 C 7 24 8 24 8 25 L 8 25 C 8 25 8 26 7 26 L 7 26 C 7 26 6 26 6 27 L 6 27 C 6 27 6 28 5 28 L 5 28 C 5 28 4 28 4 27 L 4 27 C 4 27 4 26 3 26 L 3 26 C 3 26 2 26 2 25 L 2 25 z" fill="#000000" stroke-width="0"/><path id="p3" d="M 8 23 C 8 23 8 22 9 22 L 15 22 C 15 22 16 22 16 23 L 16 23 C 16 23 16 24 15 24 L 15 24 C 15 24 14 24 14 25 L 14 25 C 14 25 14 26 15 26 L 15 26 C 15 26 16 26 16 27 L 16 27 C 16 27 16 28 15 28 L 15 28 C 15 28 14 28 14 29 L 14 29 C 14 29 14 30 13 30 L 11 30 C 11 30 10 30 10 31 L 10 33 C 10 33 10 34 11 34 L 11 34 C 11 34 12 34 12 33 L 12 33 C 12 33 12 32 13 32 L 13 32 C 13 32 14 32 14 33 L 14 33 C 14 33 14 34 15 34 L 15 34 C 15 34 16 34 16 33 L 16 33 C 16 33 16 32 15 32 L 15 32 C 15 32 14 32 14 31 L 14 31 C 14 31 14 30 15 30 L 17 30 C 17 30 18 30 18 31 L 18 35 C 18 35 18 36 17 36 L 7 36 C 7 36 6 36 6 35 L 6 35 C 6 35 6 34 7 34 L 7 34 C 7 34 8 34 8 33 L 8 33 C 8 33 8 32 7 32 L 5 32 C 5 32 4 32 4 33 L 4 35 C 4 35 4 36 3 36 L 3 36 C 3 36 2 36 2 35 L 2 29 C 2 29 2 28 3 28 L 3 28 C 3 28 4 28 4 29 L 4 29 C 4 29 4 30 5 30 L 5 30 C 5 30 6 30 6 29 L 6 29 C 6 29 6 28 7 28 L 7 28 C 7 28 8 28 8 27 L 8 27 C 8 27 8 26 9 26 L 9 26 C 9 26 10 26 10 27 L 10 27 C 10 27 10 28 11 28 L 11 28 C 11 28 12 28 12 27 L 12 27 C 12 27 12 26 11 26 L 11 26 C 11 26 10 26 10 25 L 10 25 C 10 25 10 24 9 24 L 9 24 C 9 24 8 24 8 23 L 8 23 z" fill="#000000" stroke-width="0"/><path id="p4" class="q-sq" d="M 2 39 C 2 39 2 38 3 38 L 15 38 C 15 38 16 38 16 39 L 16 51 C 16 51 16 52 15 52 L 3 52 C 3 52 2 52 2 51 L 2 39M 5 40 C 5 40 4 40 4 41 L 4 49 C 4 49 4 50 5 50 L 13 50 C 13 50 14 50 14 49 L 14 41 C 14 41 14 40 13 40 L 5 40 z" stroke-width="0" fill="#000000"/><path id="p5" class="q-sqf" d="M 6 7 C 6 7 6 6 7 6 L 11 6 C 11 6 12 6 12 7 L 12 11 C 12 11 12 12 11 12 L 7 12 C 7 12 6 12 6 11 L 6 7 z" stroke-width="0" fill="#E0003F"/><path id="p6" class="q-one" d="M 6 21 C 6 21 6 20 7 20 L 7 20 C 7 20 8 20 8 21 L 8 21 C 8 21 8 22 7 22 L 7 22 C 7 22 6 22 6 21 L 6 21 z" stroke-width="0" fill="#E0003F"/><path id="p7" class="q-sqf" d="M 6 43 C 6 43 6 42 7 42 L 11 42 C 11 42 12 42 12 43 L 12 47 C 12 47 12 48 11 48 L 7 48 C 7 48 6 48 6 47 L 6 43 z" stroke-width="0" fill="#E0003F"/><path id="p8" d="M 8 19 C 8 19 8 18 9 18 L 11 18 C 11 18 12 18 12 19 L 12 19 C 12 19 12 20 11 20 L 9 20 C 9 20 8 20 8 19 L 8 19 z" fill="#000000" stroke-width="0"/><path id="p9" class="q-one" d="M 14 19 C 14 19 14 18 15 18 L 15 18 C 15 18 16 18 16 19 L 16 19 C 16 19 16 20 15 20 L 15 20 C 15 20 14 20 14 19 L 14 19 z" stroke-width="0" fill="#E0003F"/><path id="p10" d="M 16 21 C 16 21 16 20 17 20 L 19 20 C 19 20 20 20 20 21 L 20 21 C 20 21 20 22 19 22 L 17 22 C 17 22 16 22 16 21 L 16 21 z" fill="#000000" stroke-width="0"/><path id="p11" class="q-one" d="M 18 3 C 18 3 18 2 19 2 L 19 2 C 19 2 20 2 20 3 L 20 3 C 20 3 20 4 19 4 L 19 4 C 19 4 18 4 18 3 L 18 3 z" stroke-width="0" fill="#E0003F"/><path id="p12" d="M 18 15 C 18 15 18 14 19 14 L 19 14 C 19 14 20 14 20 15 L 20 15 C 20 15 20 16 21 16 L 21 16 C 21 16 22 16 22 17 L 22 19 C 22 19 22 20 21 20 L 21 20 C 21 20 20 20 20 19 L 20 19 C 20 19 20 18 19 18 L 19 18 C 19 18 18 18 18 17 L 18 15 z" fill="#000000" stroke-width="0"/><path id="p13" class="q-one" d="M 18 25 C 18 25 18 24 19 24 L 19 24 C 19 24 20 24 20 25 L 20 25 C 20 25 20 26 19 26 L 19 26 C 19 26 18 26 18 25 L 18 25 z" stroke-width="0" fill="#E0003F"/><path id="p14" class="q-one" d="M 18 37 C 18 37 18 36 19 36 L 19 36 C 19 36 20 36 20 37 L 20 37 C 20 37 20 38 19 38 L 19 38 C 19 38 18 38 18 37 L 18 37 z" stroke-width="0" fill="#E0003F"/><path id="p15" d="M 18 43 C 18 43 18 42 19 42 L 19 42 C 19 42 20 42 20 43 L 20 45 C 20 45 20 46 19 46 L 19 46 C 19 46 18 46 18 45 L 18 43 z" fill="#000000" stroke-width="0"/><path id="p16" d="M 24 45 C 24 45 24 44 25 44 L 25 44 C 25 44 26 44 26 45 L 26 45 C 26 45 26 46 27 46 L 31 46 C 31 46 32 46 32 47 L 32 47 C 32 47 32 48 31 48 L 27 48 C 27 48 26 48 26 49 L 26 51 C 26 51 26 52 25 52 L 19 52 C 19 52 18 52 18 51 L 18 49 C 18 49 18 48 19 48 L 19 48 C 19 48 20 48 20 49 L 20 49 C 20 49 20 50 21 50 L 23 50 C 23 50 24 50 24 49 L 24 49 C 24 49 24 48 23 48 L 21 48 C 21 48 20 48 20 47 L 20 47 C 20 47 20 46 21 46 L 23 46 C 23 46 24 46 24 45 L 24 45 z" fill="#000000" stroke-width="0"/><path id="p17" d="M 22 3 C 22 3 22 2 23 2 L 23 2 C 23 2 24 2 24 3 L 24 5 C 24 5 24 6 23 6 L 23 6 C 23 6 22 6 22 7 L 22 7 C 22 7 22 8 21 8 L 21 8 C 21 8 20 8 20 7 L 20 5 C 20 5 20 4 21 4 L 21 4 C 21 4 22 4 22 3 L 22 3 z" fill="#000000" stroke-width="0"/><path id="p18" class="q-one" d="M 20 13 C 20 13 20 12 21 12 L 21 12 C 21 12 22 12 22 13 L 22 13 C 22 13 22 14 21 14 L 21 14 C 21 14 20 14 20 13 L 20 13 z" stroke-width="0" fill="#E0003F"/><path id="p19" class="q-one" d="M 20 23 C 20 23 20 22 21 22 L 21 22 C 21 22 22 22 22 23 L 22 23 C 22 23 22 24 21 24 L 21 24 C 21 24 20 24 20 23 L 20 23 z" stroke-width="0" fill="#E0003F"/><path id="p20" d="M 20 27 C 20 27 20 26 21 26 L 23 26 C 23 26 24 26 24 27 L 24 27 C 24 27 24 28 25 28 L 25 28 C 25 28 26 28 26 29 L 26 29 C 26 29 26 30 25 30 L 25 30 C 25 30 24 30 24 31 L 24 31 C 24 31 24 32 25 32 L 25 32 C 25 32 26 32 26 33 L 26 33 C 26 33 26 34 25 34 L 25 34 C 25 34 24 34 24 35 L 24 37 C 24 37 24 38 25 38 L 27 38 C 27 38 28 38 28 39 L 28 39 C 28 39 28 40 27 40 L 27 40 C 27 40 26 40 26 41 L 26 41 C 26 41 26 42 25 42 L 25 42 C 25 42 24 42 24 41 L 24 41 C 24 41 24 40 23 40 L 23 40 C 23 40 22 40 22 39 L 22 37 C 22 37 22 36 21 36 L 21 36 C 21 36 20 36 20 35 L 20 33 C 20 33 20 32 21 32 L 21 32 C 21 32 22 32 22 31 L 22 29 C 22 29 22 28 21 28 L 21 28 C 21 28 20 28 20 27 L 20 27 z" fill="#000000" stroke-width="0"/><path id="p21" class="q-one" d="M 20 41 C 20 41 20 40 21 40 L 21 40 C 21 40 22 40 22 41 L 22 41 C 22 41 22 42 21 42 L 21 42 C 21 42 20 42 20 41 L 20 41 z" stroke-width="0" fill="#E0003F"/><path id="p22" d="M 24 7 C 24 7 24 6 25 6 L 25 6 C 25 6 26 6 26 7 L 26 7 C 26 7 26 8 27 8 L 27 8 C 27 8 28 8 28 7 L 28 7 C 28 7 28 6 29 6 L 31 6 C 31 6 32 6 32 7 L 32 7 C 32 7 32 8 31 8 L 31 8 C 31 8 30 8 30 9 L 30 9 C 30 9 30 10 31 10 L 31 10 C 31 10 32 10 32 11 L 32 15 C 32 15 32 16 31 16 L 31 16 C 31 16 30 16 30 15 L 30 13 C 30 13 30 12 29 12 L 29 12 C 29 12 28 12 28 11 L 28 11 C 28 11 28 10 27 10 L 23 10 C 23 10 22 10 22 9 L 22 9 C 22 9 22 8 23 8 L 23 8 C 23 8 24 8 24 7 L 24 7 z" fill="#000000" stroke-width="0"/><path id="p23" class="q-one" d="M 22 15 C 22 15 22 14 23 14 L 23 14 C 23 14 24 14 24 15 L 24 15 C 24 15 24 16 23 16 L 23 16 C 23 16 22 16 22 15 L 22 15 z" stroke-width="0" fill="#E0003F"/><path id="p24" d="M 26 15 C 26 15 26 14 27 14 L 27 14 C 27 14 28 14 28 15 L 28 15 C 28 15 28 16 29 16 L 29 16 C 29 16 30 16 30 17 L 30 17 C 30 17 30 18 29 18 L 29 18 C 29 18 28 18 28 19 L 28 19 C 28 19 28 20 27 20 L 27 20 C 27 20 26 20 26 21 L 26 21 C 26 21 26 22 27 22 L 27 22 C 27 22 28 22 28 23 L 28 23 C 28 23 28 24 27 24 L 27 24 C 27 24 26 24 26 25 L 26 25 C 26 25 26 26 25 26 L 25 26 C 25 26 24 26 24 25 L 24 23 C 24 23 24 22 23 22 L 23 22 C 23 22 22 22 22 21 L 22 21 C 22 21 22 20 23 20 L 23 20 C 23 20 24 20 24 19 L 24 19 C 24 19 24 18 25 18 L 25 18 C 25 18 26 18 26 17 L 26 15 z" fill="#000000" stroke-width="0"/><path id="p25" class="q-one" d="M 22 43 C 22 43 22 42 23 42 L 23 42 C 23 42 24 42 24 43 L 24 43 C 24 43 24 44 23 44 L 23 44 C 23 44 22 44 22 43 L 22 43 z" stroke-width="0" fill="#E0003F"/><path id="p26" class="q-one" d="M 24 13 C 24 13 24 12 25 12 L 25 12 C 25 12 26 12 26 13 L 26 13 C 26 13 26 14 25 14 L 25 14 C 25 14 24 14 24 13 L 24 13 z" stroke-width="0" fill="#E0003F"/><path id="p27" class="q-one" d="M 26 3 C 26 3 26 2 27 2 L 27 2 C 27 2 28 2 28 3 L 28 3 C 28 3 28 4 27 4 L 27 4 C 27 4 26 4 26 3 L 26 3 z" stroke-width="0" fill="#E0003F"/><path id="p28" class="q-one" d="M 26 27 C 26 27 26 26 27 26 L 27 26 C 27 26 28 26 28 27 L 28 27 C 28 27 28 28 27 28 L 27 28 C 27 28 26 28 26 27 L 26 27 z" stroke-width="0" fill="#E0003F"/><path id="p29" d="M 26 35 C 26 35 26 34 27 34 L 29 34 C 29 34 30 34 30 35 L 30 37 C 30 37 30 38 29 38 L 29 38 C 29 38 28 38 28 37 L 28 37 C 28 37 28 36 27 36 L 27 36 C 27 36 26 36 26 35 L 26 35 z" fill="#000000" stroke-width="0"/><path id="p30" class="q-one" d="M 26 43 C 26 43 26 42 27 42 L 27 42 C 27 42 28 42 28 43 L 28 43 C 28 43 28 44 27 44 L 27 44 C 27 44 26 44 26 43 L 26 43 z" stroke-width="0" fill="#E0003F"/><path id="p31" class="q-one" d="M 28 21 C 28 21 28 20 29 20 L 29 20 C 29 20 30 20 30 21 L 30 21 C 30 21 30 22 29 22 L 29 22 C 29 22 28 22 28 21 L 28 21 z" stroke-width="0" fill="#E0003F"/><path id="p32" d="M 28 29 C 28 29 28 28 29 28 L 29 28 C 29 28 30 28 30 29 L 30 31 C 30 31 30 32 29 32 L 29 32 C 29 32 28 32 28 31 L 28 29 z" fill="#000000" stroke-width="0"/><path id="p33" class="q-one" d="M 28 41 C 28 41 28 40 29 40 L 29 40 C 29 40 30 40 30 41 L 30 41 C 30 41 30 42 29 42 L 29 42 C 29 42 28 42 28 41 L 28 41 z" stroke-width="0" fill="#E0003F"/><path id="p34" class="q-one" d="M 30 3 C 30 3 30 2 31 2 L 31 2 C 31 2 32 2 32 3 L 32 3 C 32 3 32 4 31 4 L 31 4 C 31 4 30 4 30 3 L 30 3 z" stroke-width="0" fill="#E0003F"/><path id="p35" class="q-one" d="M 30 19 C 30 19 30 18 31 18 L 31 18 C 31 18 32 18 32 19 L 32 19 C 32 19 32 20 31 20 L 31 20 C 31 20 30 20 30 19 L 30 19 z" stroke-width="0" fill="#E0003F"/><path id="p36" d="M 32 21 C 32 21 32 20 33 20 L 33 20 C 33 20 34 20 34 21 L 34 25 C 34 25 34 26 33 26 L 31 26 C 31 26 30 26 30 25 L 30 23 C 30 23 30 22 31 22 L 31 22 C 31 22 32 22 32 21 L 32 21 z" fill="#000000" stroke-width="0"/><path id="p37" d="M 32 29 C 32 29 32 28 33 28 L 33 28 C 33 28 34 28 34 29 L 34 29 C 34 29 34 30 35 30 L 35 30 C 35 30 36 30 36 29 L 36 29 C 36 29 36 28 37 28 L 37 28 C 37 28 38 28 38 29 L 38 29 C 38 29 38 30 39 30 L 41 30 C 41 30 42 30 42 29 L 42 29 C 42 29 42 28 43 28 L 43 28 C 43 28 44 28 44 29 L 44 31 C 44 31 44 32 43 32 L 43 32 C 43 32 42 32 42 33 L 42 33 C 42 33 42 34 43 34 L 43 34 C 43 34 44 34 44 33 L 44 33 C 44 33 44 32 45 32 L 45 32 C 45 32 46 32 46 31 L 46 29 C 46 29 46 28 47 28 L 47 28 C 47 28 48 28 48 29 L 48 29 C 48 29 48 30 49 30 L 51 30 C 51 30 52 30 52 31 L 52 35 C 52 35 52 36 51 36 L 49 36 C 49 36 48 36 48 37 L 48 39 C 48 39 48 40 47 40 L 47 40 C 47 40 46 40 46 39 L 46 37 C 46 37 46 36 45 36 L 45 36 C 45 36 44 36 44 37 L 44 39 C 44 39 44 40 45 40 L 45 40 C 45 40 46 40 46 41 L 46 43 C 46 43 46 44 45 44 L 41 44 C 41 44 40 44 40 45 L 40 45 C 40 45 40 46 39 46 L 39 46 C 39 46 38 46 38 47 L 38 49 C 38 49 38 50 39 50 L 41 50 C 41 50 42 50 42 51 L 42 51 C 42 51 42 52 41 52 L 35 52 C 35 52 34 52 34 51 L 34 51 C 34 51 34 50 35 50 L 35 50 C 35 50 36 50 36 49 L 36 47 C 36 47 36 46 35 46 L 33 46 C 33 46 32 46 32 45 L 32 45 C 32 45 32 44 31 44 L 31 44 C 31 44 30 44 30 43 L 30 43 C 30 43 30 42 31 42 L 31 42 C 31 42 32 42 32 41 L 32 41 C 32 41 32 40 33 40 L 33 40 C 33 40 34 40 34 39 L 34 37 C 34 37 34 36 33 36 L 33 36 C 33 36 32 36 32 35 L 32 35 C 32 35 32 34 31 34 L 31 34 C 31 34 30 34 30 33 L 30 33 C 30 33 30 32 31 32 L 31 32 C 31 32 32 32 32 31 L 32 29M 37 32 C 37 32 36 32 36 33 L 36 33 C 36 33 36 34 37 34 L 37 34 C 37 34 38 34 38 33 L 38 33 C 38 33 38 32 37 32 L 37 32M 49 32 C 49 32 48 32 48 33 L 48 33 C 48 33 48 34 49 34 L 49 34 C 49 34 50 34 50 33 L 50 33 C 50 33 50 32 49 32 L 49 32M 37 36 C 37 36 36 36 36 37 L 36 41 C 36 41 36 42 37 42 L 41 42 C 41 42 42 42 42 41 L 42 37 C 42 37 42 36 41 36 L 37 36 z" fill="#000000" stroke-width="0"/><path id="p38" d="M 32 9 C 32 9 32 8 33 8 L 35 8 C 35 8 36 8 36 9 L 36 11 C 36 11 36 12 35 12 L 35 12 C 35 12 34 12 34 11 L 34 11 C 34 11 34 10 33 10 L 33 10 C 33 10 32 10 32 9 L 32 9 z" fill="#000000" stroke-width="0"/><path id="p39" class="q-one" d="M 32 49 C 32 49 32 48 33 48 L 33 48 C 33 48 34 48 34 49 L 34 49 C 34 49 34 50 33 50 L 33 50 C 33 50 32 50 32 49 L 32 49 z" stroke-width="0" fill="#E0003F"/><path id="p40" d="M 34 3 C 34 3 34 2 35 2 L 35 2 C 35 2 36 2 36 3 L 36 5 C 36 5 36 6 35 6 L 35 6 C 35 6 34 6 34 5 L 34 3 z" fill="#000000" stroke-width="0"/><path id="p41" class="q-one" d="M 34 15 C 34 15 34 14 35 14 L 35 14 C 35 14 36 14 36 15 L 36 15 C 36 15 36 16 35 16 L 35 16 C 35 16 34 16 34 15 L 34 15 z" stroke-width="0" fill="#E0003F"/><path id="p42" class="q-one" d="M 34 19 C 34 19 34 18 35 18 L 35 18 C 35 18 36 18 36 19 L 36 19 C 36 19 36 20 35 20 L 35 20 C 35 20 34 20 34 19 L 34 19 z" stroke-width="0" fill="#E0003F"/><path id="p43" class="q-one" d="M 34 27 C 34 27 34 26 35 26 L 35 26 C 35 26 36 26 36 27 L 36 27 C 36 27 36 28 35 28 L 35 28 C 35 28 34 28 34 27 L 34 27 z" stroke-width="0" fill="#E0003F"/><path id="p44" class="q-one" d="M 36 23 C 36 23 36 22 37 22 L 37 22 C 37 22 38 22 38 23 L 38 23 C 38 23 38 24 37 24 L 37 24 C 37 24 36 24 36 23 L 36 23 z" stroke-width="0" fill="#E0003F"/><path id="p45" class="q-sq" d="M 38 3 C 38 3 38 2 39 2 L 51 2 C 51 2 52 2 52 3 L 52 15 C 52 15 52 16 51 16 L 39 16 C 39 16 38 16 38 15 L 38 3M 41 4 C 41 4 40 4 40 5 L 40 13 C 40 13 40 14 41 14 L 49 14 C 49 14 50 14 50 13 L 50 5 C 50 5 50 4 49 4 L 41 4 z" stroke-width="0" fill="#000000"/><path id="p46" class="q-one" d="M 38 19 C 38 19 38 18 39 18 L 39 18 C 39 18 40 18 40 19 L 40 19 C 40 19 40 20 39 20 L 39 20 C 39 20 38 20 38 19 L 38 19 z" stroke-width="0" fill="#E0003F"/><path id="p47" d="M 40 21 C 40 21 40 20 41 20 L 45 20 C 45 20 46 20 46 21 L 46 23 C 46 23 46 24 47 24 L 47 24 C 47 24 48 24 48 25 L 48 25 C 48 25 48 26 47 26 L 47 26 C 47 26 46 26 46 27 L 46 27 C 46 27 46 28 45 28 L 45 28 C 45 28 44 28 44 27 L 44 23 C 44 23 44 22 43 22 L 43 22 C 43 22 42 22 42 23 L 42 27 C 42 27 42 28 41 28 L 39 28 C 39 28 38 28 38 27 L 38 25 C 38 25 38 24 39 24 L 39 24 C 39 24 40 24 40 23 L 40 21 z" fill="#000000" stroke-width="0"/><path id="p48" class="q-one" d="M 38 39 C 38 39 38 38 39 38 L 39 38 C 39 38 40 38 40 39 L 40 39 C 40 39 40 40 39 40 L 39 40 C 39 40 38 40 38 39 L 38 39 z" stroke-width="0" fill="#E0003F"/><path id="p49" class="q-sqf" d="M 42 7 C 42 7 42 6 43 6 L 47 6 C 47 6 48 6 48 7 L 48 11 C 48 11 48 12 47 12 L 43 12 C 43 12 42 12 42 11 L 42 7 z" stroke-width="0" fill="#E0003F"/><path id="p50" class="q-one" d="M 42 47 C 42 47 42 46 43 46 L 43 46 C 43 46 44 46 44 47 L 44 47 C 44 47 44 48 43 48 L 43 48 C 43 48 42 48 42 47 L 42 47 z" stroke-width="0" fill="#E0003F"/><path id="p51" d="M 48 43 C 48 43 48 42 49 42 L 49 42 C 49 42 50 42 50 43 L 50 43 C 50 43 50 44 51 44 L 51 44 C 51 44 52 44 52 45 L 52 51 C 52 51 52 52 51 52 L 51 52 C 51 52 50 52 50 51 L 50 51 C 50 51 50 50 49 50 L 47 50 C 47 50 46 50 46 51 L 46 51 C 46 51 46 52 45 52 L 45 52 C 45 52 44 52 44 51 L 44 49 C 44 49 44 48 45 48 L 45 48 C 45 48 46 48 46 47 L 46 47 C 46 47 46 46 47 46 L 47 46 C 47 46 48 46 48 45 L 48 43 z" fill="#000000" stroke-width="0"/><path id="p52" class="q-one" d="M 50 19 C 50 19 50 18 51 18 L 51 18 C 51 18 52 18 52 19 L 52 19 C 52 19 52 20 51 20 L 51 20 C 51 20 50 20 50 19 L 50 19 z" stroke-width="0" fill="#E0003F"/><path id="p53" class="q-one" d="M 50 23 C 50 23 50 22 51 22 L 51 22 C 51 22 52 22 52 23 L 52 23 C 52 23 52 24 51 24 L 51 24 C 51 24 50 24 50 23 L 50 23 z" stroke-width="0" fill="#E0003F"/><path id="p54" class="q-one" d="M 50 39 C 50 39 50 38 51 38 L 51 38 C 51 38 52 38 52 39 L 52 39 C 52 39 52 40 51 40 L 51 40 C 51 40 50 40 50 39 L 50 39 z" stroke-width="0" fill="#E0003F"/><g id="qr-images"/></g></svg>