<svg height="372" viewBox="0 0 54 54" width="372" xmlns="http://www.w3.org/2000/svg"><path d="m0 0h54v54h-54z" fill="#fff"/><path d="m2 3s0-1 1-1h12s1 0 1 1v12s0 1-1 1h-12s-1 0-1-1zm3 1s-1 0-1 1v8s0 1 1 1h8s1 0 1-1v-8s0-1-1-1z"/><path d="m2 19s0-1 1-1h2s1 0 1 1 0 1-1 1h-2s-1 0-1-1z"/><path d="m2 25s0-1 1-1h4s1 0 1 1 0 1-1 1-1 0-1 1 0 1-1 1-1 0-1-1 0-1-1-1-1 0-1-1z"/><path d="m8 23s0-1 1-1h6s1 0 1 1 0 1-1 1-1 0-1 1 0 1 1 1 1 0 1 1 0 1-1 1-1 0-1 1 0 1-1 1h-2s-1 0-1 1v2s0 1 1 1 1 0 1-1 0-1 1-1 1 0 1 1 0 1 1 1 1 0 1-1 0-1-1-1-1 0-1-1 0-1 1-1h2s1 0 1 1v4s0 1-1 1h-10s-1 0-1-1 0-1 1-1 1 0 1-1 0-1-1-1h-2s-1 0-1 1v2s0 1-1 1-1 0-1-1v-6s0-1 1-1 1 0 1 1 0 1 1 1 1 0 1-1 0-1 1-1 1 0 1-1 0-1 1-1 1 0 1 1 0 1 1 1 1 0 1-1 0-1-1-1-1 0-1-1 0-1-1-1-1 0-1-1z"/><path d="m2 39s0-1 1-1h12s1 0 1 1v12s0 1-1 1h-12s-1 0-1-1zm3 1s-1 0-1 1v8s0 1 1 1h8s1 0 1-1v-8s0-1-1-1z"/><path d="m6 7s0-1 1-1h4s1 0 1 1v4s0 1-1 1h-4s-1 0-1-1z" fill="#e0003f"/><path d="m6 21s0-1 1-1 1 0 1 1 0 1-1 1-1 0-1-1z" fill="#e0003f"/><path d="m6 43s0-1 1-1h4s1 0 1 1v4s0 1-1 1h-4s-1 0-1-1z" fill="#e0003f"/><path d="m8 19s0-1 1-1h2s1 0 1 1 0 1-1 1h-2s-1 0-1-1z"/><path d="m14 19s0-1 1-1 1 0 1 1 0 1-1 1-1 0-1-1z" fill="#e0003f"/><path d="m16 21s0-1 1-1h2s1 0 1 1 0 1-1 1h-2s-1 0-1-1z"/><path d="m18 3s0-1 1-1 1 0 1 1 0 1-1 1-1 0-1-1z" fill="#e0003f"/><path d="m18 15s0-1 1-1 1 0 1 1 0 1 1 1 1 0 1 1v2s0 1-1 1-1 0-1-1 0-1-1-1-1 0-1-1z"/><path d="m18 25s0-1 1-1 1 0 1 1 0 1-1 1-1 0-1-1z" fill="#e0003f"/><path d="m18 37s0-1 1-1 1 0 1 1 0 1-1 1-1 0-1-1z" fill="#e0003f"/><path d="m18 43s0-1 1-1 1 0 1 1v2s0 1-1 1-1 0-1-1z"/><path d="m24 45s0-1 1-1 1 0 1 1 0 1 1 1h4s1 0 1 1 0 1-1 1h-4s-1 0-1 1v2s0 1-1 1h-6s-1 0-1-1v-2s0-1 1-1 1 0 1 1 0 1 1 1h2s1 0 1-1 0-1-1-1h-2s-1 0-1-1 0-1 1-1h2s1 0 1-1z"/><path d="m22 3s0-1 1-1 1 0 1 1v2s0 1-1 1-1 0-1 1 0 1-1 1-1 0-1-1v-2s0-1 1-1 1 0 1-1z"/><path d="m20 13s0-1 1-1 1 0 1 1 0 1-1 1-1 0-1-1z" fill="#e0003f"/><path d="m20 23s0-1 1-1 1 0 1 1 0 1-1 1-1 0-1-1z" fill="#e0003f"/><path d="m20 27s0-1 1-1h2s1 0 1 1 0 1 1 1 1 0 1 1 0 1-1 1-1 0-1 1 0 1 1 1 1 0 1 1 0 1-1 1-1 0-1 1v2s0 1 1 1h2s1 0 1 1 0 1-1 1-1 0-1 1 0 1-1 1-1 0-1-1 0-1-1-1-1 0-1-1v-2s0-1-1-1-1 0-1-1v-2s0-1 1-1 1 0 1-1v-2s0-1-1-1-1 0-1-1z"/><path d="m20 41s0-1 1-1 1 0 1 1 0 1-1 1-1 0-1-1z" fill="#e0003f"/><path d="m24 7s0-1 1-1 1 0 1 1 0 1 1 1 1 0 1-1 0-1 1-1h2s1 0 1 1 0 1-1 1-1 0-1 1 0 1 1 1 1 0 1 1v4s0 1-1 1-1 0-1-1v-2s0-1-1-1-1 0-1-1 0-1-1-1h-4s-1 0-1-1 0-1 1-1 1 0 1-1z"/><path d="m22 15s0-1 1-1 1 0 1 1 0 1-1 1-1 0-1-1z" fill="#e0003f"/><path d="m26 15s0-1 1-1 1 0 1 1 0 1 1 1 1 0 1 1 0 1-1 1-1 0-1 1 0 1-1 1-1 0-1 1 0 1 1 1 1 0 1 1 0 1-1 1-1 0-1 1 0 1-1 1-1 0-1-1v-2s0-1-1-1-1 0-1-1 0-1 1-1 1 0 1-1 0-1 1-1 1 0 1-1z"/><g fill="#e0003f"><path d="m22 43s0-1 1-1 1 0 1 1 0 1-1 1-1 0-1-1z"/><path d="m24 13s0-1 1-1 1 0 1 1 0 1-1 1-1 0-1-1z"/><path d="m26 3s0-1 1-1 1 0 1 1 0 1-1 1-1 0-1-1z"/><path d="m26 27s0-1 1-1 1 0 1 1 0 1-1 1-1 0-1-1z"/></g><path d="m26 35s0-1 1-1h2s1 0 1 1v2s0 1-1 1-1 0-1-1 0-1-1-1-1 0-1-1z"/><path d="m26 43s0-1 1-1 1 0 1 1 0 1-1 1-1 0-1-1z" fill="#e0003f"/><path d="m28 21s0-1 1-1 1 0 1 1 0 1-1 1-1 0-1-1z" fill="#e0003f"/><path d="m28 29s0-1 1-1 1 0 1 1v2s0 1-1 1-1 0-1-1z"/><path d="m28 41s0-1 1-1 1 0 1 1 0 1-1 1-1 0-1-1z" fill="#e0003f"/><path d="m30 3s0-1 1-1 1 0 1 1 0 1-1 1-1 0-1-1z" fill="#e0003f"/><path d="m30 19s0-1 1-1 1 0 1 1 0 1-1 1-1 0-1-1z" fill="#e0003f"/><path d="m32 21s0-1 1-1 1 0 1 1v4s0 1-1 1h-2s-1 0-1-1v-2s0-1 1-1 1 0 1-1z"/><path d="m32 29s0-1 1-1 1 0 1 1 0 1 1 1 1 0 1-1 0-1 1-1 1 0 1 1 0 1 1 1h2s1 0 1-1 0-1 1-1 1 0 1 1v2s0 1-1 1-1 0-1 1 0 1 1 1 1 0 1-1 0-1 1-1 1 0 1-1v-2s0-1 1-1 1 0 1 1 0 1 1 1h2s1 0 1 1v4s0 1-1 1h-2s-1 0-1 1v2s0 1-1 1-1 0-1-1v-2s0-1-1-1-1 0-1 1v2s0 1 1 1 1 0 1 1v2s0 1-1 1h-4s-1 0-1 1 0 1-1 1-1 0-1 1v2s0 1 1 1h2s1 0 1 1 0 1-1 1h-6s-1 0-1-1 0-1 1-1 1 0 1-1v-2s0-1-1-1h-2s-1 0-1-1 0-1-1-1-1 0-1-1 0-1 1-1 1 0 1-1 0-1 1-1 1 0 1-1v-2s0-1-1-1-1 0-1-1 0-1-1-1-1 0-1-1 0-1 1-1 1 0 1-1zm5 3s-1 0-1 1 0 1 1 1 1 0 1-1 0-1-1-1zm12 0s-1 0-1 1 0 1 1 1 1 0 1-1 0-1-1-1zm-12 4s-1 0-1 1v4s0 1 1 1h4s1 0 1-1v-4s0-1-1-1z"/><path d="m32 9s0-1 1-1h2s1 0 1 1v2s0 1-1 1-1 0-1-1 0-1-1-1-1 0-1-1z"/><path d="m32 49s0-1 1-1 1 0 1 1 0 1-1 1-1 0-1-1z" fill="#e0003f"/><path d="m34 3s0-1 1-1 1 0 1 1v2s0 1-1 1-1 0-1-1z"/><path d="m34 15s0-1 1-1 1 0 1 1 0 1-1 1-1 0-1-1z" fill="#e0003f"/><path d="m34 19s0-1 1-1 1 0 1 1 0 1-1 1-1 0-1-1z" fill="#e0003f"/><path d="m34 27s0-1 1-1 1 0 1 1 0 1-1 1-1 0-1-1z" fill="#e0003f"/><path d="m36 23s0-1 1-1 1 0 1 1 0 1-1 1-1 0-1-1z" fill="#e0003f"/><path d="m38 3s0-1 1-1h12s1 0 1 1v12s0 1-1 1h-12s-1 0-1-1zm3 1s-1 0-1 1v8s0 1 1 1h8s1 0 1-1v-8s0-1-1-1z"/><path d="m38 19s0-1 1-1 1 0 1 1 0 1-1 1-1 0-1-1z" fill="#e0003f"/><path d="m40 21s0-1 1-1h4s1 0 1 1v2s0 1 1 1 1 0 1 1 0 1-1 1-1 0-1 1 0 1-1 1-1 0-1-1v-4s0-1-1-1-1 0-1 1v4s0 1-1 1h-2s-1 0-1-1v-2s0-1 1-1 1 0 1-1z"/><path d="m38 39s0-1 1-1 1 0 1 1 0 1-1 1-1 0-1-1z" fill="#e0003f"/><path d="m42 7s0-1 1-1h4s1 0 1 1v4s0 1-1 1h-4s-1 0-1-1z" fill="#e0003f"/><path d="m42 47s0-1 1-1 1 0 1 1 0 1-1 1-1 0-1-1z" fill="#e0003f"/><path d="m48 43s0-1 1-1 1 0 1 1 0 1 1 1 1 0 1 1v6s0 1-1 1-1 0-1-1 0-1-1-1h-2s-1 0-1 1 0 1-1 1-1 0-1-1v-2s0-1 1-1 1 0 1-1 0-1 1-1 1 0 1-1z"/><path d="m50 19s0-1 1-1 1 0 1 1 0 1-1 1-1 0-1-1z" fill="#e0003f"/><path d="m50 23s0-1 1-1 1 0 1 1 0 1-1 1-1 0-1-1z" fill="#e0003f"/><path d="m50 39s0-1 1-1 1 0 1 1 0 1-1 1-1 0-1-1z" fill="#e0003f"/></svg>