<svg xmlns="http://www.w3.org/2000/svg" id="svg4548" version="1.1" viewBox="0 0 26.458 26.458" height="100" width="100"><g transform="translate(0 -270.542)" id="layer1"><g transform="matrix(.0848 0 0 .08453 -91.926 135.545)" id="Слой_x0020_1" clip-rule="evenodd" fill-rule="evenodd" image-rendering="optimizeQuality" shape-rendering="geometricPrecision" text-rendering="geometricPrecision"><g id="layer1-5"><path d="M1306 1886h35v-16h-35zm-168 0h35v-16h-35zm24-86c0 5 4 9 9 9s9-4 9-9-4-9-9-9-9 4-9 9zm136-1c0 4 5 8 10 8s9-4 9-8c0-5-4-9-9-9s-10 4-10 9zm-109 1c0 9-8 17-18 17s-18-8-18-17c0-10 8-17 18-17s18 7 18 17zm137-1c0 9-8 17-18 17s-18-8-18-17c0-10 8-17 18-17s18 7 18 17zm-194-109v61c0 3 3 6 7 6h200c4 0 7-3 7-6v-61c0-4-3-7-7-7h-200c-4 0-7 3-7 7zm207-16c10 0 17 7 17 16v61c0 9-7 16-17 16h-200c-9 0-17-7-17-16v-61c0-9 8-16 17-16zm-25-33c6 0 10 4 10 9s-4 9-10 9h-149c-6 0-10-4-10-9s4-9 10-9zm-129-19c-42 0-76 32-76 72v152h262v-152c0-40-34-73-76-72zm110-25c56 0 101 44 101 97v164c0 7-6 12-13 12h-16v21c0 10-9 19-20 19h-46c-11 0-20-9-20-19v-21h-83v21c0 10-9 19-20 19h-46c-11 0-20-9-20-19v-21h-15c-8 0-13-5-13-12v-164c0-53 45-96 101-96z" id="rect14" fill="#000" fill-rule="nonzero"/></g></g></g></svg>