<svg xmlns="http://www.w3.org/2000/svg" width="100" height="100" shape-rendering="geometricPrecision" text-rendering="geometricPrecision" image-rendering="optimizeQuality" fill-rule="evenodd" clip-rule="evenodd"><g id="Слой_x0020_1"><g id="layer1"><path id="rect14" d="M67 0c18 0 33 14 33 31v52c0 3-2 4-4 4h-5v7c0 3-3 6-7 6H70c-4 0-7-3-7-6v-7H37v7c0 3-3 6-7 6H16c-4 0-7-3-7-6v-7H4c-2 0-4-1-4-4V31C0 14 15 0 32 0h35zM33 8C19 8 8 18 8 31v49h84V31C92 18 81 8 68 8H33zm41 6c1 0 3 1 3 3 0 1-2 3-3 3H26c-2 0-3-2-3-3 0-2 1-3 3-3h48zm8 10c3 0 5 3 5 6v19c0 3-2 5-5 5H18c-3 0-6-2-6-5V30c0-3 3-6 6-6h64zm-66 6v19c0 1 1 2 2 2h64c1 0 2-1 2-2V30c0-2-1-3-2-3H18c-1 0-2 1-2 3zm61 34c0 3-2 6-5 6s-6-3-6-6 3-5 6-5 5 2 5 5zm-43 1c0 3-3 5-6 5s-6-2-6-5 3-6 6-6 6 3 6 6zm35-1c0 2 1 3 3 3 1 0 3-1 3-3 0-1-2-2-3-2-2 0-3 1-3 2zm-44 1c0 1 1 3 3 3s3-2 3-3c0-2-1-3-3-3s-3 1-3 3zm-8 27h11v-5H17v5zm54 0h11v-5H71v5z" fill="#000" fill-rule="nonzero"/></g></g></svg>