<svg xmlns="http://www.w3.org/2000/svg" width="100" height="62" shape-rendering="geometricPrecision" text-rendering="geometricPrecision" image-rendering="optimizeQuality" fill-rule="evenodd" clip-rule="evenodd"><g id="Слой_x0020_1"><g id="g10"><path id="path8" d="M50 0c-2 0-4 0-5 1L2 19l-2 2c0 1 1 2 2 3l12 5v19c0 1 0 2 1 2 0 0 13 12 34 12 20 0 35-11 35-11 1-1 1-2 1-3V29l10-4v8c-2 1-3 2-3 4v14c0 2 2 3 4 3s4-1 4-3V37c0-2-1-3-3-4v-9h1c1-1 2-2 2-3l-2-2L54 1c-1-1-2-1-4-1zm0 7l34 14-34 15-34-15L50 7zM20 32l25 10c1 1 3 1 5 1s3 0 4-1l25-10v15c-2 1-14 9-30 9-17 0-27-9-29-10V32z" fill="#2b2a29" fill-rule="nonzero"/></g></g></svg>