<svg xmlns="http://www.w3.org/2000/svg" height="23" viewBox="0 0 6.085 6.085" width="23" version="1.1" id="svg4"><path d="M5.494 6.068c-.09-.027-.154-.079-.39-.314a118.46 118.46 0 0 0-.637-.63l-.436-.427-.128.08a2.513 2.513 0 0 1-1.555.357A2.577 2.577 0 0 1 .435 4.012a3.873 3.873 0 0 1-.31-.634 2.72 2.72 0 0 1-.08-1.298A2.566 2.566 0 0 1 1.974.073C3.094-.209 4.32.347 4.85 1.377c.119.23.162.343.22.57a2.53 2.53 0 0 1-.28 1.938l-.09.146.656.659c.423.424.67.685.692.734a.524.524 0 0 1-.004.394c-.108.204-.346.312-.55.25zM2.842 4.195a1.54 1.54 0 0 0 .888-.466c.333-.33.486-.696.486-1.155 0-.465-.153-.825-.495-1.162A1.533 1.533 0 0 0 2.573.934c-.455 0-.825.156-1.157.486a1.527 1.527 0 0 0-.48 1.248c.02.406.155.72.434 1.019.258.275.575.45.915.506.141.024.417.025.557.002z" id="path2" fill="#fff" stroke-width=".019"/></svg>